<svg width="835" height="329" viewBox="0 0 835 329" fill="none" xmlns="http://www.w3.org/2000/svg">
<g filter="url(#filter0_d_384_193)">
<path d="M0 89C0 39.8467 39.8467 0 89 0H709C758.153 0 798 39.8467 798 89V232C798 281.153 758.153 321 709 321H89C39.8466 321 0 281.153 0 232V89Z" fill="white" fill-opacity="0.29" shape-rendering="crispEdges"/>
<path d="M89 0.5H709C757.877 0.5 797.5 40.1228 797.5 89V232C797.5 280.877 757.877 320.5 709 320.5H89C40.1228 320.5 0.5 280.877 0.5 232V89C0.5 40.1228 40.1228 0.5 89 0.5Z" stroke="white" stroke-opacity="0.21" shape-rendering="crispEdges"/>
</g>
<defs>
<filter id="filter0_d_384_193" x="0" y="0" width="835" height="329" filterUnits="userSpaceOnUse" color-interpolation-filters="sRGB">
<feFlood flood-opacity="0" result="BackgroundImageFix"/>
<feColorMatrix in="SourceAlpha" type="matrix" values="0 0 0 0 0 0 0 0 0 0 0 0 0 0 0 0 0 0 127 0" result="hardAlpha"/>
<feOffset dx="33" dy="4"/>
<feGaussianBlur stdDeviation="2"/>
<feComposite in2="hardAlpha" operator="out"/>
<feColorMatrix type="matrix" values="0 0 0 0 1 0 0 0 0 0.819608 0 0 0 0 0 0 0 0 1 0"/>
<feBlend mode="normal" in2="BackgroundImageFix" result="effect1_dropShadow_384_193"/>
<feBlend mode="normal" in="SourceGraphic" in2="effect1_dropShadow_384_193" result="shape"/>
</filter>
</defs>
</svg>
