<svg width="780" height="780" viewBox="0 0 780 780" fill="none" xmlns="http://www.w3.org/2000/svg">
<path opacity="0.3" d="M0 521.912L248.283 378.529L777.069 646.176L511.728 780L0 521.912Z" fill="black"/>
<path d="M43.5913 458.824V531.471L90.9735 506.618V435.882L43.5913 458.824Z" fill="#2D3134"/>
<path opacity="0.39" d="M43.5913 458.824V531.471L90.9735 506.618V435.882L43.5913 458.824Z" fill="black"/>
<path d="M439.707 609.853C426.44 602.206 413.173 602.206 403.696 606.029L377.162 619.411C365.79 623.235 360.104 634.706 360.104 650C360.104 678.676 384.743 715 413.173 730.294C428.335 737.941 441.602 737.941 451.078 734.117C451.078 734.117 477.612 720.735 479.508 718.823C488.984 713.088 492.775 703.529 492.775 690.147C492.775 659.558 468.136 623.235 439.707 609.853Z" fill="#2D3134"/>
<path opacity="0.39" d="M451.079 732.206C454.869 730.294 477.613 718.823 479.508 718.823C488.984 713.088 492.775 703.529 492.775 690.147C492.775 678.676 488.984 665.294 483.299 653.823L456.765 667.206C462.45 678.676 466.241 692.059 466.241 703.529C466.241 716.912 460.555 728.382 451.079 732.206Z" fill="black"/>
<path d="M452.974 695.882C452.974 718.823 435.916 726.471 413.173 715C390.429 703.529 373.372 676.765 373.372 653.823C373.372 630.882 390.429 623.235 413.173 634.706C435.916 646.176 452.974 672.941 452.974 695.882Z" fill="#999999"/>
<path opacity="0.15" d="M416.963 715C394.22 703.529 377.162 676.765 377.162 653.824C377.162 642.353 380.953 634.706 388.534 630.882C379.057 632.794 373.372 642.353 373.372 653.824C373.372 676.765 390.429 703.529 413.173 715C424.544 720.735 434.021 720.735 441.602 716.912C434.021 720.735 426.44 718.824 416.963 715Z" fill="black"/>
<path d="M434.021 682.5C434.021 692.059 426.44 695.882 416.963 690.147C407.487 684.412 399.906 674.853 399.906 665.294C399.906 655.735 407.487 651.912 416.963 657.647C426.44 663.382 434.021 672.941 434.021 682.5Z" fill="#2D3134"/>
<path opacity="0.39" d="M434.021 682.5C434.021 692.059 426.44 695.882 416.963 690.147C407.487 684.412 399.906 674.853 399.906 665.294C399.906 655.735 407.487 651.912 416.963 657.647C426.44 663.382 434.021 672.941 434.021 682.5Z" fill="black"/>
<path d="M430.231 684.412C430.231 693.971 422.65 697.794 413.173 692.059C403.697 688.235 396.116 676.765 396.116 667.206C396.116 657.647 403.697 653.824 413.173 659.559C422.65 663.382 430.231 674.853 430.231 684.412Z" fill="#2D3134"/>
<path opacity="0.06" d="M466.241 703.529C466.241 732.206 441.602 745.588 413.173 730.294C384.743 715 360.104 678.676 360.104 650C360.104 621.323 384.743 607.941 413.173 623.235C441.602 636.618 466.241 672.941 466.241 703.529Z" fill="black"/>
<path d="M126.983 451.177C113.716 443.53 100.449 443.53 90.973 447.353L64.4389 460.736C54.9625 464.559 47.3813 476.03 47.3813 491.324C47.3813 520 72.0201 556.324 100.449 571.618C115.612 579.265 128.879 579.265 138.355 575.441C138.355 575.441 164.889 562.059 166.785 560.147C176.261 554.412 180.052 544.853 180.052 531.471C180.052 502.794 155.413 466.471 126.983 451.177Z" fill="#2D3134"/>
<path opacity="0.39" d="M138.355 575.441C142.146 573.53 164.89 562.059 166.785 562.059C176.261 556.324 180.052 546.765 180.052 533.382C180.052 521.912 176.261 508.53 170.575 497.059L144.041 510.441C149.727 521.912 153.518 535.294 153.518 546.765C153.518 560.147 147.832 569.706 138.355 575.441Z" fill="black"/>
<path d="M140.251 539.118C140.251 562.059 123.193 569.706 100.45 558.235C77.7065 546.765 60.6489 520 60.6489 497.059C60.6489 474.118 77.7065 466.471 100.45 477.941C123.193 489.412 140.251 516.177 140.251 539.118Z" fill="#999999"/>
<path opacity="0.15" d="M104.241 556.324C81.4971 544.853 64.4395 518.088 64.4395 495.147C64.4395 483.676 68.2301 476.029 75.8112 472.206C66.3348 474.118 60.6489 483.676 60.6489 495.147C60.6489 518.088 77.7065 544.853 100.45 556.324C111.822 562.059 121.298 562.059 128.879 558.235C121.298 562.059 113.717 562.059 104.241 556.324Z" fill="black"/>
<path d="M121.298 525.735C121.298 535.294 113.717 539.118 104.24 533.382C94.7638 529.559 87.1826 518.088 87.1826 508.529C87.1826 498.971 94.7638 495.147 104.24 500.882C113.717 504.706 121.298 516.176 121.298 525.735Z" fill="#2D3134"/>
<path opacity="0.39" d="M121.298 525.735C121.298 535.294 113.717 539.118 104.24 533.382C94.7638 529.559 87.1826 518.088 87.1826 508.529C87.1826 498.971 94.7638 495.147 104.24 500.882C113.717 504.706 121.298 516.176 121.298 525.735Z" fill="black"/>
<path d="M117.508 525.735C117.508 535.294 109.927 539.118 100.45 533.382C90.9737 527.647 83.3926 518.088 83.3926 508.529C83.3926 498.971 90.9737 495.147 100.45 500.882C109.927 506.618 117.508 518.088 117.508 525.735Z" fill="#2D3134"/>
<path opacity="0.06" d="M153.518 544.853C153.518 573.529 128.879 586.912 100.449 571.618C72.0201 556.323 47.3813 520 47.3813 491.323C47.3813 462.647 72.0201 449.265 100.449 464.559C128.879 479.853 153.518 516.176 153.518 544.853Z" fill="black"/>
<path d="M265.34 0L0 133.824V426.323L341.152 598.382L606.492 458.823V172.059L265.34 0Z" fill="#FFD100"/>
<path d="M0 401.471V439.706L341.152 611.765V573.529L0 401.471Z" fill="#2D3134"/>
<path d="M606.492 439.706V477.941L341.151 611.765V573.529L606.492 439.706Z" fill="#2D3134"/>
<path opacity="0.06" d="M0 133.824V439.706L341.152 611.765V305.882L0 133.824Z" fill="black"/>
<path opacity="0.39" d="M606.492 172.059V477.941L341.151 611.765V305.882L606.492 172.059Z" fill="black"/>
<path d="M739.162 325L625.445 267.647L360.104 401.471V617.5C360.104 623.235 367.686 627.059 373.372 623.235C396.115 604.118 435.916 617.5 464.345 651.912C481.403 672.941 488.984 695.883 488.984 715L511.728 726.471L777.068 592.647V439.706L739.162 325Z" fill="#E5E5E5"/>
<path d="M519.309 563.971L487.089 468.382C485.193 464.559 487.089 462.647 490.879 460.735L727.79 342.206C731.581 340.294 735.372 342.206 737.267 346.029L767.592 435.882C769.487 439.706 767.591 441.618 763.801 443.529L528.785 567.794C524.995 569.706 519.309 567.794 519.309 563.971Z" fill="#3399CC"/>
<path opacity="0.15" d="M562.901 424.412L725.896 342.206C729.686 340.294 733.477 342.206 735.372 346.029L763.801 430.147L562.901 424.412Z" fill="black"/>
<path d="M765.697 435.882L763.802 430.147C763.802 433.971 763.802 435.882 760.011 437.794L524.995 562.059C521.205 563.971 517.414 562.059 515.519 558.235L517.414 563.971C519.31 567.794 523.1 569.706 526.891 567.794L761.907 443.529C765.697 441.618 767.592 439.706 765.697 435.882Z" fill="#2D3134"/>
<path d="M578.063 554.412L710.734 487.5V598.382L578.063 665.294V554.412Z" fill="white"/>
<path d="M587.539 650L701.256 592.647V502.794L587.539 560.147V650Z" fill="#2D3134"/>
<path d="M777.068 592.647V554.412L511.728 688.235V726.471L777.068 592.647Z" fill="#2D3134"/>
<path d="M473.823 707.353L511.729 726.471V688.235L473.823 669.118V707.353Z" fill="#2D3134"/>
<path d="M587.539 650V669.118L701.256 611.765V592.647L587.539 650Z" fill="white"/>
<path d="M464.346 464.559L392.325 428.235C390.43 426.324 386.639 428.235 386.639 432.059V489.412C386.639 493.235 388.534 497.059 392.325 497.059L416.964 510.441C418.859 512.353 420.754 512.353 422.65 514.265L447.288 544.853C447.288 544.853 447.288 544.853 449.184 544.853L490.88 565.883C492.775 567.794 496.566 563.971 494.671 562.059L462.451 466.471C466.241 466.471 466.241 464.559 464.346 464.559Z" fill="#3399CC"/>
<path opacity="0.15" d="M498.461 560.147L460.555 541.03C460.555 541.03 460.555 541.03 458.66 541.03L434.021 510.441C432.126 508.53 430.231 506.618 428.335 506.618L403.696 493.235C399.906 491.324 398.011 489.412 398.011 485.588V430.147L394.22 428.235C392.325 426.324 388.534 428.235 388.534 432.059V489.412C388.534 493.235 390.429 497.059 394.22 497.059L418.859 510.441C420.754 512.353 422.649 512.353 424.545 514.265L449.183 544.853C449.183 544.853 449.183 544.853 451.079 544.853L492.775 565.883C496.566 567.794 498.461 565.883 498.461 560.147Z" fill="black"/>
<path d="M511.727 650V688.236L502.251 684.412V646.177L511.727 650Z" fill="#FFCC00"/>
<path d="M587.539 573.529V579.265L701.256 521.912V516.177L587.539 573.529Z" fill="#E5E5E5"/>
<path d="M587.539 592.647V598.382L701.256 541.029V535.294L587.539 592.647Z" fill="#E5E5E5"/>
<path d="M587.539 611.765V617.5L701.256 560.147V554.412L587.539 611.765Z" fill="#E5E5E5"/>
<path d="M587.539 630.882V636.618L701.256 579.265V573.53L587.539 630.882Z" fill="#E5E5E5"/>
<path opacity="0.5" d="M388.534 521.912V531.471L407.487 541.03V531.471L388.534 521.912Z" fill="#2D3134"/>
<path opacity="0.5" d="M407.487 544.853L388.534 535.294V531.471L407.487 541.029V544.853Z" fill="white"/>
<path d="M653.875 437.794C651.98 435.883 650.084 435.883 648.189 437.794L576.168 520C574.273 521.912 574.273 523.824 576.168 525.735C578.063 527.647 579.959 527.647 581.854 525.735L600.807 502.794V521.912H606.493V497.059L653.875 441.618C655.77 441.618 655.77 437.794 653.875 437.794Z" fill="#2D3134"/>
<path d="M722.105 399.559C720.21 397.647 718.315 397.647 716.419 399.559L644.399 481.765C642.503 483.676 642.503 485.588 644.399 487.5C646.294 489.412 648.189 489.412 650.084 487.5L667.142 468.382V489.412H672.828V462.647L722.105 405.294C724.001 403.382 724.001 401.471 722.105 399.559Z" fill="#2D3134"/>
<path d="M739.163 573.529L777.068 554.412V516.177L758.115 525.735C746.744 531.471 739.163 542.941 739.163 556.324V573.529Z" fill="white"/>
<path opacity="0.3" d="M746.253 539.997C740.966 546.549 739.971 554.561 744.031 557.894C748.09 561.227 755.666 558.618 760.952 552.066C766.239 545.515 767.234 537.503 763.174 534.17C759.115 530.837 751.539 533.446 746.253 539.997Z" fill="#2D3134"/>
<path opacity="0.3" d="M755.728 539.997C750.442 546.549 749.447 554.561 753.506 557.894C757.565 561.227 765.142 558.618 770.428 552.066C775.714 545.515 776.709 537.503 772.65 534.17C768.591 530.837 761.015 533.446 755.728 539.997Z" fill="#2D3134"/>
<path opacity="0.3" d="M739.163 573.529L777.068 554.412V516.177L739.163 573.529Z" fill="white"/>
<path d="M511.728 688.235L549.634 669.118V651.912C549.634 642.353 540.157 636.618 530.681 640.441L511.728 650V688.235Z" fill="white"/>
<path opacity="0.3" d="M528.296 654.692C523.009 661.243 522.014 669.256 526.074 672.588C530.133 675.921 537.709 673.312 542.995 666.761C548.282 660.21 549.277 652.197 545.217 648.864C541.158 645.532 533.582 648.141 528.296 654.692Z" fill="#2D3134"/>
<path opacity="0.3" d="M518.818 654.692C513.532 661.243 512.537 669.256 516.596 672.588C520.656 675.921 528.232 673.312 533.518 666.761C538.805 660.21 539.8 652.197 535.74 648.864C531.681 645.532 524.105 648.141 518.818 654.692Z" fill="#2D3134"/>
<path opacity="0.3" d="M511.728 688.235L549.634 669.118L511.728 650V688.235Z" fill="white"/>
<path opacity="0.06" d="M473.822 458.824L360.104 401.471V617.5C360.104 623.235 367.686 627.059 373.372 623.235C396.115 604.118 435.916 617.5 464.345 651.912C470.031 657.647 473.822 663.382 475.717 671.029L473.822 669.118V707.353L511.728 726.471V688.235V573.529L473.822 458.824Z" fill="black"/>
<path opacity="0.39" d="M739.163 325L473.823 458.824L511.729 573.529V726.471L777.069 592.647V439.706L739.163 325Z" fill="black"/>
</svg>
