<svg width="163" height="128" viewBox="0 0 163 128" fill="none" xmlns="http://www.w3.org/2000/svg">
<path d="M81.4992 122.661C112.81 122.661 138.193 95.2836 138.193 61.5122C138.193 27.7407 112.81 0.363525 81.4992 0.363525C50.1882 0.363525 24.8057 27.7407 24.8057 61.5122C24.8057 95.2836 50.1882 122.661 81.4992 122.661Z" fill="#FFD100"/>
<mask id="mask0_384_479" style="mask-type:luminance" maskUnits="userSpaceOnUse" x="0" y="16" width="163" height="112">
<path d="M162.807 16.0208H0.192871V127.636H162.807V16.0208Z" fill="white"/>
</mask>
<g mask="url(#mask0_384_479)">
<path d="M53.8854 61.4125C54.2307 60.5675 54.3518 59.6357 54.2353 58.7208C54.1219 58.0427 53.8423 57.4097 53.4254 56.8875C53.0086 56.3653 52.4698 55.973 51.8649 55.7512C52.0671 55.1663 52.1501 54.5412 52.1083 53.9185C52.0665 53.2958 51.9008 52.6902 51.6225 52.1428C50.8765 50.7298 48.6792 50.1685 45.8639 50.4626C42.8389 50.7787 18.5567 52.774 8.63362 74.489C0.169781 93.0094 0.192872 114.088 0.192872 114.088C0.192872 114.088 7.36538 119.614 22.7353 119.22C22.7353 119.22 27.7852 101.379 30.6396 92.6952C31.4078 90.3579 32.0526 87.9478 32.5873 85.6718C33.6948 84.3853 41.8398 74.9556 44.839 72.4065C48.0593 69.6698 52.7646 68.459 54.0977 65.6168C54.3986 64.9549 54.537 64.2209 54.4999 63.4848C54.4627 62.7487 54.2512 62.0353 53.8854 61.4125Z" fill="#12264B"/>
<path d="M31.6381 72.7621C33.484 73.4578 35.0725 74.7774 36.1675 76.5248C36.4766 77.0325 37.2333 76.5583 36.926 76.0458C35.7082 74.0911 33.9333 72.6173 31.8699 71.8473C31.3317 71.6557 31.1016 72.5696 31.6363 72.7611" fill="white"/>
<path d="M30.9672 74.3761C33.088 69.076 37.5482 65.9321 42.1576 63.4108C45.5822 61.5381 50.4696 60.0438 52.0158 55.8433C52.2245 55.2762 51.3754 55.03 51.1694 55.5914C50.117 58.4555 47.203 59.6845 44.8122 60.949C42.6363 62.0985 40.4391 63.2164 38.3644 64.5738C34.8954 66.844 31.8438 69.8184 30.2123 73.8972C29.9903 74.4508 30.7452 74.9336 30.9707 74.3761" fill="white"/>
<path d="M35.9889 75.3148C39.1231 71.9114 43.133 69.7589 47.1456 67.8124C49.8739 66.4867 52.7834 65.0249 53.9157 61.8235C54.1173 61.2488 53.2683 61.0074 53.0685 61.5716C51.794 65.1753 47.7841 66.3832 44.8444 67.913C41.3529 69.558 38.1479 71.8349 35.3681 74.6452C35.304 74.7375 35.2728 74.8516 35.2804 74.9666C35.288 75.0816 35.3338 75.1898 35.4094 75.2713C35.4849 75.3528 35.5853 75.4022 35.6919 75.4104C35.7985 75.4185 35.9043 75.385 35.9898 75.3158" fill="white"/>
<path d="M128.555 102.712L36.1646 93.7347C35.9348 93.7124 35.7114 93.6416 35.5071 93.5261C35.3028 93.4107 35.1216 93.253 34.9738 93.062C34.826 92.871 34.7145 92.6505 34.6457 92.413C34.577 92.1756 34.5523 91.9258 34.573 91.678L40.7464 17.745C40.7672 17.4972 40.833 17.2562 40.9401 17.0358C41.0472 16.8155 41.1935 16.62 41.3706 16.4606C41.5478 16.3012 41.7523 16.181 41.9725 16.1068C42.1927 16.0327 42.4243 16.006 42.6541 16.0284L135.045 25.0041C135.509 25.0493 135.937 25.2914 136.236 25.6771C136.534 26.0627 136.678 26.5604 136.637 27.0608L130.462 100.994C130.442 101.242 130.376 101.483 130.269 101.704C130.162 101.924 130.016 102.12 129.839 102.279C129.661 102.439 129.457 102.559 129.237 102.634C129.016 102.708 128.784 102.735 128.555 102.712Z" fill="#FAB500"/>
<path d="M125.593 27.5042L47.625 19.93C47.1611 19.885 46.6997 20.0406 46.3421 20.3625C45.9845 20.6844 45.7601 21.1462 45.7182 21.6466L40.1106 88.7966C40.0689 89.2969 40.2131 89.7946 40.5116 90.1803C40.81 90.5659 41.2382 90.808 41.7021 90.8532L119.67 98.4284C120.134 98.4736 120.595 98.3183 120.953 97.9966C121.311 97.6749 121.535 97.2131 121.577 96.7128L127.185 29.5628C127.227 29.0625 127.083 28.5647 126.784 28.1791C126.486 27.7934 126.057 27.5514 125.594 27.5061" fill="#00B1EB"/>
<path d="M114.874 41.3146L112.938 48.1666C112.773 48.7509 113.62 49.001 113.785 48.4185C114.43 46.1342 115.076 43.8502 115.721 41.5666C115.886 40.9822 115.039 40.7322 114.874 41.3146Z" fill="#FAB500" stroke="#FAB500" stroke-width="1.5053"/>
<path d="M97.0042 58.4228L103.599 57.577C104.155 57.5061 104.161 56.5578 103.599 56.6296L97.0042 57.4755C96.4501 57.5463 96.443 58.4947 97.0042 58.4228Z" fill="#FAB500" stroke="#FAB500" stroke-width="1.5053"/>
<path d="M102.011 44.993L106.186 50.5681C106.541 51.047 107.162 50.3688 106.807 49.8975L102.633 44.3224C102.278 43.8435 101.656 44.5217 102.011 44.993Z" fill="#FAB500" stroke="#FAB500" stroke-width="1.5053"/>
<path d="M128.851 67.074C128.764 67.074 128.676 67.0698 128.585 67.0615C127.801 66.9872 127.074 66.5846 126.562 65.9399C126.049 65.2952 125.791 64.4597 125.842 63.6122C125.894 62.7647 126.251 61.9727 126.837 61.4057C127.423 60.8386 128.192 60.5417 128.979 60.5785C129.766 60.6153 130.508 60.9828 131.046 61.6024C131.585 62.222 131.877 63.0444 131.86 63.8935C131.844 64.7426 131.519 65.5509 130.957 66.1454C130.395 66.7398 129.639 67.0731 128.851 67.074ZM128.845 61.4222C128.26 61.4214 127.697 61.6679 127.278 62.1089C126.859 62.55 126.617 63.1505 126.603 63.7819C126.589 64.4132 126.805 65.0253 127.205 65.4869C127.605 65.9485 128.156 66.223 128.741 66.2515C129.326 66.2801 129.898 66.0604 130.335 65.6396C130.771 65.2188 131.038 64.6303 131.077 64.0002C131.116 63.3701 130.925 62.7484 130.545 62.2684C130.164 61.7883 129.625 61.488 129.041 61.4318C128.976 61.4261 128.911 61.4222 128.845 61.4222Z" fill="white"/>
<path d="M40.3157 58.2391C40.4933 56.0512 40.6689 53.8633 40.8423 51.6754C40.8859 51.1294 40.0963 51.1332 40.0528 51.6754C39.8752 53.8639 39.6996 56.0518 39.5261 58.2391C39.4826 58.7851 40.2722 58.7812 40.3157 58.2391Z" fill="#FAB500"/>
<path d="M118.161 91.4806C118.161 91.4806 110.89 86.9928 108.464 85.5597C105.39 83.7397 102.81 84.4102 101.73 85.4017C100.568 86.464 99.498 88.9536 101.583 91.7172C103.669 94.4808 117.229 110.814 121.437 115.078C124.779 118.368 129.079 120.299 133.598 120.538L136.898 127.64C136.898 127.64 153.805 127.64 162.807 116.667C162.807 116.667 151.389 83.4274 149.12 78.7748C147.075 74.4088 143.758 70.8869 139.679 68.7492C135.433 66.3813 129.798 68.276 129.798 68.276C129.798 68.276 124.089 66.6179 115.6 68.0394C108.429 69.2397 104.873 71.1421 103.121 73.2888C101.51 75.2621 102.425 79.999 108.134 80.1571C113.843 80.3151 117.356 80.2366 117.356 80.2366L118.161 91.4806Z" fill="#12264B"/>
<path d="M118.161 91.4768C114.47 85.7575 111.79 79.3521 110.257 72.5829C107.915 61.7412 108.064 55.2676 110.622 53.1103C112.636 51.4129 116.04 52.3976 116.6 56.0578C118.134 66.0652 121.015 71.1623 121.015 71.1623L118.161 91.4768Z" fill="#12264B"/>
<path d="M108.922 70.0626C109.545 73.444 110.482 76.7494 111.718 79.9291C111.933 80.4837 112.784 80.2395 112.565 79.6772C111.329 76.4977 110.392 73.1922 109.769 69.8106C109.658 69.2129 108.812 69.4667 108.922 70.0626Z" fill="white"/>
<path d="M117.785 91.7C119.339 93.0341 120.905 94.3509 122.484 95.6505C122.934 96.0203 123.372 95.1974 122.928 94.8324C121.409 93.582 119.902 92.3144 118.406 91.0295C117.968 90.653 117.34 91.3169 117.784 91.7" fill="white"/>
<path d="M119.647 68.1132C122.179 74.651 125.153 81.319 129.89 86.3309C130.294 86.7581 130.916 86.0885 130.512 85.6603C125.894 80.7749 122.963 74.2324 120.494 67.8603C120.28 67.3057 119.428 67.5499 119.648 68.1122" fill="white"/>
<path d="M129.979 68.8766C134.385 71.3346 138.031 75.1228 140.473 79.7787C140.54 79.8686 140.634 79.9297 140.739 79.9507C140.844 79.9717 140.953 79.9512 141.045 79.8931C141.137 79.8349 141.206 79.743 141.241 79.634C141.275 79.525 141.272 79.4064 141.232 79.2997C138.714 74.5025 134.959 70.5968 130.423 68.0566C129.923 67.7693 129.478 68.5912 129.978 68.8747" fill="white"/>
<path d="M111.094 52.7397C111.124 55.4553 111.646 59.106 113.176 61.3714C113.4 61.7479 113.7 62.0657 114.052 62.3019C114.405 62.5381 114.801 62.6867 115.214 62.737C115.626 62.7873 116.044 62.7379 116.436 62.5925C116.828 62.4471 117.186 62.2093 117.483 61.8964C117.868 61.451 117.749 55.7322 115.917 53.7962C115.335 53.0693 114.545 52.5715 113.672 52.3808C112.8 52.1901 111.893 52.3173 111.094 52.7425" fill="white"/>
<path d="M100.392 87.7161C100.098 92.0075 104.744 96.4647 105.082 95.981C108.079 91.679 105.532 87.5369 102.884 85.1211C102.157 84.4572 100.486 86.3089 100.392 87.7161Z" fill="white"/>
<path d="M22.0283 113.035C22.0283 113.035 36.3005 110.509 39.5244 92.3513C39.5244 92.3513 47.6952 79.7863 49.4545 76.9441C51.2139 74.102 50.8995 71.9515 49.9181 70.8786C49.133 70.0213 47.0122 69.3258 44.5237 70.5912C42.0351 71.8566 27.6804 82.3928 27.6804 82.3928L22.0283 113.035Z" fill="#12264B"/>
<path d="M28.821 81.0843C31.1402 79.5459 33.4985 78.0825 35.8958 76.6941C36.3932 76.4068 35.9509 75.5868 35.4518 75.8761C33.0538 77.2682 30.6955 78.7316 28.3769 80.2662C27.8965 80.5852 28.337 81.4052 28.821 81.0843Z" fill="white"/>
<path d="M47.4944 69.8297C43.1426 69.6113 39.8618 73.5848 39.9338 73.6614C43.4738 77.4787 47.8177 74.1289 50.3169 71.3796C50.482 71.1986 49.0531 69.9073 47.4944 69.8297Z" fill="white"/>
</g>
</svg>
