<svg width="839" height="659" viewBox="0 0 839 659" fill="none" xmlns="http://www.w3.org/2000/svg">
<g clip-path="url(#clip0_762_422)">
<path d="M254.114 253.877C249.631 248.067 243.294 242.692 242.893 235.522C242.525 228.947 247.428 222.419 245.36 216.128C243.77 211.291 238.525 208.373 233.4 206.827C223.587 203.911 213.086 204.315 203.527 207.978L204.045 207.612C198.211 205.533 191.391 207.679 186.801 211.653C182.21 215.627 179.482 221.135 177.365 226.655C175.248 232.174 173.608 237.896 170.666 243.071C167.725 248.246 163.221 252.952 157.279 254.741C159.268 258.709 165.487 260.07 169.134 257.336C170.065 256.579 170.903 255.713 171.628 254.757C174.061 251.799 176.493 248.841 178.926 245.883C181.429 250.335 177.69 256.479 180.766 260.6C182.352 262.725 185.25 263.532 187.941 264.111C208.973 268.599 230.791 267.79 251.432 261.756C253.091 261.267 254.922 260.594 255.61 259.092C256.405 257.359 255.293 255.404 254.114 253.877Z" fill="#2F2E41"/>
<path d="M313.75 276.549C313.618 277.127 313.533 277.713 313.493 278.304L267.524 304.824L256.35 298.392L244.438 313.986L263.112 327.295C264.621 328.371 266.438 328.928 268.29 328.882C270.142 328.837 271.929 328.193 273.384 327.045L320.786 289.649C322.926 290.441 325.255 290.563 327.466 289.998C329.676 289.434 331.662 288.21 333.159 286.489C334.657 284.768 335.595 282.632 335.849 280.366C336.103 278.099 335.661 275.808 334.582 273.799C333.502 271.789 331.837 270.156 329.806 269.116C327.776 268.076 325.477 267.679 323.215 267.978C320.954 268.276 318.837 269.256 317.146 270.788C315.455 272.319 314.271 274.328 313.75 276.549Z" fill="#FFB7B7"/>
<path d="M265.987 306.08L251.13 325.336C250.707 325.884 250.171 326.334 249.559 326.656C248.946 326.978 248.272 327.165 247.581 327.202C246.89 327.24 246.199 327.129 245.555 326.875C244.911 326.622 244.329 326.233 243.849 325.735L227.03 308.269C224.238 306.09 222.424 302.894 221.987 299.38C221.549 295.866 222.522 292.322 224.693 289.525C226.865 286.728 230.056 284.906 233.569 284.459C237.082 284.012 240.628 284.976 243.431 287.14L264.526 298.936C265.13 299.274 265.654 299.738 266.062 300.297C266.471 300.855 266.754 301.496 266.893 302.173C267.031 302.851 267.022 303.551 266.866 304.225C266.71 304.9 266.41 305.532 265.987 306.08Z" fill="#FFD100"/>
<path d="M245.54 641.589L258.659 641.588L264.9 590.984L245.537 590.985L245.54 641.589Z" fill="#FFB7B7"/>
<path d="M242.193 637.306L268.03 637.305H268.031C272.398 637.305 276.586 639.04 279.673 642.127C282.761 645.215 284.496 649.403 284.496 653.77V654.305L242.194 654.306L242.193 637.306Z" fill="#2F2E41"/>
<path d="M155.649 641.589L168.769 641.588L175.01 590.984L155.647 590.985L155.649 641.589Z" fill="#FFB7B7"/>
<path d="M152.303 637.306L178.14 637.305H178.141C182.508 637.305 186.695 639.04 189.783 642.128C192.871 645.215 194.606 649.403 194.606 653.77V654.305L152.303 654.306L152.303 637.306Z" fill="#2F2E41"/>
<path d="M237.661 246.723C239.027 234.276 230.044 223.077 217.597 221.711C205.149 220.345 193.951 229.328 192.584 241.775C191.218 254.223 200.201 265.421 212.649 266.787C225.096 268.154 236.294 259.171 237.661 246.723Z" fill="#FFB7B7"/>
<path d="M228.389 278.239L241.747 284.857C241.747 284.857 256.671 310.793 248.11 335.406C243.954 347.356 255.658 385.448 255.658 385.448C255.658 385.448 273.793 557.991 273.85 611.244C251.321 614.708 229.918 618.988 228.848 608.287C227.778 597.586 216.064 471.058 216.064 471.058C216.064 471.058 199.955 611.498 187.113 613.638C174.272 615.778 148.589 612.568 148.589 612.568C148.589 612.568 168.978 406.851 182.89 394.009L185.03 383.308L184.973 287.25L201.001 279.602L228.389 278.239Z" fill="#2F2E41"/>
<path d="M180.605 424.065C182.083 423.265 183.368 422.151 184.369 420.801C185.37 419.451 186.063 417.898 186.398 416.251C186.734 414.604 186.705 412.904 186.312 411.27C185.92 409.636 185.174 408.108 184.127 406.793L199.662 303.246L179.366 302.271L167.256 405.39C165.164 407.295 163.844 409.902 163.545 412.715C163.246 415.529 163.99 418.355 165.636 420.657C167.281 422.959 169.714 424.577 172.473 425.205C175.232 425.834 178.125 425.428 180.605 424.065Z" fill="#FFB7B7"/>
<path d="M199.221 329.191L174.948 327.658C174.257 327.615 173.584 327.423 172.974 327.096C172.364 326.769 171.832 326.314 171.414 325.762C170.996 325.211 170.702 324.576 170.551 323.901C170.4 323.225 170.397 322.525 170.541 321.848L175.599 298.134C175.842 294.602 177.475 291.309 180.142 288.98C182.808 286.65 186.29 285.472 189.823 285.706C193.356 285.939 196.653 287.564 198.99 290.225C201.326 292.885 202.513 296.364 202.288 299.898L204.323 323.981C204.381 324.671 204.289 325.365 204.055 326.016C203.821 326.667 203.449 327.26 202.964 327.754C202.48 328.249 201.895 328.633 201.249 328.881C200.603 329.129 199.911 329.235 199.221 329.191Z" fill="#FFD100"/>
<path d="M238.886 229.51C238.003 225.502 235.133 222.181 231.827 219.749C226.377 215.74 219.694 213.77 212.94 214.18C206.187 214.591 199.792 217.357 194.868 221.997C192.117 224.427 190.133 227.606 189.16 231.146C188.696 232.915 188.671 234.77 189.088 236.551C189.505 238.332 190.35 239.984 191.552 241.363L192.005 241.647C191.594 239.905 192.947 238.164 194.564 237.395C196.245 236.778 198 236.385 199.784 236.225C202.483 235.715 205.041 234.631 207.286 233.048C209.53 231.464 211.408 229.417 212.794 227.045C213.82 229.964 215.459 232.63 217.602 234.863C219.745 237.096 222.34 238.844 225.215 239.99C228.212 241.162 236.442 242.773 239.295 241.285C242.935 239.388 239.77 233.518 238.886 229.51Z" fill="#2F2E41"/>
<path d="M72.054 610.33C75.9772 611.709 80.1894 612.054 84.2848 611.333C88.3802 610.612 92.2209 608.848 95.4367 606.211C103.626 599.337 106.195 588.015 108.283 577.529L114.463 546.513L101.525 555.421C92.2208 561.827 82.7072 568.44 76.2653 577.719C69.8235 586.998 67.0131 599.666 72.1874 609.707" fill="#12264B"/>
<path d="M74.0518 650.04C72.4234 638.177 70.748 626.16 71.8929 614.169C72.9076 603.519 76.1567 593.12 82.7713 584.589C86.2823 580.071 90.5545 576.199 95.3959 573.149C96.6581 572.353 97.82 574.353 96.5632 575.146C88.1861 580.44 81.7065 588.258 78.0588 597.472C74.0302 607.718 73.3833 618.887 74.0773 629.772C74.4967 636.354 75.388 642.893 76.2831 649.424C76.3538 649.72 76.3097 650.031 76.1597 650.295C76.0097 650.559 75.765 650.756 75.4751 650.847C75.1794 650.927 74.8642 650.886 74.5979 650.735C74.3316 650.584 74.1356 650.334 74.0526 650.039L74.0518 650.04Z" fill="#195F8C"/>
<path d="M85.7729 631.004C87.4553 633.562 89.768 635.643 92.4883 637.048C95.2087 638.452 98.2449 639.132 101.304 639.023C109.169 638.649 115.722 633.163 121.621 627.952L139.073 612.544L127.524 611.991C119.217 611.593 110.697 611.22 102.785 613.784C94.8741 616.348 87.5779 622.51 86.1315 630.7" fill="#12264B"/>
<path d="M69.449 656.86C77.2887 642.989 86.3814 627.572 102.63 622.645C107.147 621.279 111.884 620.79 116.585 621.204C118.067 621.332 117.697 623.615 116.218 623.488C108.338 622.834 100.473 624.915 93.9466 629.38C87.6667 633.655 82.7769 639.598 78.6388 645.899C76.1037 649.76 73.833 653.784 71.5624 657.802C70.8368 659.087 68.715 658.159 69.449 656.86Z" fill="#195F8C"/>
<path d="M599.211 400.413C584.499 380.726 557.574 375.974 544.195 385.972C530.815 395.97 527.742 423.138 542.453 442.825C556.07 461.048 580.741 466.018 594.329 459.191C594.285 459.404 594.283 459.623 594.321 459.838L595.087 463.625C595.146 463.914 595.277 464.183 595.469 464.407C595.66 464.63 595.906 464.801 596.182 464.903C596.459 465.006 596.756 465.035 597.047 464.99C597.338 464.945 597.613 464.826 597.845 464.644L604.333 459.576C604.565 459.395 604.747 459.157 604.861 458.886C604.976 458.614 605.019 458.318 604.987 458.025C604.954 457.732 604.848 457.453 604.677 457.213C604.506 456.972 604.277 456.78 604.011 456.653L600.521 454.994C600.399 454.939 600.27 454.898 600.137 454.873C610.612 443.8 612.857 418.675 599.211 400.413Z" fill="#12264B"/>
<path d="M567.032 392.98C574.228 394.123 580.711 397.985 585.142 403.77C589.573 409.554 591.614 416.819 590.844 424.064C590.686 425.724 593.279 425.713 593.436 424.064C594.178 416.255 591.94 408.453 587.171 402.225C582.401 395.996 575.454 391.801 567.721 390.48C566.089 390.203 565.388 392.7 567.032 392.98Z" fill="white"/>
<path d="M623.19 60.105C636.051 39.1627 630.522 12.3865 616.289 3.64555C602.057 -5.09541 575.675 2.08266 562.813 23.025C550.908 42.4098 555.402 67.1718 566.765 77.278C566.551 77.3159 566.345 77.3945 566.161 77.5095L562.924 79.6203C562.677 79.7812 562.476 80.0025 562.339 80.2632C562.201 80.5239 562.133 80.8153 562.14 81.1098C562.147 81.4043 562.23 81.6921 562.379 81.9458C562.529 82.1995 562.741 82.4108 562.995 82.5595L570.101 86.7163C570.356 86.8651 570.644 86.9464 570.938 86.9525C571.233 86.9586 571.524 86.8893 571.784 86.7513C572.044 86.6132 572.265 86.4109 572.425 86.1636C572.585 85.9162 572.679 85.6321 572.699 85.3382L572.952 81.4822C572.958 81.3477 572.948 81.2129 572.922 81.0808C587.081 86.7245 611.259 79.5319 623.19 60.105Z" fill="#12264B"/>
<path d="M618.212 27.456C619.808 34.5656 618.613 42.0165 614.874 48.2707C611.135 54.5248 605.138 59.1048 598.12 61.0653C596.519 61.5314 597.487 63.9373 599.078 63.4743C606.609 61.2792 613.032 56.3179 617.059 49.5854C621.086 42.8529 622.418 34.847 620.79 27.1731C620.445 25.5544 617.865 25.8252 618.212 27.456Z" fill="white"/>
<path d="M395.257 159.471C394.181 134.918 374.603 115.834 357.916 116.565C341.23 117.295 323.395 138.019 324.471 162.572C325.466 185.299 343.058 203.295 358.132 205.302C357.976 205.454 357.85 205.634 357.762 205.832L356.263 209.394C356.148 209.665 356.105 209.962 356.138 210.254C356.17 210.547 356.277 210.827 356.448 211.067C356.619 211.307 356.848 211.499 357.114 211.625C357.38 211.752 357.674 211.808 357.968 211.789L366.183 211.252C366.477 211.233 366.761 211.139 367.009 210.979C367.256 210.819 367.459 210.599 367.597 210.339C367.735 210.078 367.804 209.787 367.798 209.493C367.793 209.198 367.711 208.91 367.563 208.656L365.613 205.319C365.542 205.205 365.459 205.099 365.363 205.004C380.254 201.748 396.254 182.247 395.257 159.471Z" fill="#FFD100"/>
<path d="M372.846 135.213C378.15 140.209 381.333 147.05 381.739 154.325C382.145 161.601 379.742 168.754 375.027 174.309C373.961 175.592 376.111 177.043 377.169 175.768C382.179 169.731 384.721 162.024 384.286 154.191C383.85 146.358 380.47 138.979 374.822 133.535C373.63 132.387 371.644 134.056 372.846 135.213Z" fill="white"/>
<path d="M471.767 322.353C465.335 321.948 459.091 320.024 453.546 316.74C448.001 313.455 443.313 308.903 439.867 303.457C438.901 301.914 437.641 300.217 438.309 298.317C438.542 297.588 439.015 296.96 439.651 296.535C440.287 296.11 441.049 295.914 441.811 295.978C443.782 296.218 445.054 298.146 445.297 299.993C445.573 302.089 444.094 303.735 442.269 304.513C437.808 306.416 433.307 303.476 429.673 301.129C421.393 295.781 412.286 290.944 402.253 290.335C392.971 289.771 383.017 293.411 377.853 301.461C376.95 302.869 379.193 304.17 380.092 302.769C385.212 294.786 395.564 291.918 404.565 293.152C409.928 293.999 415.108 295.757 419.878 298.351C422.352 299.635 424.751 301.058 427.102 302.554C429.339 304.115 431.71 305.475 434.187 306.616C438.319 308.313 443.788 308.181 446.674 304.273C449.367 300.628 447.286 294.559 442.783 293.534C441.795 293.339 440.774 293.393 439.812 293.689C438.85 293.986 437.977 294.517 437.27 295.235C436.564 295.952 436.046 296.834 435.764 297.8C435.483 298.767 435.445 299.788 435.655 300.773C436.104 302.92 437.721 305.02 438.972 306.775C442.731 312.064 447.629 316.442 453.305 319.586C458.981 322.731 465.29 324.562 471.767 324.945C473.435 325.028 473.43 322.435 471.767 322.353Z" fill="#12264B"/>
<path d="M720.717 143.756C727.814 140.454 736.528 139.372 743.749 142.44C750.971 145.508 755.894 153.371 753.559 160.331C752.5 163.486 750.089 166.589 751.028 169.776C751.751 172.228 754.274 173.848 756.751 174.999C759.228 176.151 761.938 177.119 763.729 179.061C765.521 181.003 765.894 184.346 763.656 185.852C762.919 186.348 761.997 186.584 761.283 187.107C760.673 187.602 760.234 188.275 760.025 189.031C759.816 189.788 759.849 190.591 760.118 191.329C760.714 192.813 761.699 194.108 762.969 195.079C765.51 197.27 768.867 199.778 768.078 202.888C767.786 203.719 767.297 204.468 766.653 205.07C766.01 205.672 765.23 206.11 764.381 206.346C762.618 206.855 760.789 207.096 758.954 207.062L683.988 209.424C681.514 209.61 679.025 209.471 676.587 209.01C675.401 208.794 674.273 208.336 673.273 207.664C672.273 206.992 671.422 206.121 670.774 205.105C669.338 202.448 670.281 199.175 672.053 196.694C673.826 194.212 676.335 192.255 678.409 189.977C680.482 187.698 682.178 184.854 681.813 181.909C681.52 179.552 679.965 177.514 678.849 175.372C677.733 173.231 677.085 170.554 678.531 168.584C680.567 165.807 685.458 166.058 687.773 163.471C689.521 161.518 689.184 158.707 689.357 156.189C689.775 150.133 693.969 144.413 699.938 141.757C702.973 140.454 706.275 139.891 709.57 140.116C712.866 140.34 716.06 141.345 718.891 143.048L720.717 143.756Z" fill="#2F2E41"/>
<path d="M812.013 443.477V455.737L764.725 461.57L764.726 443.475L812.013 443.477Z" fill="#9E616A"/>
<path d="M823.897 440.351L823.896 479.882H823.396C819.315 479.881 815.402 478.26 812.516 475.375C809.631 472.489 808.01 468.576 808.01 464.495V464.494L808.011 440.35L823.897 440.351Z" fill="#2F2E41"/>
<path d="M753.556 464.332L750.546 476.216L703.273 470.262L707.716 452.722L753.556 464.332Z" fill="#9E616A"/>
<path d="M765.844 464.218L756.139 502.539L755.654 502.416C751.698 501.414 748.303 498.882 746.214 495.377C744.125 491.871 743.514 487.679 744.516 483.724L750.443 460.318L765.844 464.218Z" fill="#2F2E41"/>
<path d="M741.483 326.846L744.036 329.506C744.036 329.506 760.698 342.571 748.371 376.986L728.206 435.076L795.794 437.711L794.346 464.256C794.346 464.256 696.329 469.708 697.186 453.555C698.043 437.401 701.66 377.59 701.66 377.59L681.296 361.236L686.206 333.576L741.483 326.846Z" fill="#2F2E41"/>
<path d="M689.126 353.208L681.296 361.236L655.044 433.401C655.044 433.401 651.044 451.401 660.044 455.401C669.044 459.401 726.953 481.777 726.953 481.777L732.866 460.494L688.246 433.712L709.044 406.401L712.173 363.356L689.126 353.208Z" fill="#2F2E41"/>
<path d="M689.544 225.901L756.179 212.577L757.627 249.136L740.366 285.926L744.036 329.506L684.316 339.94L686.186 282.636C686.186 282.636 670.148 260.011 679.596 237.206L689.544 225.901Z" fill="#FFD100"/>
<path d="M838.129 139.175C838.463 140.71 838.457 142.299 838.11 143.831C837.763 145.363 837.085 146.8 836.123 148.041C835.161 149.282 833.938 150.298 832.541 151.015C831.144 151.733 829.607 152.135 828.037 152.195L764.138 226.292L749.281 208.262L816.764 141.096C816.839 138.453 817.882 135.93 819.693 134.004C821.505 132.078 823.96 130.883 826.594 130.646C829.227 130.409 831.856 131.147 833.982 132.719C836.108 134.291 837.584 136.588 838.129 139.175Z" fill="#9E616A"/>
<path d="M778.05 218.207C778.066 218.899 777.931 219.586 777.656 220.221C777.382 220.857 776.973 221.425 776.459 221.888L758.491 238.063C756.235 240.793 752.989 242.517 749.465 242.858C745.94 243.198 742.424 242.127 739.688 239.88C736.951 237.632 735.218 234.392 734.867 230.868C734.516 227.344 735.576 223.825 737.816 221.082L750.358 200.323C750.716 199.73 751.197 199.222 751.769 198.832C752.342 198.443 752.991 198.181 753.673 198.065C754.356 197.949 755.055 197.981 755.724 198.16C756.393 198.339 757.015 198.659 757.549 199.1L776.303 214.596C776.837 215.037 777.269 215.588 777.571 216.211C777.873 216.834 778.036 217.515 778.05 218.207Z" fill="#FFD100"/>
<path d="M585.058 313.309C584.958 311.742 585.203 310.172 585.776 308.709C586.349 307.247 587.235 305.928 588.372 304.845C589.51 303.762 590.871 302.942 592.36 302.442C593.849 301.942 595.429 301.775 596.99 301.952L671.284 238.281L683.267 258.336L606.47 314.616C605.999 317.218 604.59 319.556 602.51 321.189C600.43 322.821 597.823 323.634 595.184 323.473C592.544 323.312 590.056 322.188 588.19 320.315C586.324 318.442 585.209 315.949 585.058 313.309Z" fill="#9E616A"/>
<path d="M656.316 244.187C656.405 243.501 656.641 242.842 657.008 242.255C657.375 241.668 657.864 241.167 658.442 240.786L678.634 227.491C681.273 225.13 684.741 223.912 688.277 224.104C691.813 224.296 695.129 225.882 697.498 228.515C699.866 231.148 701.094 234.612 700.912 238.149C700.73 241.686 699.153 245.006 696.526 247.382L681.011 266.024C680.569 266.556 680.016 266.987 679.392 267.286C678.768 267.585 678.087 267.747 677.395 267.759C676.703 267.771 676.016 267.634 675.382 267.357C674.747 267.08 674.18 266.67 673.719 266.154L657.502 248.019C657.04 247.504 656.695 246.894 656.49 246.233C656.286 245.572 656.226 244.874 656.316 244.187Z" fill="#FFD100"/>
<path d="M717.943 208.843C731.508 208.843 742.504 197.847 742.504 184.282C742.504 170.717 731.508 159.721 717.943 159.721C704.379 159.721 693.382 170.717 693.382 184.282C693.382 197.847 704.379 208.843 717.943 208.843Z" fill="#9E616A"/>
<path d="M743.07 180.79C735.314 180.167 728.874 172.419 729.68 164.679C729.771 167.869 728.686 170.981 726.632 173.424C724.578 175.866 721.698 177.468 718.539 177.925C714.981 178.317 711.081 177.241 707.984 179.035C704.554 181.023 703.456 185.851 699.883 187.568C696.43 189.227 692.045 186.965 690.339 183.535C688.634 180.105 689.052 175.985 690.183 172.325C691.795 167.106 694.73 162.392 698.704 158.643C702.677 154.895 707.553 152.238 712.857 150.932C718.161 149.626 723.713 149.714 728.973 151.19C734.233 152.665 739.021 155.476 742.872 159.35C746.134 162.63 748.723 166.811 749.143 171.418C749.563 176.025 747.426 181.023 743.289 183.093L743.07 180.79Z" fill="#2F2E41"/>
<path d="M382.5 655.901H1.5C1.23478 655.901 0.980444 655.796 0.792908 655.608C0.605371 655.421 0.5 655.166 0.5 654.901C0.5 654.636 0.605371 654.382 0.792908 654.194C0.980444 654.006 1.23478 653.901 1.5 653.901H382.5C382.765 653.901 383.02 654.006 383.207 654.194C383.395 654.382 383.5 654.636 383.5 654.901C383.5 655.166 383.395 655.421 383.207 655.608C383.02 655.796 382.765 655.901 382.5 655.901Z" fill="#12264B"/>
</g>
<defs>
<clipPath id="clip0_762_422">
<rect width="837.865" height="658.418" fill="white" transform="translate(0.5)"/>
</clipPath>
</defs>
</svg>
