<svg width="620" height="620" viewBox="0 0 620 620" fill="none" xmlns="http://www.w3.org/2000/svg">
<path d="M304.705 191.592C353.735 167.735 392.621 114.353 455.44 124.545C502.56 132.209 527.781 174.976 535.383 221.613C555.371 344.05 403.732 428.556 301.494 437.831C195.585 447.503 47.1202 392.286 63.5502 267.269C70.3206 215.76 110.459 190.65 163.792 184.884C209.027 179.986 266.241 210.316 304.705 191.592Z" fill="#FFD100"/>
<path opacity="0.9" d="M304.705 191.592C353.735 167.735 392.621 114.353 455.44 124.545C502.56 132.209 527.781 174.976 535.383 221.613C555.371 344.05 403.732 428.556 301.494 437.831C195.585 447.503 47.1202 392.286 63.5502 267.269C70.3206 215.76 110.459 190.65 163.792 184.884C209.027 179.986 266.241 210.316 304.705 191.592Z" fill="white"/>
<path d="M310 530.174C442.782 530.174 550.423 521.353 550.423 510.471C550.423 499.589 442.782 490.767 310 490.767C177.217 490.767 69.5762 499.589 69.5762 510.471C69.5762 521.353 177.217 530.174 310 530.174Z" fill="#F5F5F5"/>
<path d="M369.123 432.661H348.043C337.069 432.661 328.203 448.57 328.203 468.199C328.203 487.828 337.094 503.725 348.043 503.725H369.123C380.097 503.725 388.963 487.816 388.963 468.199C388.963 448.582 380.097 432.661 369.123 432.661Z" fill="#263238"/>
<mask id="mask0_482_147" style="mask-type:luminance" maskUnits="userSpaceOnUse" x="328" y="432" width="61" height="72">
<path d="M369.123 432.661H348.043C337.069 432.661 328.203 448.57 328.203 468.199C328.203 487.828 337.094 503.725 348.043 503.725H369.123C380.097 503.725 388.963 487.816 388.963 468.199C388.963 448.582 380.097 432.661 369.123 432.661Z" fill="white"/>
</mask>
<g mask="url(#mask0_482_147)">
<path opacity="0.05" d="M393.923 432.661H372.843C361.869 432.661 353.003 448.57 353.003 468.199C353.003 487.828 361.894 503.725 372.843 503.725H393.923C404.897 503.725 413.763 487.816 413.763 468.199C413.763 448.582 404.897 432.661 393.923 432.661Z" fill="white"/>
</g>
<path d="M539.884 440.274L170.748 440.014V204.228H539.884V440.274Z" fill="#FFD100"/>
<path opacity="0.3" d="M539.884 204.228H289.701V440.262H539.884V204.228Z" fill="#263238"/>
<path opacity="0.2" d="M289.701 204.228H170.748V444.924H289.701V204.228Z" fill="white"/>
<path opacity="0.1" d="M171.641 215.19H539.883" stroke="white" stroke-width="2" stroke-linecap="round" stroke-linejoin="round"/>
<path opacity="0.1" d="M171.641 225.395H539.883" stroke="white" stroke-width="2" stroke-linecap="round" stroke-linejoin="round"/>
<path opacity="0.1" d="M171.641 235.588H539.883" stroke="white" stroke-width="2" stroke-linecap="round" stroke-linejoin="round"/>
<path opacity="0.1" d="M171.641 245.781H539.883" stroke="white" stroke-width="2" stroke-linecap="round" stroke-linejoin="round"/>
<path opacity="0.1" d="M171.641 255.986H539.883" stroke="white" stroke-width="2" stroke-linecap="round" stroke-linejoin="round"/>
<path opacity="0.1" d="M171.641 266.178H539.883" stroke="white" stroke-width="2" stroke-linecap="round" stroke-linejoin="round"/>
<path opacity="0.1" d="M171.641 276.371H539.883" stroke="white" stroke-width="2" stroke-linecap="round" stroke-linejoin="round"/>
<path opacity="0.1" d="M171.641 286.564H539.883" stroke="white" stroke-width="2" stroke-linecap="round" stroke-linejoin="round"/>
<path opacity="0.1" d="M171.641 296.769H539.883" stroke="white" stroke-width="2" stroke-linecap="round" stroke-linejoin="round"/>
<path opacity="0.1" d="M171.641 306.962H539.883" stroke="white" stroke-width="2" stroke-linecap="round" stroke-linejoin="round"/>
<path opacity="0.1" d="M171.641 317.155H539.883" stroke="white" stroke-width="2" stroke-linecap="round" stroke-linejoin="round"/>
<path opacity="0.1" d="M171.641 327.36H539.883" stroke="white" stroke-width="2" stroke-linecap="round" stroke-linejoin="round"/>
<path opacity="0.1" d="M171.641 337.553H539.883" stroke="white" stroke-width="2" stroke-linecap="round" stroke-linejoin="round"/>
<path opacity="0.1" d="M171.641 347.746H539.883" stroke="white" stroke-width="2" stroke-linecap="round" stroke-linejoin="round"/>
<path opacity="0.1" d="M171.641 357.938H539.883" stroke="white" stroke-width="2" stroke-linecap="round" stroke-linejoin="round"/>
<path opacity="0.1" d="M171.641 368.144H539.883" stroke="white" stroke-width="2" stroke-linecap="round" stroke-linejoin="round"/>
<path opacity="0.1" d="M171.641 378.336H539.883" stroke="white" stroke-width="2" stroke-linecap="round" stroke-linejoin="round"/>
<path opacity="0.1" d="M171.641 388.529H539.883" stroke="white" stroke-width="2" stroke-linecap="round" stroke-linejoin="round"/>
<path opacity="0.1" d="M171.641 398.734H539.883" stroke="white" stroke-width="2" stroke-linecap="round" stroke-linejoin="round"/>
<path opacity="0.1" d="M171.641 408.927H539.883" stroke="white" stroke-width="2" stroke-linecap="round" stroke-linejoin="round"/>
<path opacity="0.1" d="M171.641 419.12H539.883" stroke="white" stroke-width="2" stroke-linecap="round" stroke-linejoin="round"/>
<path opacity="0.1" d="M171.641 429.325H539.883" stroke="white" stroke-width="2" stroke-linecap="round" stroke-linejoin="round"/>
<path d="M103.007 437.298H83.5017C73.3337 437.298 65.1001 452.03 65.1001 470.208C65.1001 488.386 73.3337 503.105 83.5017 503.105H103.007C113.175 503.105 121.409 488.374 121.409 470.208C121.409 452.042 113.175 437.298 103.007 437.298Z" fill="#263238"/>
<path opacity="0.05" d="M127.819 437.298H108.301C98.1335 437.298 89.8999 452.03 89.8999 470.208C89.8999 488.386 98.1335 503.105 108.301 503.105H127.819C137.975 503.105 146.221 488.374 146.221 470.208C146.221 452.042 137.975 437.298 127.819 437.298Z" fill="white"/>
<path d="M92.1569 373.029H82.9313C81.1209 373.091 79.6329 371.157 79.5957 368.702C79.571 368.446 79.571 368.188 79.5957 367.933L82.0757 340.07C82.3857 337.206 84.1589 335.11 86.2917 334.974H95.6041C97.4021 334.974 98.8901 336.871 98.9273 339.326C98.9273 339.574 98.9273 339.822 98.9273 340.07L96.4473 367.933C96.0753 370.76 94.2401 372.955 92.1569 373.029Z" fill="#263238"/>
<path d="M101.382 280.996L83.5884 376.96L277.314 452.848L275.962 263.723L233.356 262.483H116.647C109.628 262.421 103.441 269.961 101.382 280.996Z" fill="#FFD100"/>
<path d="M245.52 296.434C238.291 296.112 231.806 302.039 229.685 310.88L215.028 372.285H186.818L185.281 453.294H278.07" fill="#FFD100"/>
<path d="M104.16 367.127C101.32 367.127 99.0264 363.481 99.0264 358.993C99.0251 358.21 99.0998 357.429 99.2496 356.661L109.901 300.316C110.794 295.641 113.522 292.442 116.61 292.454H218.513C219.616 292.454 220.522 293.868 220.522 295.629C220.524 295.941 220.495 296.252 220.435 296.559C218.203 308.165 210.949 346.617 208.171 361.324C207.526 364.771 205.518 367.127 203.211 367.127H104.16Z" fill="#263238"/>
<path d="M197.929 392.1C197.927 393.088 197.857 394.074 197.718 395.052L197.185 398.685L196.875 400.83L194.593 416.504L190.873 441.986L189.844 449.066H45.6445V441.986L45.7437 416.504L45.8801 401.264V395.064C44.6401 386.88 48.5957 378.944 54.6221 377.295C55.3292 377.102 56.0592 377.006 56.7921 377.01H186.819C192.957 376.96 197.929 383.755 197.929 392.1Z" fill="#FFD100"/>
<path d="M271.225 300.08V360.481C271.225 364.139 269.353 367.115 267.034 367.127H231.793C229.474 367.127 227.602 364.151 227.602 360.481C227.601 359.882 227.651 359.285 227.751 358.695L238.613 296.943C239.134 293.979 240.87 291.983 242.804 292.095L267.183 293.434C269.44 293.57 271.225 296.509 271.225 300.08Z" fill="#263238"/>
<path opacity="0.1" d="M163.605 292.454H144.137L121.78 367.127H141.261L163.605 292.454Z" fill="white"/>
<path opacity="0.1" d="M178.759 292.454H169.459L147.114 367.127H156.401L178.759 292.454Z" fill="white"/>
<path d="M235.29 416.504V441.986H45.6689L45.7681 416.504H235.29Z" fill="black"/>
<path d="M208.878 416.504H191.344L159.811 435.029V441.986H235.29V416.504H208.878Z" fill="white"/>
<path d="M78.3553 435.029V441.986H45.6689L45.7681 416.504H46.8345L78.3553 435.029Z" fill="white"/>
<path opacity="0.3" d="M277.401 453.295L275.962 263.723L249.922 262.483C243.425 262.161 235.923 269.713 234.025 278.467L215.153 376.96H207.799C199.541 376.96 193.887 382.974 193.899 389.36L194.011 453.319H277.401" fill="#263238"/>
<path d="M197.445 399.578C197.442 399.813 197.39 400.045 197.292 400.258C197.194 400.472 197.052 400.663 196.875 400.818C196.572 401.099 196.172 401.254 195.759 401.252H45.8799V397.879H195.796C196.081 397.88 196.362 397.953 196.611 398.092C196.861 398.231 197.071 398.43 197.222 398.673C197.379 398.948 197.456 399.261 197.445 399.578Z" fill="white"/>
<path d="M72.317 397.891V401.264H45.8306L45.843 397.891H72.317Z" fill="#263238"/>
<path d="M197.445 399.578C197.442 399.813 197.39 400.045 197.292 400.258C197.194 400.472 197.052 400.663 196.875 400.818C196.571 401.099 196.172 401.254 195.759 401.252H159.402V397.879H195.759C196.044 397.88 196.325 397.953 196.574 398.092C196.823 398.231 197.034 398.43 197.185 398.673C197.354 398.944 197.445 399.258 197.445 399.578Z" fill="#263238"/>
<path d="M546.505 446.4V447.07C546.505 448.714 545.852 450.291 544.689 451.454C543.526 452.616 541.95 453.27 540.305 453.27H47.7771C46.1328 453.27 44.5558 452.616 43.3931 451.454C42.2304 450.291 41.5771 448.714 41.5771 447.07V446.4C41.5771 444.756 42.2304 443.179 43.3931 442.016C44.5558 440.853 46.1328 440.2 47.7771 440.2H540.305C541.95 440.2 543.526 440.853 544.689 442.016C545.852 443.179 546.505 444.756 546.505 446.4Z" fill="#263238"/>
<path d="M156.996 445.296H83.5884V448.88H156.996V445.296Z" fill="black"/>
<path d="M64.0583 447.082C64.0583 447.486 63.9386 447.881 63.7143 448.217C63.4901 448.554 63.1713 448.816 62.7981 448.971C62.425 449.126 62.0142 449.167 61.6177 449.089C61.2212 449.012 60.8566 448.818 60.5699 448.533C60.2833 448.248 60.0875 447.885 60.0071 447.489C59.9268 447.093 59.9656 446.682 60.1185 446.308C60.2715 445.933 60.5318 445.613 60.8666 445.387C61.2014 445.16 61.5958 445.038 61.9999 445.036C62.2696 445.034 62.537 445.086 62.7867 445.188C63.0364 445.29 63.2634 445.441 63.4547 445.631C63.646 445.821 63.7978 446.047 63.9014 446.296C64.005 446.545 64.0583 446.812 64.0583 447.082Z" fill="white"/>
<path d="M174.53 447.082C174.53 447.487 174.41 447.882 174.185 448.219C173.96 448.555 173.641 448.818 173.267 448.972C172.893 449.127 172.482 449.168 172.085 449.089C171.688 449.01 171.323 448.815 171.037 448.529C170.751 448.243 170.556 447.878 170.477 447.481C170.398 447.084 170.439 446.673 170.594 446.299C170.749 445.925 171.011 445.606 171.347 445.381C171.684 445.156 172.079 445.036 172.484 445.036C172.753 445.036 173.019 445.089 173.267 445.192C173.515 445.295 173.741 445.445 173.931 445.635C174.121 445.825 174.271 446.051 174.374 446.299C174.477 446.547 174.53 446.813 174.53 447.082Z" fill="white"/>
<path d="M233.852 467.393C233.852 447.665 242.792 431.669 253.828 431.669H232.636C221.613 431.669 212.672 447.665 212.672 467.393C212.672 487.122 221.613 503.105 232.636 503.105H253.828C242.792 503.143 233.852 487.159 233.852 467.393Z" fill="black"/>
<path opacity="0.7" d="M233.852 467.393C233.852 447.665 242.792 431.669 253.828 431.669H232.636C221.613 431.669 212.672 447.665 212.672 467.393C212.672 487.122 221.613 503.105 232.636 503.105H253.828C242.792 503.143 233.852 487.159 233.852 467.393Z" fill="#263238"/>
<path d="M253.828 503.155C264.861 503.155 273.804 487.16 273.804 467.43C273.804 447.7 264.861 431.706 253.828 431.706C242.795 431.706 233.852 447.7 233.852 467.43C233.852 487.16 242.795 503.155 253.828 503.155Z" fill="#263238"/>
<path d="M255.427 495.281C263.248 495.281 269.588 482.812 269.588 467.43C269.588 452.049 263.248 439.58 255.427 439.58C247.607 439.58 241.267 452.049 241.267 467.43C241.267 482.812 247.607 495.281 255.427 495.281Z" fill="white"/>
<path d="M254.138 491.536C261.623 491.536 267.691 480.743 267.691 467.43C267.691 454.117 261.623 443.325 254.138 443.325C246.653 443.325 240.585 454.117 240.585 467.43C240.585 480.743 246.653 491.536 254.138 491.536Z" fill="#263238"/>
<path d="M251.162 485.026C256.627 485.026 261.057 477.148 261.057 467.43C261.057 457.713 256.627 449.835 251.162 449.835C245.697 449.835 241.267 457.713 241.267 467.43C241.267 477.148 245.697 485.026 251.162 485.026Z" fill="black"/>
<path opacity="0.5" d="M546.505 446.4V447.07C546.505 448.714 545.852 450.291 544.689 451.454C543.527 452.616 541.95 453.27 540.305 453.27H289.701V440.2H540.305C541.95 440.2 543.527 440.853 544.689 442.016C545.852 443.179 546.505 444.756 546.505 446.4Z" fill="black"/>
<path d="M468.621 467.393C468.621 447.665 477.561 431.669 488.585 431.669H467.406C456.37 431.669 447.429 447.665 447.429 467.393C447.429 487.122 456.37 503.105 467.406 503.105H488.56C477.561 503.143 468.621 487.159 468.621 467.393Z" fill="black"/>
<path opacity="0.7" d="M468.621 467.393C468.621 447.665 477.561 431.669 488.585 431.669H467.406C456.37 431.669 447.429 447.665 447.429 467.393C447.429 487.122 456.37 503.105 467.406 503.105H488.56C477.561 503.143 468.621 487.159 468.621 467.393Z" fill="#263238"/>
<path d="M488.585 503.155C499.617 503.155 508.561 487.16 508.561 467.43C508.561 447.7 499.617 431.706 488.585 431.706C477.552 431.706 468.608 447.7 468.608 467.43C468.608 487.16 477.552 503.155 488.585 503.155Z" fill="#263238"/>
<path d="M490.197 495.281C498.018 495.281 504.358 482.812 504.358 467.43C504.358 452.049 498.018 439.58 490.197 439.58C482.376 439.58 476.036 452.049 476.036 467.43C476.036 482.812 482.376 495.281 490.197 495.281Z" fill="white"/>
<path d="M488.895 491.536C496.38 491.536 502.448 480.743 502.448 467.43C502.448 454.117 496.38 443.325 488.895 443.325C481.41 443.325 475.342 454.117 475.342 467.43C475.342 480.743 481.41 491.536 488.895 491.536Z" fill="#263238"/>
<path d="M485.919 485.026C491.384 485.026 495.814 477.148 495.814 467.43C495.814 457.713 491.384 449.835 485.919 449.835C480.454 449.835 476.023 457.713 476.023 467.43C476.023 477.148 480.454 485.026 485.919 485.026Z" fill="black"/>
<path d="M407.786 292.64C407.538 297.414 407.104 302.027 406.398 306.726C405.787 311.581 404.724 316.367 403.223 321.024C402.75 322.38 402.156 323.691 401.45 324.942C400.958 325.786 400.358 326.561 399.664 327.248L399.317 327.571L399.119 327.72L399.02 327.806L398.598 328.092L397.767 328.674C395.661 330.026 393.446 331.2 391.146 332.184C386.779 334.103 382.241 335.606 377.592 336.672L375.98 332.258C379.924 330.076 383.966 327.844 387.649 325.525C389.449 324.42 391.18 323.207 392.832 321.892L393.378 321.433L393.65 321.197C393.65 321.197 393.762 321.011 393.898 320.714C394.261 319.912 394.559 319.082 394.791 318.234C395.352 316.194 395.795 314.124 396.118 312.034C396.502 309.876 396.812 307.681 397.073 305.449C397.581 301.022 398.015 296.484 398.313 292.07L407.786 292.64Z" fill="#CE7A63"/>
<path d="M378.919 332.32L371.306 329.964L372.732 339.177C372.732 339.177 377.692 338.557 380.172 335.78L378.919 332.32Z" fill="#CE7A63"/>
<path d="M362.08 335.891L362.502 337.131C362.74 337.816 363.194 338.405 363.795 338.81C364.397 339.215 365.114 339.413 365.838 339.376L369.719 339.202L368.28 329.964L364.015 331.638C363.206 331.96 362.552 332.583 362.192 333.375C361.831 334.168 361.791 335.07 362.08 335.891Z" fill="#CE7A63"/>
<path d="M416.789 283.7C416.789 286.577 415.4 292.256 414.21 296.521C413.329 299.584 412.598 301.915 412.598 301.915L410.849 301.481L396.441 297.836C396.217 290.396 396.503 282.299 403.881 277.438C408.493 274.387 416.752 278.579 416.789 283.7Z" fill="#263238"/>
<path opacity="0.3" d="M416.777 284.196C415.834 283.204 413.701 283.03 409.051 284.506C402.393 286.614 400.533 293.905 400.446 298.852L410.849 301.481L411.742 301.717L412.598 301.915C412.598 301.915 412.957 300.75 413.478 298.976C413.689 298.257 413.949 297.414 414.197 296.496C415.438 292.485 416.302 288.367 416.777 284.196Z" fill="black"/>
<path d="M387.215 515.183L378.423 512.108L383.954 493.061L392.733 496.149L387.215 515.183Z" fill="#CE7A63"/>
<path d="M504.68 492.615L497.525 497.947L482.881 483.104L490.036 477.772L504.68 492.615Z" fill="#CE7A63"/>
<path d="M494.599 495.777L502.324 489.391C502.455 489.277 502.622 489.215 502.795 489.215C502.968 489.215 503.136 489.277 503.266 489.391L509.194 494.772C509.327 494.905 509.432 495.062 509.504 495.236C509.577 495.409 509.614 495.595 509.614 495.783C509.614 495.971 509.577 496.157 509.504 496.33C509.432 496.504 509.327 496.661 509.194 496.794L509.07 496.905C506.342 499.088 504.903 500.005 501.506 502.808C499.423 504.531 495.045 508.66 492.156 511.041C489.267 513.422 486.762 510.706 487.754 509.454C492.181 503.849 493.21 500.154 493.731 497.128C493.856 496.591 494.162 496.114 494.599 495.777Z" fill="#263238"/>
<path d="M377.828 509.355L387.599 513.434C387.774 513.511 387.918 513.641 388.012 513.807C388.106 513.972 388.144 514.163 388.12 514.352L387.016 522.97C386.973 523.315 386.795 523.629 386.52 523.843C386.246 524.057 385.898 524.153 385.553 524.111C385.425 524.097 385.299 524.064 385.181 524.012C381.722 522.61 380.097 521.916 375.807 520.118L362.638 514.6C359.067 513.1 359.836 509.181 361.398 509.466C368.627 510.781 373.29 510.347 376.142 509.268C376.415 509.17 376.704 509.128 376.994 509.143C377.283 509.158 377.567 509.23 377.828 509.355Z" fill="#263238"/>
<path opacity="0.2" d="M383.954 493.074L381.114 502.882L389.67 506.751L392.745 496.149L383.954 493.074Z" fill="black"/>
<path opacity="0.2" d="M490.048 477.772L482.881 483.104L490.432 490.755L497.587 485.423L490.048 477.772Z" fill="black"/>
<path d="M443.821 330.249L407.613 330.77C402.653 302.734 401.413 289.354 401.413 282.918C401.407 281.313 401.961 279.756 402.979 278.516C403.998 277.275 405.417 276.429 406.993 276.123C409.2 275.689 411.953 275.193 414.718 274.809C415.661 274.685 416.616 274.561 417.558 274.462C423.026 273.993 428.521 273.914 434 274.226C434.819 274.226 435.625 274.3 436.48 274.35C440.2 274.586 443.598 275.057 446.016 275.429C446.886 275.569 447.664 276.049 448.18 276.762C448.696 277.476 448.908 278.366 448.769 279.236C448.775 279.298 448.775 279.36 448.769 279.422C447.702 284.382 446.834 288.784 446.14 292.702C445.036 298.902 444.342 303.961 443.933 308.376C443.313 315.652 443.275 322.967 443.821 330.249Z" fill="#263238"/>
<path opacity="0.1" d="M443.92 308.413C442.098 302.944 442.197 291.598 444.156 287.928L446.152 292.727C445.024 298.964 444.33 303.998 443.92 308.413Z" fill="black"/>
<path d="M407.613 330.77C407.613 330.77 401.413 383.482 395.821 416.33C391.394 442.048 380.209 495.578 380.209 495.578L394.729 500.724C394.729 500.724 411.358 444.924 414.272 421.092C425.99 386.731 434.422 330.51 434.422 330.51L407.613 330.77Z" fill="#FFD100"/>
<path d="M377.853 499.174L394.655 505.089L396.899 499.695L378.671 492.726L377.853 499.174Z" fill="#263238"/>
<path opacity="0.1" d="M425.965 346.431L420.534 356.835C418.55 364.672 419.021 383.743 421.538 395.796C426.052 377.63 429.66 358.509 431.904 345.675L425.965 346.431Z" fill="black"/>
<path d="M415.475 330.77C415.475 330.77 421.96 389.769 434.075 422.53C440.151 438.96 485.225 487.667 485.225 487.667L495.393 479.533C495.393 479.533 466.811 430.392 454.311 417.533C449.215 389.013 455.626 346.258 443.784 330.262L415.475 330.77Z" fill="#FFD100"/>
<path d="M486.08 491.152L498.009 481.38L494.785 476.086L481.728 487.456L486.08 491.152Z" fill="#263238"/>
<path d="M444.391 328.129L446.065 331.34C446.189 331.588 445.904 331.861 445.483 331.861L407.489 332.407C407.154 332.407 406.894 332.246 406.857 332.047L406.497 328.811C406.497 328.588 406.757 328.389 407.105 328.389L443.784 327.856C443.9 327.849 444.015 327.87 444.121 327.918C444.227 327.965 444.32 328.038 444.391 328.129Z" fill="#263238"/>
<path d="M439.469 332.32H440.473C440.659 332.32 440.808 332.208 440.796 332.097L440.262 327.881C440.262 327.757 440.089 327.67 439.89 327.67H438.96C438.762 327.67 438.613 327.782 438.638 327.893L439.159 332.097C439.097 332.196 439.283 332.32 439.469 332.32Z" fill="#FFD100"/>
<path d="M410.217 332.717H411.209C411.408 332.717 411.544 332.605 411.532 332.481L411.023 328.278C411.023 328.154 410.825 328.054 410.626 328.054H409.634C409.436 328.054 409.287 328.166 409.3 328.29L409.82 332.494C409.845 332.618 410.019 332.717 410.217 332.717Z" fill="#FFD100"/>
<path d="M424.849 332.481H425.841C426.039 332.481 426.188 332.37 426.176 332.246L425.655 328.042C425.655 327.906 425.469 327.807 425.271 327.819H424.279C424.08 327.819 423.944 327.931 423.944 328.055L424.465 332.258C424.452 332.407 424.651 332.481 424.849 332.481Z" fill="#FFD100"/>
<path d="M359.154 293.657L412.895 286.279L420.335 339.041L367.561 346.282L359.154 293.657Z" fill="#FFD100"/>
<path opacity="0.8" d="M359.154 293.657L412.895 286.279L420.335 339.041L367.561 346.282L359.154 293.657Z" fill="white"/>
<path opacity="0.2" d="M413.633 283.731L399.282 285.76L406.98 340.192L421.33 338.163L413.633 283.731Z" fill="#FFD100"/>
<path d="M428.135 332.394L420.695 329.48L421.426 338.78C421.426 338.78 426.386 338.532 429.052 335.941L428.135 332.394Z" fill="#CE7A63"/>
<path d="M451.534 286.093C453.53 291.673 455.254 297.253 456.717 302.957C457.461 305.821 458.155 308.698 458.713 311.637C458.986 313.125 459.222 314.638 459.395 316.212C459.595 317.858 459.665 319.516 459.606 321.172C459.571 322.251 459.405 323.321 459.11 324.359C458.703 325.636 458.021 326.808 457.114 327.794C455.788 329.215 454.211 330.379 452.464 331.229C449.602 332.617 446.59 333.67 443.486 334.366C437.684 335.712 431.768 336.505 425.816 336.734L425.233 332.06C427.949 331.415 430.727 330.696 433.43 329.939C436.133 329.183 438.824 328.34 441.403 327.397C443.866 326.551 446.242 325.467 448.496 324.161C449.315 323.682 450.045 323.065 450.653 322.338C450.815 322.09 450.815 322.028 450.79 322.028C450.815 321.661 450.815 321.292 450.79 320.924C450.743 319.723 450.614 318.525 450.405 317.341C450.207 316.101 449.934 314.712 449.637 313.348C449.017 310.694 448.322 307.979 447.541 305.263C445.991 299.882 444.243 294.413 442.494 289.143L451.534 286.093Z" fill="#CE7A63"/>
<path d="M413.838 334.068L414.42 336.226C414.595 336.919 414.992 337.536 415.549 337.983C416.106 338.431 416.794 338.685 417.508 338.706L421.501 338.818L420.769 329.53L416.702 329.989C416.27 330.032 415.851 330.16 415.469 330.366C415.087 330.571 414.749 330.85 414.475 331.187C414.201 331.523 413.996 331.91 413.872 332.326C413.747 332.742 413.706 333.178 413.751 333.61C413.769 333.764 413.798 333.918 413.838 334.068Z" fill="#CE7A63"/>
<path d="M447.305 275.702C451.472 277.4 454.882 291.09 454.882 291.09L443.375 300.08C443.375 300.08 435.215 287.308 436.877 281.765C438.291 277.078 441.998 273.556 447.305 275.702Z" fill="#263238"/>
<path d="M491.784 499.646H491.635C491.427 499.631 491.226 499.565 491.051 499.452C490.875 499.339 490.731 499.184 490.631 499.001C490.557 498.895 490.513 498.772 490.502 498.643C490.491 498.515 490.514 498.386 490.569 498.269C491.077 497.277 494.289 496.881 494.636 496.843C494.677 496.836 494.72 496.841 494.758 496.859C494.796 496.877 494.827 496.906 494.847 496.943C494.871 496.977 494.883 497.018 494.883 497.06C494.883 497.102 494.871 497.143 494.847 497.178C494.177 498.083 492.875 499.571 491.784 499.646ZM494.202 497.327C492.962 497.513 491.214 497.922 490.966 498.468C490.936 498.514 490.92 498.568 490.92 498.623C490.92 498.678 490.936 498.732 490.966 498.778C491.024 498.905 491.117 499.014 491.232 499.092C491.348 499.171 491.483 499.217 491.623 499.224C492.243 499.224 493.235 498.555 494.227 497.327H494.202Z" fill="#263238"/>
<path d="M494.487 497.24C493.408 497.24 491.251 496.855 490.767 496C490.69 495.851 490.665 495.681 490.697 495.517C490.728 495.353 490.814 495.204 490.941 495.095C491.05 494.975 491.185 494.88 491.335 494.818C491.485 494.756 491.647 494.727 491.809 494.735C493.111 494.735 494.76 496.731 494.81 496.843C494.828 496.873 494.838 496.907 494.838 496.942C494.838 496.977 494.828 497.012 494.81 497.041C494.8 497.078 494.779 497.11 494.75 497.135C494.721 497.159 494.686 497.174 494.648 497.178L494.487 497.24ZM491.734 495.181C491.56 495.198 491.397 495.278 491.276 495.405C491.09 495.603 491.127 495.727 491.176 495.826C491.462 496.372 493.16 496.818 494.252 496.818C493.63 496.038 492.787 495.463 491.834 495.169L491.734 495.181Z" fill="#263238"/>
<path d="M372.831 509.156C372.142 508.932 371.54 508.498 371.107 507.916C371.009 507.745 370.95 507.554 370.932 507.357C370.915 507.16 370.941 506.962 371.008 506.776C371.042 506.668 371.103 506.572 371.186 506.496C371.269 506.42 371.37 506.367 371.479 506.342C372.62 506.131 375.311 509.02 375.832 509.603C375.856 509.639 375.869 509.683 375.869 509.727C375.869 509.771 375.856 509.814 375.832 509.851C375.811 509.89 375.778 509.921 375.737 509.939C375.697 509.957 375.652 509.961 375.609 509.95C374.658 509.78 373.728 509.514 372.831 509.156ZM371.975 506.825C371.848 506.764 371.707 506.738 371.566 506.751C371.566 506.751 371.455 506.751 371.405 506.9C371.355 507.029 371.336 507.167 371.349 507.305C371.362 507.443 371.406 507.576 371.479 507.693C371.864 508.363 373.191 508.995 375.075 509.404C374.191 508.39 373.153 507.519 372 506.825H371.975Z" fill="#263238"/>
<path d="M375.596 509.925H375.522C374.617 509.02 373.141 506.304 373.649 505.436C373.761 505.25 373.997 505.052 374.53 505.201C376.526 505.784 375.919 509.652 375.881 509.814C375.881 509.854 375.866 509.894 375.839 509.923C375.811 509.953 375.773 509.972 375.733 509.975C375.707 509.98 375.681 509.978 375.657 509.97C375.633 509.961 375.612 509.945 375.596 509.925ZM374.604 505.598H374.48C374.282 505.536 374.133 505.598 374.083 505.598C373.786 506.106 374.741 508.152 375.609 509.243C375.596 508.288 375.72 506.094 374.604 505.598Z" fill="#263238"/>
<path d="M413.019 237.125C413.019 237.125 408.059 245.421 411.779 249.054C415.499 252.687 416.591 239.804 416.591 239.804L413.019 237.125Z" fill="#263238"/>
<path d="M436.058 256.593C436.058 256.593 442.258 246.896 439.679 237.262C437.1 227.627 425.047 233.852 419.963 231.21C418.101 230.078 416.117 229.159 414.048 228.47C413.716 228.371 413.366 228.35 413.024 228.408C412.682 228.467 412.358 228.602 412.077 228.805C410.837 229.896 412.994 231.942 413.664 232.711C413.252 232.234 412.776 231.817 412.25 231.471C411.593 231.037 410.713 231 411.01 232.103C411.52 233.289 412.434 234.256 413.59 234.831C413.106 234.558 410.242 233.108 410.043 234.013C410.018 234.232 410.076 234.453 410.204 234.633C412.064 238.105 415.809 242.47 420.124 242.556C425.32 242.631 430.28 257.25 436.058 256.593Z" fill="#263238"/>
<path d="M438.253 257.027C437.931 260.301 433.07 260.338 433.07 260.338C432.274 262.212 430.952 263.814 429.263 264.951C429.114 266.928 429.18 268.915 429.462 270.878C430.28 273.966 431.322 275.032 432.624 275.726L431.582 276.756C429.588 277.906 427.336 278.533 425.035 278.578L423.671 277.785L421.885 278.07C416.925 276.446 418.165 273.11 418.165 273.11C419.07 270.845 419.118 268.328 418.302 266.03C413.54 264.542 411.593 260.4 410.924 253.431C410.254 246.462 414.172 239.791 414.172 239.791C419.554 244.987 430.218 241.651 430.218 241.651C429.759 251.422 434.322 255.031 434.322 255.031C435.823 253.692 438.563 253.766 438.253 257.027Z" fill="#CE7A63"/>
<path d="M420.943 257.92C422.223 257.562 423.329 256.751 424.056 255.638C424.114 255.551 424.137 255.443 424.118 255.339C424.1 255.235 424.042 255.143 423.956 255.08C423.914 255.049 423.866 255.027 423.815 255.014C423.764 255.001 423.711 254.999 423.659 255.007C423.607 255.015 423.557 255.034 423.513 255.061C423.468 255.088 423.429 255.125 423.398 255.167C422.98 255.919 422.331 256.518 421.548 256.875C420.765 257.232 419.888 257.329 419.046 257.151C418.946 257.12 418.837 257.13 418.744 257.179C418.651 257.228 418.581 257.311 418.55 257.412C418.518 257.514 418.528 257.624 418.577 257.719C418.625 257.814 418.709 257.886 418.81 257.92C419.509 258.103 420.244 258.103 420.943 257.92Z" fill="#263238"/>
<path d="M422.357 249.389C422.357 250.021 422.109 250.567 421.687 250.629C421.265 250.691 420.881 250.17 420.831 249.538C420.782 248.905 421.092 248.298 421.513 248.298C421.935 248.298 422.307 248.744 422.357 249.389Z" fill="#263238"/>
<path d="M414.768 249.066C414.768 249.699 414.52 250.244 414.098 250.306C413.677 250.368 413.305 249.847 413.255 249.215C413.205 248.583 413.503 248.037 413.925 247.975C414.346 247.913 414.731 248.422 414.768 249.066Z" fill="#263238"/>
<path d="M416.777 255.204L416.69 250.616L414.408 254.485C414.724 254.775 415.1 254.991 415.51 255.115C415.92 255.24 416.353 255.27 416.777 255.204Z" fill="#BA4D3C"/>
<path d="M425.816 245.52C425.87 245.505 425.921 245.48 425.965 245.446C426.025 245.41 426.078 245.363 426.12 245.306C426.162 245.25 426.192 245.185 426.208 245.117C426.224 245.048 426.226 244.978 426.214 244.908C426.202 244.839 426.177 244.773 426.139 244.714C425.726 244.022 425.127 243.46 424.41 243.091C423.693 242.723 422.887 242.563 422.084 242.631C422.014 242.638 421.946 242.66 421.885 242.694C421.824 242.729 421.77 242.775 421.727 242.831C421.685 242.886 421.653 242.95 421.636 243.018C421.618 243.086 421.614 243.157 421.625 243.226C421.643 243.366 421.716 243.492 421.828 243.578C421.939 243.664 422.08 243.702 422.22 243.685C422.82 243.647 423.418 243.776 423.949 244.056C424.481 244.336 424.925 244.756 425.233 245.272C425.291 245.37 425.379 245.447 425.484 245.492C425.589 245.537 425.705 245.546 425.816 245.52Z" fill="#263238"/>
<path d="M412.362 245.012C412.501 244.975 412.621 244.886 412.697 244.764C412.919 244.427 413.234 244.163 413.604 244.002C413.974 243.841 414.382 243.792 414.78 243.858C414.849 243.873 414.919 243.873 414.988 243.86C415.057 243.846 415.122 243.819 415.18 243.779C415.238 243.74 415.287 243.689 415.325 243.631C415.363 243.572 415.388 243.506 415.4 243.437C415.426 243.299 415.396 243.156 415.317 243.04C415.238 242.924 415.116 242.844 414.978 242.817C414.365 242.703 413.731 242.777 413.16 243.029C412.59 243.282 412.108 243.7 411.779 244.23C411.71 244.353 411.691 244.497 411.725 244.634C411.76 244.77 411.846 244.888 411.965 244.962C412.087 245.027 412.228 245.045 412.362 245.012Z" fill="#263238"/>
<path d="M434.645 276.161L431.979 278.765L427.23 283.427L425.444 280.587L423.671 277.785L429.871 270.395L434.384 275.851L434.645 276.161Z" fill="white"/>
<path d="M423.671 277.785L422.295 280.079L420.273 283.427L415.636 275.057L418.599 271.573L423.671 277.785Z" fill="white"/>
</svg>
