<svg width="303" height="235" viewBox="0 0 303 235" fill="none" xmlns="http://www.w3.org/2000/svg">
<g opacity="0.4">
<path d="M4.00006 125.504C4.00006 125.504 54.0001 46.5034 154 46.5034C248.033 46.5034 299.001 125.504 299.001 125.504" stroke="black" stroke-width="8"/>
<path d="M299 126.003C299 126.003 249.345 203.667 149.516 204.002C55.6431 204.318 5.99999 126.988 5.99999 126.988" stroke="black" stroke-width="8"/>
<path d="M230 125.503C230 166.509 195.445 200.003 152.5 200.003C109.555 200.003 75 166.509 75 125.503C75 84.4983 109.555 51.0034 152.5 51.0034C195.445 51.0034 230 84.4983 230 125.503Z" stroke="black" stroke-width="8"/>
<ellipse cx="150.5" cy="126.003" rx="41.5" ry="40" fill="black"/>
<ellipse cx="173.5" cy="113.003" rx="19.5" ry="22" fill="white"/>
</g>
<line x1="46.2945" y1="231.277" x2="224.294" y2="6.27739" stroke="#D9D9D9" stroke-width="12"/>
<line x1="46.2945" y1="231.277" x2="224.294" y2="6.27739" stroke="white" stroke-width="12"/>
<line opacity="0.4" x1="57.2945" y1="229.277" x2="235.294" y2="4.27739" stroke="black" stroke-width="12"/>
</svg>
