<svg width="112" height="78" viewBox="0 0 112 78" fill="none" xmlns="http://www.w3.org/2000/svg">
<path d="M108.72 0.349983C109.099 0.348534 109.474 0.422997 109.823 0.568977C110.172 0.714958 110.488 0.929482 110.753 1.19987C111.018 1.47025 111.226 1.791 111.364 2.14314C111.503 2.49527 111.57 2.87164 111.56 3.24998C111.02 23.39 105.3 38.48 94.5602 48.11C81.4602 59.9 64.9002 60 58.3102 59.47V73.77C58.3091 74.4496 58.1296 75.117 57.7896 75.7054C57.4495 76.2938 56.9609 76.7826 56.3726 77.1228C55.7843 77.463 55.1169 77.6428 54.4373 77.644C53.7577 77.6453 53.0897 77.468 52.5002 77.13L2.33017 48.13C1.74257 47.7901 1.25468 47.3017 0.915512 46.7137C0.57634 46.1257 0.397797 45.4588 0.397797 44.78C0.397797 44.1012 0.57634 43.4343 0.915512 42.8463C1.25468 42.2583 1.74257 41.7698 2.33017 41.43L52.4802 12.43C53.0709 12.0866 53.7419 11.9057 54.4252 11.9057C55.1084 11.9057 55.7795 12.0866 56.3702 12.43C56.9601 12.767 57.4497 13.2549 57.7889 13.8436C58.128 14.4323 58.3045 15.1006 58.3002 15.78V30.48C82.9702 32.78 100.12 11.06 106.3 1.61997C106.56 1.2178 106.919 0.889565 107.343 0.667061C107.767 0.444557 108.242 0.335342 108.72 0.349983ZM62.1602 56C69.0802 56 81.9602 54.59 92.1602 45.41C101.64 36.9 106.91 23.59 107.83 5.83997C100.23 16.63 82.7602 36.36 57.9202 33.98C57.0475 33.891 56.2387 33.4821 55.6496 32.8322C55.0606 32.1822 54.7331 31.3371 54.7302 30.46V15.84C54.7297 15.791 54.7165 15.7431 54.6917 15.7008C54.667 15.6586 54.6316 15.6236 54.5891 15.5993C54.5466 15.5751 54.4985 15.5623 54.4495 15.5625C54.4006 15.5626 54.3525 15.5755 54.3102 15.6L4.15016 44.6C4.10918 44.6223 4.07529 44.6558 4.05231 44.6964C4.02933 44.737 4.0182 44.7833 4.02017 44.83C4.01558 44.877 4.02558 44.9244 4.04884 44.9655C4.07211 45.0067 4.10748 45.0396 4.15016 45.06L54.3302 74C54.372 74.0267 54.4206 74.0409 54.4702 74.0409C54.5198 74.0409 54.5684 74.0267 54.6102 74C54.6538 73.98 54.6905 73.9475 54.7155 73.9065C54.7404 73.8655 54.7525 73.8179 54.7502 73.77V59.38C54.7501 58.8961 54.8494 58.4174 55.0421 57.9736C55.2348 57.5298 55.5166 57.1303 55.8702 56.8C56.2312 56.476 56.6534 56.2277 57.112 56.0697C57.5706 55.9117 58.0562 55.8472 58.5402 55.88C59.4002 55.95 60.6402 56 62.1602 56Z" fill="#FFD100"/>
</svg>
