<svg width="31" height="30" viewBox="0 0 31 30" fill="none" xmlns="http://www.w3.org/2000/svg">
<path d="M14.295 20.4532C14.0404 20.7051 13.6964 20.8457 13.3374 20.8457C12.9785 20.8457 12.6331 20.7051 12.3799 20.4532L7.70307 15.8272C7.17349 15.3034 7.17349 14.4567 7.70307 13.9329C8.23265 13.4091 9.08864 13.4091 9.61822 13.9329L13.3374 17.6117L29.9074 1.22047C29.4252 0.48765 28.5909 0 27.6401 0H3.26059C1.76396 0 0.551758 1.19903 0.551758 2.6794V26.794C0.551758 28.2744 1.76396 29.4734 3.26059 29.4734H27.6401C29.1367 29.4734 30.3489 28.2744 30.3489 26.794V4.57373L14.295 20.4532Z" fill="#4CB93A" fill-opacity="0.76"/>
</svg>
