<svg width="129" height="138" viewBox="0 0 129 138" fill="none" xmlns="http://www.w3.org/2000/svg">
<path d="M64.297 137.25C99.8073 137.25 128.594 106.525 128.594 68.6248C128.594 30.7244 99.8073 0 64.297 0C28.7867 0 0 30.7244 0 68.6248C0 106.525 28.7867 137.25 64.297 137.25Z" fill="#FFD100"/>
<mask id="mask0_384_512" style="mask-type:luminance" maskUnits="userSpaceOnUse" x="3" y="28" width="122" height="110">
<path d="M124.235 28.5669H3.646V137.25H124.235V28.5669Z" fill="white"/>
</mask>
<g mask="url(#mask0_384_512)">
<path d="M44.9601 137.195L51.0601 124.071C51.0601 124.071 63.6601 121.675 63.8501 105.843C64.0401 90.0115 63.8501 44.8045 63.8501 41.6795C63.8501 38.5545 62.8661 35.982 60.3131 34.5963C56.6801 32.6173 53.5311 35.8466 53.5311 35.8466C53.5311 35.8466 53.1961 31.4692 50.0831 29.9642C48.7112 29.247 47.1343 29.1281 45.6827 29.6325C44.231 30.1368 43.0171 31.2253 42.2951 32.6699C42.1402 31.7228 41.7215 30.8485 41.0944 30.1627C40.4673 29.4769 39.6614 29.0118 38.7831 28.829C35.1501 27.754 32.8971 30.2265 31.8311 32.3055C30.7651 34.3846 23.6461 47.4093 24.1761 69.9079C24.1761 69.9079 18.6761 62.7151 14.1471 58.0604C10.8041 54.6204 7.38912 55.1697 5.47912 56.7456C3.46212 58.4097 3.04612 61.9282 4.54612 65.5972C6.13212 69.479 19.8161 105.167 19.8161 105.167L11.7251 123.863C11.7251 123.863 25.7751 138.237 44.9601 137.193" fill="#12264B"/>
<path d="M24.1948 70.0736C25.7057 72.3849 27.0503 74.8168 28.2168 77.3481C28.4658 77.8856 29.2168 77.4137 28.9698 76.8751C27.8031 74.3453 26.4585 71.9148 24.9478 69.6049C24.6278 69.1136 23.8718 69.5823 24.1948 70.0779" fill="#FFD100"/>
<path d="M41.9644 33.2389C42.7804 38.9751 41.4294 44.4296 40.3234 49.9992C39.0754 55.7782 38.8772 61.7618 39.7394 67.6217C39.8334 68.2151 40.6744 67.9635 40.5804 67.3723C39.5254 60.7234 40.2874 54.4142 41.6494 47.8986C42.6864 42.9354 43.5304 38.0807 42.8064 32.9895C42.7214 32.395 41.8804 32.6476 41.9644 33.2389Z" fill="#FFD100"/>
<path d="M53.2351 36.1069C53.3118 39.2919 53.1898 42.4789 52.8701 45.6464C52.5401 48.6392 51.7431 51.4869 51.2821 54.4442C50.5276 59.823 50.3976 65.2818 50.8951 70.695C50.9421 71.2916 51.8151 71.297 51.7671 70.695C51.1848 64.9825 51.3711 59.2096 52.3201 53.5541C53.5348 47.831 54.1344 41.977 54.1071 36.1069C54.1071 35.9826 54.0612 35.8634 53.9794 35.7755C53.8976 35.6876 53.7867 35.6382 53.6711 35.6382C53.5555 35.6382 53.4446 35.6876 53.3628 35.7755C53.281 35.8634 53.2351 35.9826 53.2351 36.1069Z" fill="#FFD100"/>
<path d="M33.7672 68.3655C41.8672 67.6646 50.6922 68.5634 56.3262 75.6111C56.6932 76.069 57.3072 75.4036 56.9432 74.9478C51.1702 67.727 42.0832 66.7079 33.7682 67.4228C33.2132 67.4701 33.2082 68.4086 33.7682 68.3602" fill="#FFD100"/>
<path d="M43.5494 123.265C45.8493 124.381 48.3632 124.892 50.8834 124.757C51.4424 124.728 51.4454 123.789 50.8834 123.819C48.5173 123.959 46.1543 123.491 43.9894 122.455C43.4814 122.212 43.0374 123.02 43.5494 123.265Z" fill="#FFD100"/>
<path d="M44.689 111.127C46.665 97.1379 41.772 81.9192 28.71 76.656C28.184 76.441 27.957 77.3493 28.478 77.56C41.053 82.6276 45.746 97.44 43.847 110.878C43.764 111.468 44.605 111.722 44.689 111.127Z" fill="#FFD100"/>
<path d="M82.9212 137.195L76.8212 124.071C76.8212 124.071 64.2212 121.675 64.0312 105.843C63.8412 90.0115 64.0312 44.8045 64.0312 41.6795C64.0312 38.5545 65.0152 35.982 67.5682 34.5963C71.2012 32.6173 74.3502 35.8466 74.3502 35.8466C74.3502 35.8466 74.6892 31.4713 77.8022 29.9642C79.1742 29.247 80.751 29.1281 82.2027 29.6325C83.6543 30.1368 84.8682 31.2253 85.5902 32.6699C85.7449 31.7234 86.163 30.8496 86.7893 30.1638C87.4156 29.478 88.2207 29.0126 89.0982 28.829C92.7312 27.754 94.9842 30.2265 96.0502 32.3055C97.1162 34.3846 104.238 47.4093 103.705 69.9079C103.705 69.9079 109.205 62.7151 113.734 58.0604C117.077 54.6204 120.492 55.1697 122.402 56.7456C124.42 58.4108 124.835 61.9293 123.336 65.5983C121.75 69.4801 108.066 105.168 108.066 105.168L116.156 123.865C116.156 123.865 102.106 138.239 82.9212 137.195Z" fill="#12264B"/>
<path d="M102.932 69.6005C101.421 71.9107 100.077 74.3415 98.91 76.8718C98.662 77.4093 99.41 77.8866 99.663 77.3448C100.83 74.8147 102.175 72.3839 103.685 70.0735C104.008 69.579 103.252 69.106 102.932 69.6005Z" fill="#FFD100"/>
<path d="M85.0811 32.9903C84.3571 38.0794 85.2001 42.9373 86.2371 47.8995C87.5991 54.4162 88.3611 60.7221 87.3061 67.3731C87.2121 67.9633 88.0521 68.217 88.1471 67.6225C89.0096 61.7627 88.8113 55.779 87.5631 50.0001C86.4571 44.4294 85.1061 38.977 85.9221 33.2397C86.0061 32.6496 85.1661 32.3948 85.0811 32.9903Z" fill="#FFD100"/>
<path d="M73.7734 36.1069C73.7459 41.977 74.3455 47.8311 75.5604 53.5541C76.5094 59.2096 76.6956 64.9825 76.1134 70.695C76.0664 71.2959 76.9384 71.2927 76.9854 70.695C77.4828 65.2818 77.3528 59.823 76.5984 54.4442C76.1594 51.6224 75.3884 48.8983 75.0544 46.0474C74.7004 42.7484 74.5637 39.4266 74.6454 36.1069C74.6454 35.9826 74.5994 35.8634 74.5177 35.7755C74.4359 35.6876 74.325 35.6382 74.2094 35.6382C74.0937 35.6382 73.9828 35.6876 73.9011 35.7755C73.8193 35.8634 73.7734 35.9826 73.7734 36.1069Z" fill="#FFD100"/>
<path d="M94.114 67.428C85.798 66.7088 76.714 67.7279 70.939 74.953C70.575 75.4077 71.189 76.0742 71.556 75.6163C77.189 68.5707 86.014 67.6699 94.115 68.3708C94.674 68.4192 94.671 67.4818 94.115 67.4334" fill="#FFD100"/>
<path d="M83.8921 122.452C81.7272 123.488 79.3642 123.955 76.9981 123.816C76.4371 123.787 76.4391 124.725 76.9981 124.754C79.5181 124.89 82.032 124.379 84.3321 123.265C84.8431 123.02 84.4001 122.212 83.8921 122.455" fill="#FFD100"/>
<path d="M84.034 110.877C82.134 97.4398 86.828 82.6274 99.404 77.5599C99.925 77.3449 99.704 76.4429 99.172 76.6558C86.11 81.9233 81.217 97.1378 83.193 111.127C83.277 111.721 84.117 111.469 84.034 110.877Z" fill="#FFD100"/>
<path d="M63.5039 42.8159V108.292C63.5039 108.416 63.5498 108.535 63.6316 108.623C63.7134 108.711 63.8243 108.761 63.9399 108.761C64.0555 108.761 64.1664 108.711 64.2482 108.623C64.33 108.535 64.3759 108.416 64.3759 108.292V42.8159C64.3759 42.6916 64.33 42.5723 64.2482 42.4844C64.1664 42.3966 64.0555 42.3472 63.9399 42.3472C63.8243 42.3472 63.7134 42.3966 63.6316 42.4844C63.5498 42.5723 63.5039 42.6916 63.5039 42.8159Z" fill="#FFD100"/>
<path d="M77.6272 62.9033L75.0952 62.9796C75.2054 59.7139 74.7611 56.454 73.7842 53.3595C72.3152 49.0455 69.2482 44.9809 62.8902 45.3077C62.6222 45.3195 62.3622 45.3421 62.1052 45.3765C51.7052 46.6472 52.0422 62.11 52.0422 62.11L49.3852 61.5907C49.3852 61.5907 48.3952 44.5036 61.7112 42.5428C62.1892 42.4676 62.6812 42.4192 63.1952 42.3891C70.3652 41.9698 73.9782 46.7267 75.7952 51.7609C77.0011 55.3331 77.6209 59.1032 77.6272 62.9033Z" fill="#12264B" stroke="#FFD100" stroke-width="2"/>
<path d="M81.909 59.4505C81.909 59.4505 82.363 63.9387 82.686 73.6932C82.708 74.364 82.729 75.0628 82.751 75.7841C82.771 76.3592 82.786 76.9451 82.8041 77.5482C83.125 89.9827 82.85 95.6727 82.85 95.6727C82.8559 95.8905 82.8217 96.1075 82.7495 96.3112C82.6772 96.5149 82.5683 96.7012 82.429 96.8596C82.2897 97.018 82.1227 97.1452 81.9375 97.2341C81.7524 97.323 81.5527 97.3718 81.35 97.3776L47.65 98.3849C47.2421 98.3982 46.846 98.2371 46.5484 97.9368C46.2509 97.6365 46.0764 97.2216 46.063 96.7831C46.063 96.7831 45.545 93.2098 45.171 78.6801C44.797 64.1504 45.124 60.5513 45.124 60.5513C45.1133 60.113 45.2646 59.688 45.5448 59.3694C45.8251 59.0509 46.2114 58.8647 46.619 58.8518L50.226 58.7443H50.269L80.321 57.8391C80.7295 57.8284 81.1252 57.9921 81.4217 58.2943C81.7182 58.5965 81.8913 59.0126 81.903 59.4516" fill="#FFD100"/>
<path d="M68.0272 72.4998C68.0631 73.3734 67.8573 74.2389 67.4358 74.9868C67.0142 75.7347 66.3958 76.3314 65.6587 76.7014C64.9217 77.0715 64.0991 77.1983 63.295 77.0658C62.491 76.9334 61.7415 76.5475 61.1414 75.9571C60.5413 75.3668 60.1175 74.5983 59.9237 73.749C59.7298 72.8997 59.7746 72.0077 60.0523 71.1858C60.3301 70.3639 60.8283 69.6489 61.484 69.1314C62.1397 68.6139 62.9235 68.317 63.7362 68.2783C64.2758 68.2526 64.8148 68.3414 65.3225 68.5396C65.8301 68.7379 66.2965 69.0417 66.695 69.4337C67.0934 69.8257 67.4162 70.2982 67.6447 70.8243C67.8733 71.3504 68.0033 71.9197 68.0272 72.4998Z" fill="black"/>
<path d="M62.906 75.7196L59.995 84.4271C59.9325 84.6144 59.9138 84.8153 59.9406 85.0122C59.9674 85.209 60.0388 85.3958 60.1486 85.556C60.2584 85.7162 60.4031 85.8449 60.5701 85.9307C60.7371 86.0165 60.9211 86.0569 61.106 86.0482L67.106 85.7622C67.2856 85.7538 67.4607 85.6994 67.6167 85.6035C67.7727 85.5076 67.9052 85.373 68.003 85.2109C68.1009 85.0488 68.1612 84.864 68.1792 84.6717C68.1971 84.4795 68.172 84.2854 68.106 84.1057L65.016 75.6841C64.9317 75.4551 64.7845 75.2592 64.594 75.1223C64.4035 74.9855 64.1787 74.9143 63.9496 74.9181C63.7205 74.922 63.498 75.0007 63.3116 75.1439C63.1251 75.2871 62.9837 75.4879 62.906 75.7196Z" fill="black"/>
</g>
</svg>
