<svg width="751" height="627" viewBox="0 0 751 627" fill="none" xmlns="http://www.w3.org/2000/svg">
<g clip-path="url(#clip0_85_72)">
<path d="M472.229 571.455L460.877 571.454L455.476 525.202L472.232 525.203L472.229 571.455Z" fill="#9E616A"/>
<path d="M475.125 583.078L438.519 583.077V582.587C438.519 578.596 440.02 574.769 442.692 571.946C445.364 569.124 448.988 567.539 452.767 567.538H452.768L475.125 567.539L475.125 583.078Z" fill="#2F2E41"/>
<path d="M431.485 571.455L420.132 571.454L414.731 525.202L431.487 525.203L431.485 571.455Z" fill="#9E616A"/>
<path d="M434.38 583.078L397.774 583.077V582.587C397.774 578.596 399.275 574.769 401.947 571.946C404.619 569.124 408.243 567.539 412.022 567.538H412.023L434.381 567.539L434.38 583.078Z" fill="#2F2E41"/>
<path d="M299.264 247.358C300.171 248.676 301.341 249.768 302.691 250.557C304.041 251.346 305.538 251.812 307.078 251.924C308.617 252.035 310.16 251.789 311.6 251.202C313.039 250.615 314.339 249.702 315.408 248.527L337.872 257.792L346.532 244.747L314.635 232.133C312.647 230.367 310.115 229.432 307.519 229.506C304.922 229.58 302.441 230.658 300.547 232.534C298.652 234.411 297.475 236.957 297.238 239.689C297.002 242.421 297.723 245.15 299.264 247.358Z" fill="#9E616A"/>
<path d="M431.341 326.4L401.765 336.59L411.645 557.83L434.472 558.426L446.153 402.405L448.806 557.811L477.03 559.454L487.435 326.4H431.341Z" fill="#2F2E41"/>
<path d="M411.385 195.982L487.295 178.561L495.736 247.6L488.707 280.587L491.523 330.718C491.523 330.718 431.5 362.272 401.765 336.59C401.765 336.59 425.664 270.285 411.811 239.247L411.385 195.982Z" fill="#FFD100"/>
<path d="M424.532 205.747L411.385 195.982C411.385 195.982 410.609 194.846 399.653 208.374C388.698 221.901 366.474 243.419 366.474 243.419L329.433 228.748L322.685 255.083L365.734 276.272L426.68 233.28L424.532 205.747Z" fill="#FFD100"/>
<path d="M491.536 356.597C492.931 355.9 494.165 354.89 495.15 353.636C496.135 352.382 496.848 350.915 497.239 349.338C497.629 347.762 497.687 346.114 497.41 344.511C497.132 342.908 496.525 341.389 495.631 340.061L508.434 318.475L497.913 307.058L480.237 337.809C478.224 339.542 476.883 341.996 476.468 344.704C476.053 347.413 476.594 350.188 477.986 352.504C479.379 354.819 481.528 356.515 484.025 357.27C486.522 358.024 489.195 357.784 491.536 356.597Z" fill="#9E616A"/>
<path d="M475.455 192.162L487.295 178.561C487.295 178.561 500.487 173.709 511.265 198.783C522.044 223.858 534.082 274.718 534.082 274.718L505.936 331.983L484.077 321.667L505.936 274.314L482.805 239.247L475.455 192.162Z" fill="#FFD100"/>
<path d="M455.378 172.898C467.319 166.004 471.708 150.19 465.18 137.578C458.653 124.965 443.681 120.33 431.74 127.225C419.8 134.119 415.411 149.933 421.939 162.545C428.466 175.158 443.438 179.793 455.378 172.898Z" fill="#9E616A"/>
<path d="M464.338 126.789C463.172 121.62 459.093 117.541 454.401 115.629C449.708 113.716 444.483 113.734 439.524 114.624C431.293 116.101 423.607 119.85 416.033 123.562L421.871 126.512L413.815 127L420.04 130.4C418.378 131.736 417.113 133.548 416.397 135.62C415.68 137.693 415.541 139.939 415.996 142.092C416.317 143.501 417.173 145.054 418.544 145.102C420.202 145.161 421.067 143.121 422.227 141.869C423.771 140.204 426.209 139.834 428.395 140.148C430.582 140.462 432.655 141.35 434.812 141.842C437.539 142.442 440.358 142.409 443.071 141.745C445.785 141.08 448.33 139.801 450.529 137.995L458.292 157.737C458.218 156.992 458.309 156.24 458.557 155.539C458.804 154.837 459.202 154.206 459.719 153.694C460.235 153.182 460.857 152.803 461.536 152.586C462.214 152.37 462.931 152.322 463.63 152.446C464.328 152.571 464.99 152.864 465.564 153.304C466.138 153.743 466.608 154.316 466.937 154.979C467.266 155.642 467.446 156.376 467.462 157.125C467.478 157.873 467.33 158.615 467.03 159.293C470.39 153.94 473.093 147.858 473.186 141.436C473.278 135.014 470.263 128.249 464.743 125.554" fill="#2F2E41"/>
<path d="M178.776 525.584L168.28 543.013L174.394 520.323C161.486 506.097 143.616 495.69 143.616 495.69C143.616 495.69 121.612 533.887 127.534 557.384C133.457 580.88 148.749 585.365 165.063 580.778C181.376 576.191 192.533 564.268 186.61 540.771C185.292 535.542 182.429 530.407 178.776 525.584Z" fill="#12264B"/>
<path d="M164.889 544.751L165.181 545.909C168.509 559.389 169.007 570.498 166.654 579.08C166.622 579.206 166.582 579.327 166.55 579.453L166.001 579.282L165.476 579.111C168.142 569.808 166.952 558.053 164.052 546.294C163.962 545.914 163.871 545.528 163.768 545.146C162.499 540.179 160.944 535.232 159.251 530.477C159.123 530.107 158.989 529.734 158.854 529.36C156.589 523.096 154.114 517.198 151.821 512.114C151.661 511.754 151.495 511.395 151.33 511.042C147.416 502.454 144.097 496.369 143.352 495.026C143.264 494.86 143.212 494.77 143.201 494.749L143.677 494.449L143.681 494.442L144.163 494.14C144.175 494.162 144.349 494.463 144.654 495.028C145.808 497.135 148.87 502.874 152.401 510.588C152.559 510.936 152.725 511.295 152.885 511.655C154.75 515.778 156.727 520.417 158.608 525.34C159.082 526.576 159.536 527.799 159.969 529.01C160.109 529.382 160.244 529.755 160.372 530.125C162.202 535.265 163.708 540.14 164.889 544.751Z" fill="#12264B"/>
<path d="M152.401 510.588C152.051 510.741 151.695 510.897 151.33 511.042C150.341 511.439 149.333 511.782 148.31 512.069C143.954 513.301 139.392 513.484 134.96 512.606C134.808 512.974 134.657 513.342 134.501 513.718C139.176 514.687 143.998 514.516 148.6 513.216C149.691 512.909 150.766 512.541 151.821 512.114C152.18 511.97 152.536 511.814 152.885 511.655C155.773 510.356 158.457 508.601 160.846 506.451C160.533 506.201 160.227 505.956 159.927 505.714C157.66 507.721 155.124 509.363 152.401 510.588Z" fill="#12264B"/>
<path d="M159.968 529.01C159.6 529.138 159.228 529.255 158.853 529.361C158.741 529.398 158.621 529.432 158.507 529.464C153.786 530.792 148.83 530.894 144.062 529.762C139.295 528.629 134.858 526.296 131.128 522.961C130.997 523.361 130.865 523.76 130.74 524.163C134.595 527.515 139.151 529.848 144.03 530.969C148.91 532.09 153.971 531.967 158.797 530.611C158.949 530.568 159.101 530.525 159.251 530.477C159.63 530.364 160.001 530.247 160.371 530.125C166.088 528.181 171.154 524.54 174.963 519.636C174.704 519.347 174.445 519.057 174.181 518.769C170.488 523.571 165.548 527.13 159.968 529.01Z" fill="#12264B"/>
<path d="M164.889 544.751C164.518 544.892 164.144 545.022 163.768 545.146C163.365 545.277 162.961 545.403 162.554 545.518C156.207 547.294 149.486 546.851 143.397 544.256C137.309 541.66 132.18 537.051 128.778 531.119C128.651 531.652 128.523 532.179 128.406 532.709C132.029 538.563 137.307 543.062 143.489 545.568C149.671 548.073 156.443 548.457 162.843 546.664C163.25 546.55 163.656 546.43 164.052 546.294C164.434 546.174 164.809 546.044 165.181 545.909C172.696 543.116 178.926 537.412 182.609 529.95C182.388 529.558 182.152 529.176 181.915 528.788C178.421 536.245 172.314 541.971 164.889 544.751Z" fill="#12264B"/>
<path d="M588.188 527.401L577.844 544.578L583.869 522.217C571.148 508.197 553.538 497.941 553.538 497.941C553.538 497.941 531.854 535.584 537.69 558.739C543.526 581.894 558.597 586.314 574.673 581.794C590.749 577.273 601.744 565.523 595.908 542.368C594.609 537.214 591.787 532.155 588.188 527.401Z" fill="#12264B"/>
<path d="M574.503 546.29L574.79 547.431C578.07 560.716 578.561 571.663 576.241 580.121C576.21 580.244 576.171 580.364 576.139 580.488L575.598 580.319L575.08 580.15C577.708 570.983 576.535 559.399 573.677 547.811C573.589 547.436 573.498 547.056 573.398 546.679C572.147 541.785 570.614 536.909 568.946 532.223C568.82 531.859 568.687 531.491 568.555 531.123C566.323 524.95 563.884 519.137 561.624 514.127C561.466 513.772 561.302 513.419 561.14 513.071C557.283 504.608 554.013 498.611 553.278 497.287C553.191 497.124 553.14 497.035 553.129 497.014L553.599 496.719L553.603 496.712L554.078 496.415C554.089 496.436 554.261 496.732 554.562 497.289C555.698 499.366 558.716 505.022 562.196 512.623C562.351 512.967 562.515 513.32 562.673 513.675C564.511 517.738 566.459 522.309 568.312 527.161C568.779 528.379 569.227 529.585 569.653 530.778C569.791 531.144 569.924 531.512 570.05 531.876C571.854 536.942 573.338 541.746 574.503 546.29Z" fill="#12264B"/>
<path d="M562.196 512.623C561.85 512.775 561.499 512.928 561.14 513.071C560.165 513.462 559.172 513.8 558.164 514.083C553.871 515.297 549.375 515.478 545.007 514.612C544.858 514.975 544.709 515.338 544.556 515.707C549.162 516.663 553.914 516.494 558.449 515.213C559.525 514.911 560.584 514.548 561.624 514.127C561.978 513.985 562.328 513.832 562.673 513.675C565.518 512.395 568.163 510.665 570.517 508.546C570.209 508.3 569.907 508.058 569.612 507.821C567.377 509.798 564.878 511.417 562.196 512.623Z" fill="#12264B"/>
<path d="M569.653 530.778C569.29 530.904 568.924 531.019 568.554 531.123C568.444 531.16 568.326 531.193 568.213 531.225C563.56 532.533 558.676 532.634 553.978 531.518C549.28 530.402 544.907 528.103 541.232 524.817C541.102 525.21 540.972 525.604 540.849 526.001C544.649 529.304 549.138 531.603 553.947 532.708C558.755 533.813 563.743 533.692 568.498 532.355C568.648 532.313 568.798 532.271 568.946 532.223C569.319 532.112 569.686 531.997 570.05 531.876C575.684 529.961 580.676 526.372 584.43 521.54C584.175 521.255 583.92 520.969 583.659 520.686C580.02 525.417 575.152 528.925 569.653 530.778Z" fill="#12264B"/>
<path d="M574.502 546.29C574.136 546.429 573.768 546.557 573.398 546.679C573.001 546.809 572.602 546.933 572.201 547.046C565.946 548.796 559.323 548.36 553.323 545.802C547.322 543.244 542.268 538.702 538.916 532.856C538.791 533.381 538.664 533.901 538.549 534.423C542.12 540.192 547.32 544.626 553.413 547.095C559.505 549.564 566.179 549.942 572.486 548.176C572.887 548.063 573.287 547.945 573.677 547.811C574.054 547.692 574.423 547.565 574.79 547.431C582.196 544.679 588.335 539.057 591.964 531.704C591.747 531.318 591.514 530.941 591.281 530.559C587.837 537.908 581.819 543.55 574.502 546.29Z" fill="#12264B"/>
<path d="M374.115 100.674C374.115 59.5882 346.997 26.2817 313.544 26.2817C280.092 26.2817 252.974 59.5882 252.974 100.674C252.974 137.937 275.281 168.8 304.388 174.22V181.231C304.388 182.555 304.886 183.826 305.773 184.762C306.66 185.699 307.862 186.225 309.116 186.225H317.973C319.227 186.225 320.429 185.699 321.316 184.762C322.202 183.826 322.7 182.555 322.7 181.231V174.22C351.808 168.8 374.115 137.937 374.115 100.674Z" fill="#12264B"/>
<path d="M302.932 180.217C304.827 178.338 307.085 176.913 309.551 176.042C312.017 175.171 314.631 174.874 317.216 175.171C319.821 175.49 322.32 176.443 324.517 177.956C326.713 179.469 328.547 181.5 329.873 183.889C331.2 186.207 332.034 188.803 332.316 191.495C332.599 194.188 332.323 196.913 331.509 199.481C329.917 204.604 326.532 208.868 323.063 212.71C319.423 216.741 315.464 220.459 312.043 224.707C306.4 231.754 302.46 240.142 300.56 249.151C298.66 258.16 298.858 267.521 301.135 276.431C304.138 287.725 310.337 297.78 318.902 305.247C319.989 306.186 321.109 307.08 322.262 307.93C323.596 308.916 324.858 306.606 323.536 305.628C314.237 298.68 307.364 288.688 303.982 277.2C301.417 268.247 301.089 258.746 303.029 249.619C304.97 240.493 309.113 232.052 315.056 225.117C318.665 220.908 322.707 217.14 326.315 212.929C329.772 208.895 332.924 204.344 334.274 199.015C334.957 196.305 335.127 193.48 334.772 190.701C334.418 187.922 333.547 185.244 332.209 182.823C330.877 180.347 329.075 178.188 326.916 176.482C324.758 174.776 322.289 173.559 319.664 172.908C314.384 171.696 308.865 172.705 304.278 175.722C303.154 176.479 302.106 177.354 301.148 178.332C299.975 179.525 301.761 181.408 302.932 180.217Z" fill="#3F3D56"/>
<path d="M140.707 69.5215C122.173 24.5204 77.4465 1.68712 40.806 18.5221C4.16554 35.357 -10.5131 85.4851 8.02009 130.486C24.8289 171.3 63.184 193.878 97.5107 185.167L100.673 192.846C101.271 194.297 102.389 195.437 103.783 196.017C105.176 196.596 106.731 196.568 108.104 195.937L117.805 191.479C119.178 190.848 120.258 189.667 120.807 188.195C121.355 186.723 121.328 185.081 120.73 183.631L117.568 175.952C147.004 155.366 157.516 110.336 140.707 69.5215Z" fill="#12264B"/>
<path d="M98.4356 192.24C99.6398 189.31 101.413 186.68 103.641 184.52C105.869 182.36 108.502 180.718 111.369 179.702C114.184 178.7 117.173 178.361 120.125 178.708C123.077 179.054 125.922 180.078 128.461 181.707C131.076 183.344 133.331 185.55 135.075 188.18C136.819 190.809 138.013 193.801 138.576 196.956C139.869 204.268 137.771 211.715 135.386 218.523C132.885 225.659 129.77 232.589 128.032 239.999C125.612 250.415 125.563 261.287 127.889 271.726C130.214 282.165 134.848 291.874 141.41 300.057C149.675 310.173 160.561 317.515 172.726 321.181C174.219 321.625 175.726 322.004 177.246 322.329C178.832 322.668 179.51 320.099 177.917 319.759C165.259 317.006 153.724 310.168 144.906 300.189C135.559 289.515 129.913 275.81 128.888 261.311C128.339 253.964 128.976 246.573 130.773 239.453C132.691 231.939 135.937 224.904 138.384 217.583C140.719 210.597 142.374 203.096 140.907 195.703C139.558 189.194 135.818 183.516 130.509 179.917C127.965 178.145 125.113 176.925 122.118 176.327C119.123 175.729 116.046 175.767 113.065 176.436C106.977 177.893 101.643 181.744 98.1484 187.208C97.2984 188.57 96.5793 190.018 96.002 191.532C95.3815 193.115 97.8223 193.805 98.4356 192.24Z" fill="#3F3D56"/>
<path d="M658.415 613.072L672.019 613.071L678.49 557.648L658.412 557.649L658.415 613.072Z" fill="#FFB6B6"/>
<path d="M654.944 608.38L681.735 608.379H681.736C686.264 608.379 690.607 610.279 693.808 613.661C697.01 617.043 698.809 621.63 698.809 626.412V626.998L654.945 627L654.944 608.38Z" fill="#2F2E41"/>
<path d="M577.896 600.853L590.866 605.186L612.863 554.407L593.72 548.011L577.896 600.853Z" fill="#FFB6B6"/>
<path d="M575.927 595.275L601.47 603.809L601.471 603.809C605.788 605.252 609.386 608.447 611.473 612.691C613.56 616.935 613.965 621.881 612.599 626.441L612.432 627L570.61 613.027L575.927 595.275Z" fill="#2F2E41"/>
<path d="M608.526 359.951L600.977 382.439L600.763 503.846L579.354 586.969L605.634 594.715L634.663 516.338L643.974 447.495L656.244 516.738L654.555 599.038H682.128L684.209 472.213C684.793 436.595 678.893 401.19 666.828 367.924L608.526 359.951Z" fill="#2F2E41"/>
<path d="M599.536 268.855H644.103L662.725 288.524L668.288 369.829L600.977 381.27L579.354 303.694L591.13 270.725L599.536 268.855Z" fill="#FFD100"/>
<path d="M583.508 304.47L514.89 277.201L513.104 265.928L556.378 227.251L570.781 238.663L544.675 268.855L591.13 270.725L583.508 304.47Z" fill="#FFD100"/>
<path d="M564.7 243.071C570.828 243.071 575.796 237.823 575.796 231.351C575.796 224.878 570.828 219.63 564.7 219.63C558.572 219.63 553.604 224.878 553.604 231.351C553.604 237.823 558.572 243.071 564.7 243.071Z" fill="#FFB6B6"/>
<path d="M590.434 246.116L595.448 222.235C596.327 218.029 597.983 214.047 600.319 210.517C602.656 206.987 605.629 203.978 609.067 201.663C612.505 199.347 616.342 197.77 620.358 197.021C624.374 196.272 628.49 196.367 632.471 197.299C636.452 198.232 640.22 199.984 643.56 202.456C646.899 204.927 649.745 208.07 651.934 211.704C654.123 215.338 655.613 219.392 656.318 223.634C657.023 227.876 656.929 232.224 656.042 236.428L651.028 260.309C650.788 261.449 650.129 262.441 649.197 263.068C648.265 263.695 647.135 263.906 646.056 263.655L593.602 251.368C592.523 251.114 591.584 250.418 590.99 249.433C590.396 248.449 590.196 247.256 590.434 246.116Z" fill="#2F2E41"/>
<path d="M624.978 255.118C637.048 251.424 643.997 238.095 640.5 225.347C637.002 212.599 624.383 205.259 612.314 208.953C600.245 212.647 593.295 225.975 596.793 238.724C600.29 251.472 612.909 258.811 624.978 255.118Z" fill="#FFB6B6"/>
<path d="M587.88 222.466C589.296 215.756 593.175 209.914 598.664 206.221C604.153 202.527 610.806 201.285 617.161 202.766L621.683 203.825C628.036 205.321 633.567 209.417 637.064 215.215C640.56 221.013 641.736 228.04 640.334 234.753L640.234 235.23L630.678 232.992L629.442 222.588L626.767 232.076L621.828 230.919L621.205 225.67L619.854 230.457L587.78 222.944L587.88 222.466Z" fill="#2F2E41"/>
<path d="M610.853 258.226C610.539 257.48 610.432 256.654 610.542 255.846C610.653 255.037 610.977 254.278 611.479 253.655C618.292 245.151 628.736 228.934 622.134 215.877L621.659 214.939L647.513 220.995L638.905 261.994L614.5 260.87C614.253 260.858 614.007 260.824 613.766 260.768C613.124 260.618 612.526 260.309 612.02 259.867C611.514 259.426 611.114 258.863 610.853 258.226Z" fill="#2F2E41"/>
<path d="M642.33 269.348L714.914 280.249L718.973 290.844L684.67 338.513L668.266 330.674L687.551 295.219L641.819 304.037L642.33 269.348Z" fill="#FFD100"/>
<path d="M751 114.801C751 65.7261 718.609 25.9434 678.652 25.9434C638.695 25.9434 606.303 65.7261 606.303 114.801C606.303 159.309 632.948 196.173 667.715 202.648V211.022C667.715 212.604 668.31 214.121 669.369 215.239C670.428 216.358 671.864 216.986 673.362 216.986H683.941C685.439 216.986 686.875 216.358 687.934 215.239C688.993 214.121 689.588 212.604 689.588 211.022V202.648C724.355 196.173 751 159.309 751 114.801Z" fill="#12264B"/>
<path d="M665.802 209.628C668.099 207.348 670.838 205.622 673.829 204.57C676.819 203.517 679.991 203.164 683.124 203.534C686.201 203.917 689.156 205.035 691.764 206.803C694.373 208.571 696.566 210.942 698.178 213.738C699.818 216.497 700.873 219.599 701.27 222.83C701.667 226.061 701.397 229.344 700.478 232.454C698.693 238.559 694.775 243.67 690.691 248.252C686.334 253.14 681.562 257.609 677.396 262.687C670.606 271.022 665.834 280.974 663.491 291.688C661.147 302.402 661.302 313.556 663.943 324.193C667.475 337.863 674.938 350.039 685.303 359.037C686.561 360.119 687.856 361.151 689.188 362.133C690.522 363.118 691.785 360.808 690.462 359.831C679.363 351.545 671.143 339.644 667.061 325.951C663.961 315.262 663.521 303.911 665.785 292.991C668.049 282.071 672.939 271.952 679.984 263.61C684.266 258.561 689.088 254.064 693.419 249.064C697.566 244.276 701.373 238.901 703.077 232.574C703.934 229.379 704.183 226.035 703.81 222.738C703.436 219.44 702.447 216.253 700.9 213.362C699.359 210.405 697.257 207.816 694.724 205.758C692.192 203.699 689.284 202.216 686.183 201.4C679.882 199.87 673.263 201.03 667.767 204.626C666.419 205.527 665.163 206.571 664.018 207.743C662.847 208.937 664.633 210.821 665.802 209.628Z" fill="#3F3D56"/>
<path d="M674.553 352.069C680.681 352.069 685.649 346.822 685.649 340.349C685.649 333.876 680.681 328.628 674.553 328.628C668.424 328.628 663.457 333.876 663.457 340.349C663.457 346.822 668.424 352.069 674.553 352.069Z" fill="#FFB6B6"/>
<path d="M558.923 234.641C558.342 235.613 556.931 235.472 556.139 234.864C555.039 234.02 555.395 232.396 556.152 231.435C558.559 228.384 562.539 231.606 563.076 234.636C563.276 236.114 563.06 237.621 562.457 238.97C561.853 240.319 560.887 241.452 559.68 242.227C556.934 243.946 553.368 243.084 551.007 241.027C546.082 236.736 547.423 228.146 552.893 225.041C556.384 223.06 560.797 223.93 564.236 225.589C568.107 227.457 571.436 230.321 575.015 232.707C582.87 237.9 591.755 241.105 600.976 242.071C602.591 242.244 602.579 239.577 600.976 239.405C595.866 238.847 590.85 237.571 586.059 235.611C581.319 233.582 576.821 230.974 572.655 227.84C568.44 224.789 564.037 221.824 558.821 221.32C556.716 221.06 554.583 221.394 552.64 222.287C550.697 223.18 549.012 224.601 547.757 226.405C546.641 228.019 545.894 229.884 545.574 231.854C545.254 233.824 545.371 235.846 545.915 237.761C546.57 239.763 547.716 241.545 549.236 242.927C550.756 244.31 552.596 245.242 554.567 245.629C556.465 246.008 558.428 245.751 560.182 244.896C561.936 244.04 563.393 242.627 564.35 240.855C566.27 237.348 566.207 232.637 563.307 229.729C562.476 228.837 561.436 228.193 560.292 227.865C559.148 227.536 557.942 227.534 556.798 227.859C555.743 228.235 554.815 228.928 554.127 229.853C553.44 230.777 553.022 231.893 552.925 233.065C552.645 237.617 558.764 239.894 561.102 235.986C561.973 234.532 559.79 233.193 558.923 234.641Z" fill="#3F3D56"/>
<path d="M54.0058 377.902L50.6727 382.319L38.8833 374.953L42.2164 370.535L54.0058 377.902Z" fill="#FFD100"/>
<path d="M66.3074 396.881L69.2518 401.522L56.8668 408.029L53.9224 403.388L66.3074 396.881Z" fill="#FFD100"/>
<path d="M79.128 376.706L85.0118 376.925L84.4263 389.928L78.5425 389.709L79.128 376.706Z" fill="#FFD100"/>
<path d="M192.813 26.0273L189.48 30.4444L177.691 23.0781L181.024 18.6602L192.813 26.0273Z" fill="#FFD100"/>
<path d="M205.116 45.0068L208.06 49.6478L195.675 56.1549L192.73 51.5138L205.116 45.0068Z" fill="#FFD100"/>
<path d="M217.936 24.8311L223.82 25.0505L223.234 38.0539L217.351 37.8344L217.936 24.8311Z" fill="#FFD100"/>
<path d="M520.064 72.2329L516.731 76.65L504.941 69.2837L508.275 64.8657L520.064 72.2329Z" fill="#FFD100"/>
<path d="M532.365 91.2129L535.31 95.8539L522.925 102.361L519.98 97.7199L532.365 91.2129Z" fill="#FFD100"/>
<path d="M545.187 71.0371L551.07 71.2566L550.485 84.2599L544.601 84.0405L545.187 71.0371Z" fill="#FFD100"/>
<path d="M419.954 7.36715L416.621 11.7842L404.832 4.41798L408.165 0L419.954 7.36715Z" fill="#FFD100"/>
<path d="M432.256 26.3472L435.2 30.9882L422.815 37.4952L419.871 32.8542L432.256 26.3472Z" fill="#FFD100"/>
<path d="M445.077 6.1709L450.961 6.39038L450.375 19.3937L444.491 19.1743L445.077 6.1709Z" fill="#FFD100"/>
<path d="M521.735 339.434L518.401 344.562L530.191 353.113L533.524 347.985L521.735 339.434Z" fill="#FFD100"/>
<path d="M533.44 377.568L536.385 382.955L548.77 375.402L545.826 370.015L533.44 377.568Z" fill="#FFD100"/>
<path d="M558.061 361.69L563.945 361.944L564.531 346.851L558.647 346.596L558.061 361.69Z" fill="#FFD100"/>
<path d="M271.642 572.126L281.834 570.461L274.847 484.447L252.133 488.89L271.642 572.126Z" fill="#FFB6B6"/>
<path d="M268.527 569.035L288.6 565.757C291.993 565.203 295.456 566.095 298.225 568.237C300.995 570.379 302.846 573.595 303.371 577.179L303.435 577.618L270.57 582.986L268.527 569.035Z" fill="#2F2E41"/>
<path d="M164.519 571.059L174.822 571.522L187.355 495.109L164.641 495.11L164.519 571.059Z" fill="#FFB6B6"/>
<path d="M162.033 567.387L182.326 568.3H182.327C185.757 568.455 188.988 570.042 191.31 572.713C193.631 575.384 194.854 578.919 194.708 582.542L194.69 582.986L161.464 581.491L162.033 567.387Z" fill="#2F2E41"/>
<path d="M184.806 322.099C184.32 321.955 183.822 321.857 183.319 321.806L189.743 266.27L211.539 217.516C212.91 214.449 213.129 210.947 212.152 207.716C211.175 204.485 209.074 201.766 206.274 200.107C203.473 198.448 200.181 197.972 197.061 198.776C193.941 199.58 191.226 201.603 189.464 204.438C183.751 213.625 179.43 223.697 176.656 234.291L167.499 269.262L174.195 329.234C173.938 330.924 174.149 332.657 174.803 334.224C175.456 335.79 176.524 337.124 177.879 338.064C179.233 339.005 180.816 339.512 182.437 339.524C184.058 339.537 185.647 339.054 187.015 338.135C188.382 337.216 189.469 335.899 190.144 334.342C190.819 332.786 191.054 331.057 190.821 329.362C190.588 327.668 189.896 326.081 188.829 324.793C187.762 323.504 186.365 322.569 184.806 322.099Z" fill="#FFB6B6"/>
<path d="M198.04 270.971L170.502 237.697L184.144 203.805C185.93 199.367 189.288 195.842 193.501 193.983C197.713 192.123 202.447 192.076 206.692 193.852C210.937 195.628 214.357 199.085 216.222 203.487C218.087 207.889 218.249 212.887 216.674 217.413L198.04 270.971Z" fill="#2F2E41"/>
<path d="M243.816 164.896C250.442 152.095 245.987 136.044 233.868 129.046C221.748 122.048 206.552 126.753 199.927 139.554C193.301 152.356 197.756 168.406 209.875 175.404C221.995 182.402 237.191 177.697 243.816 164.896Z" fill="#FFB6B6"/>
<path d="M226.053 120.132H209.898C199.306 120.132 190.72 130.334 190.72 142.92L191.468 173.446C202.912 174.95 214.105 178.112 224.732 182.843L226.24 176.042L229.214 184.999C231.86 186.353 234.483 187.834 237.083 189.44C234.048 174.378 232.799 159.351 234.883 147.678H240.355V141.353L242.212 147.678H252.132C252.132 144.06 251.458 140.478 250.147 137.136C248.837 133.794 246.916 130.758 244.494 128.2C242.072 125.642 239.197 123.613 236.033 122.229C232.869 120.844 229.478 120.132 226.053 120.132Z" fill="#2F2E41"/>
<path d="M278.731 489.12L276.39 489.715L274.426 451.125L260.124 335.611L243.72 291.626L251.712 260.971C251.712 260.971 260.966 239.645 237.831 223.206L219.323 190.329C206.539 181.5 196.02 187.273 190.413 202.281C185.527 215.357 181.735 231.9 183.99 248.975C189.043 287.224 193.244 291.626 193.244 291.626C193.244 291.626 161.697 328.502 168.427 375.596L164.676 497.53L161.245 497.382L160.869 507.066L190.848 508.365L191.224 498.68L188.737 498.572L199.554 450.237L215.538 386.259L243.299 464.454L252.637 495.757L249.561 496.54L251.709 505.964L280.879 498.543L278.731 489.12Z" fill="#2F2E41"/>
<path d="M299.333 270.162C298.993 270.557 298.688 270.984 298.42 271.436L254.251 240.552L222.695 198.172C220.71 195.506 217.842 193.734 214.669 193.214C211.496 192.694 208.254 193.464 205.597 195.369C202.941 197.275 201.067 200.173 200.354 203.48C199.641 206.787 200.142 210.257 201.755 213.189C206.984 222.692 213.584 231.275 221.317 238.63L246.846 262.908L300.634 283.377C301.951 284.375 303.513 284.95 305.132 285.032C306.751 285.114 308.358 284.701 309.76 283.841C311.162 282.981 312.298 281.712 313.033 280.186C313.768 278.66 314.07 276.943 313.902 275.24C313.734 273.537 313.104 271.922 312.087 270.588C311.071 269.255 309.711 268.26 308.172 267.724C306.633 267.187 304.98 267.132 303.412 267.564C301.843 267.997 300.427 268.899 299.333 270.162Z" fill="#FFB6B6"/>
<path d="M261.94 234.813L221.453 245.967L198.842 217.933C195.881 214.262 194.396 209.514 194.703 204.703C195.01 199.891 197.086 195.397 200.487 192.179C203.887 188.961 208.344 187.274 212.906 187.479C217.467 187.684 221.773 189.763 224.903 193.274L261.94 234.813Z" fill="#2F2E41"/>
<path d="M575.754 583.891H31.2112C30.9455 583.891 30.6907 583.78 30.5029 583.581C30.315 583.383 30.2095 583.114 30.2095 582.833C30.2095 582.553 30.315 582.283 30.5029 582.085C30.6907 581.887 30.9455 581.775 31.2112 581.775H575.754C576.02 581.775 576.275 581.887 576.462 582.085C576.65 582.283 576.756 582.553 576.756 582.833C576.756 583.114 576.65 583.383 576.462 583.581C576.275 583.78 576.02 583.891 575.754 583.891Z" fill="#12264B"/>
</g>
<defs>
<clipPath id="clip0_85_72">
<rect width="751" height="627" fill="white"/>
</clipPath>
</defs>
</svg>
