<svg width="615" height="416" viewBox="0 0 615 416" fill="none" xmlns="http://www.w3.org/2000/svg">
<g clip-path="url(#clip0_384_196)">
<path d="M361.908 305.183C447.14 305.183 516.234 236.865 516.234 152.591C516.234 68.3175 447.14 0 361.908 0C276.677 0 207.583 68.3175 207.583 152.591C207.583 236.865 276.677 305.183 361.908 305.183Z" fill="#FFD100"/>
<path d="M87.0387 368.934C91.2306 370.391 95.7314 370.756 100.107 369.994C104.483 369.232 108.587 367.368 112.023 364.583C120.774 357.32 123.517 345.356 125.75 334.277L132.353 301.509L118.529 310.921C108.587 317.689 98.4218 324.675 91.5384 334.478C84.6549 344.282 81.6503 357.665 87.1809 368.273" fill="#FFD100"/>
<path d="M88.2205 408.607C86.8213 398.53 85.3826 388.323 86.3641 378.138C87.2357 369.092 90.0267 360.257 95.7089 353.013C98.725 349.175 102.395 345.887 106.554 343.296C107.638 342.619 108.637 344.319 107.557 344.993C100.361 349.49 94.7947 356.13 91.6614 363.956C88.2008 372.66 87.645 382.147 88.2414 391.392C88.602 396.983 89.3663 402.538 90.1366 408.085C90.1973 408.336 90.1594 408.6 90.0306 408.824C89.9018 409.049 89.6917 409.216 89.4427 409.293C89.1886 409.361 88.9179 409.327 88.6891 409.198C88.4603 409.07 88.2919 408.858 88.2205 408.607Z" fill="#FFD100"/>
<path d="M180.816 394.728C182.453 396.639 184.559 398.101 186.933 398.973C189.307 399.846 191.868 400.099 194.369 399.709C200.789 398.632 205.626 393.532 209.953 388.721L222.753 374.492L213.212 375.179C206.351 375.673 199.316 376.211 193.074 379.069C186.831 381.927 181.452 387.651 181.079 394.443" fill="#FFD100"/>
<path d="M169.832 414.571C172.081 409.217 174.349 403.789 177.801 399.061C180.867 394.862 184.815 391.313 189.721 389.371C192.322 388.343 195.085 387.773 197.886 387.684C198.616 387.661 198.612 388.781 197.884 388.804C193.035 388.964 188.362 390.643 184.54 393.598C180.302 396.89 177.263 401.397 174.86 406.112C173.408 408.964 172.164 411.913 170.926 414.86C170.883 415.001 170.787 415.12 170.658 415.193C170.529 415.267 170.377 415.289 170.232 415.256C170.088 415.217 169.965 415.123 169.889 414.995C169.814 414.866 169.794 414.714 169.832 414.571Z" fill="#FFD100"/>
<path d="M101.697 390.775C103.495 393.477 105.966 395.675 108.873 397.159C111.779 398.642 115.023 399.36 118.292 399.244C126.693 398.85 133.696 393.053 140 387.549L158.647 371.27L146.306 370.686C137.431 370.266 128.327 369.874 119.874 372.58C111.421 375.286 103.625 381.799 102.079 390.451" fill="#FFD100"/>
<path d="M84.2665 414.4C91.001 402.618 98.8124 389.523 112.77 385.338C116.651 384.178 120.721 383.762 124.759 384.114C126.032 384.222 125.714 386.162 124.444 386.054C117.674 385.498 110.917 387.266 105.311 391.059C99.9163 394.69 95.716 399.737 92.1608 405.09C89.9832 408.369 88.0326 411.787 86.0816 415.2C85.4582 416.291 83.6358 415.504 84.2665 414.4Z" fill="#FFD100"/>
<path d="M375.105 213.288C388.496 206.011 405.161 207.472 419.589 212.447C434.016 217.422 447.091 225.573 461.101 231.602C503.915 250.025 555.517 247.054 595.879 223.843C599.696 232.623 595.601 242.665 591.103 251.124C586.604 259.582 581.477 268.749 583.329 278.129C585.699 290.131 598.426 297.328 603.583 308.443C608.478 318.994 605.851 331.386 602.095 342.384C598.34 353.383 593.466 364.464 594.104 376.056C594.742 387.648 603.26 399.905 615 399.914C597.601 402.587 579.859 405.262 562.471 402.523C545.082 399.783 527.785 390.69 519.711 375.218C515.676 367.484 514.12 358.593 509.485 351.195C501.592 338.594 486.442 332.669 472.148 328.203C457.854 323.737 442.557 319.435 432.493 308.45C422.904 297.983 419.866 283.402 414.786 270.203C406.229 248.107 391.368 228.944 372.006 215.041" fill="#00B1EB"/>
<path d="M390.621 158.449C385.92 156.287 380.149 155.578 375.366 157.587C370.583 159.596 367.322 164.746 368.868 169.304C369.57 171.37 371.167 173.403 370.544 175.49C370.066 177.096 368.395 178.156 366.754 178.911C365.113 179.665 363.319 180.299 362.132 181.57C360.946 182.842 360.698 185.032 362.18 186.018C362.669 186.343 363.279 186.497 363.753 186.84C364.156 187.164 364.447 187.604 364.586 188.1C364.724 188.596 364.702 189.122 364.524 189.605C364.129 190.576 363.477 191.425 362.636 192.061C360.953 193.496 358.729 195.138 359.251 197.175C359.445 197.719 359.769 198.209 360.195 198.604C360.622 198.998 361.138 199.285 361.7 199.44C362.868 199.773 364.079 199.931 365.295 199.909L414.948 201.455C416.587 201.577 418.235 201.486 419.85 201.184C420.635 201.043 421.382 200.743 422.045 200.303C422.707 199.863 423.271 199.292 423.7 198.627C424.651 196.887 424.027 194.743 422.853 193.118C421.678 191.493 420.017 190.211 418.643 188.719C417.27 187.227 416.147 185.364 416.389 183.436C416.582 181.892 417.612 180.558 418.351 179.155C419.091 177.752 419.52 175.999 418.563 174.709C417.213 172.89 413.975 173.055 412.441 171.36C411.283 170.082 411.507 168.241 411.391 166.592C411.115 162.625 408.337 158.88 404.384 157.14C402.373 156.287 400.187 155.918 398.004 156.065C395.821 156.212 393.705 156.87 391.83 157.985L390.621 158.449Z" fill="#2F2E41"/>
<path d="M359.243 407.412L351.467 405.101L356.778 374.343L368.256 377.753L359.243 407.412Z" fill="#A0616A"/>
<path d="M358.962 415.455L333.887 408.005L333.982 407.692C334.367 406.424 335.001 405.245 335.847 404.219C336.693 403.194 337.735 402.344 338.914 401.717C340.093 401.09 341.384 400.699 342.716 400.566C344.047 400.432 345.392 400.56 346.674 400.941L361.99 405.49L358.962 415.455Z" fill="#2F2E41"/>
<path d="M432.629 407.672L424.508 407.671L420.646 376.702L432.63 376.703L432.629 407.672Z" fill="#A0616A"/>
<path d="M434.699 415.455L408.517 415.454V415.126C408.517 413.803 408.78 412.493 409.292 411.27C409.804 410.048 410.555 408.937 411.501 408.001C412.448 407.065 413.571 406.323 414.808 405.817C416.044 405.31 417.369 405.05 418.708 405.05L434.7 405.05L434.699 415.455Z" fill="#2F2E41"/>
<path d="M421.357 384.249C420.648 384.248 419.963 383.998 419.424 383.544C418.885 383.089 418.527 382.46 418.415 381.768L406.358 307.401C406.278 306.908 406.038 306.455 405.674 306.11C405.31 305.764 404.842 305.546 404.341 305.487C403.84 305.429 403.333 305.534 402.898 305.786C402.462 306.038 402.122 306.424 401.928 306.884L370.691 381.239C370.4 381.925 369.859 382.478 369.174 382.787C368.489 383.096 367.711 383.138 366.996 382.905L355.714 379.186C355.011 378.957 354.421 378.476 354.057 377.839C353.694 377.202 353.584 376.454 353.749 375.741L379.348 263.739C379.473 263.199 379.749 262.705 380.144 262.313C380.538 261.92 381.036 261.645 381.581 261.518L415.912 253.638C416.334 253.543 416.772 253.539 417.195 253.626C417.619 253.713 418.019 253.889 418.368 254.142C440.974 270.383 439.064 323.444 434.851 381.06C434.798 381.781 434.48 382.458 433.955 382.962C433.431 383.466 432.737 383.762 432.007 383.793L421.487 384.246C421.444 384.247 421.4 384.249 421.357 384.249Z" fill="#2F2E41"/>
<path d="M392.457 201.075C401.442 201.075 408.725 193.873 408.725 184.99C408.725 176.106 401.442 168.905 392.457 168.905C383.473 168.905 376.189 176.106 376.189 184.99C376.189 193.873 383.473 201.075 392.457 201.075Z" fill="#A0616A"/>
<path d="M393.16 268.357C389.255 268.332 385.404 267.452 381.884 265.78L381.763 265.724L381.715 265.601L367.124 228.222L366.847 221.727C366.754 219.555 367.122 217.388 367.927 215.365C368.732 213.343 369.957 211.509 371.523 209.983C373.088 208.456 374.96 207.271 377.016 206.503C379.073 205.736 381.27 205.402 383.465 205.525L398.956 206.387C402.957 206.612 406.721 208.337 409.482 211.209C412.243 214.082 413.793 217.887 413.816 221.85C414.219 222.614 417.076 228.59 411.476 234.205C411.267 235.483 409.308 248.774 416.7 256.083L416.908 256.288L416.726 256.517C416.608 256.665 407.115 268.355 393.16 268.357Z" fill="#3F3D56"/>
<path d="M414.912 271.176C415.828 270.848 416.659 270.326 417.348 269.645C418.037 268.965 418.567 268.144 418.9 267.239C419.233 266.334 419.362 265.368 419.277 264.409C419.192 263.45 418.895 262.521 418.407 261.688L433.879 243.977L421.682 242.408L408.86 259.467C407.499 260.369 406.519 261.734 406.107 263.303C405.696 264.872 405.88 266.536 406.626 267.979C407.372 269.423 408.628 270.545 410.155 271.135C411.682 271.724 413.375 271.739 414.912 271.176Z" fill="#A0616A"/>
<path d="M424.585 257.507C424.004 257.506 423.436 257.338 422.95 257.022L415.298 252.06C414.655 251.644 414.199 250.998 414.026 250.258C413.854 249.518 413.977 248.74 414.372 248.088L419.911 238.885C420.211 238.388 420.401 237.833 420.468 237.257C420.536 236.682 420.479 236.098 420.302 235.546C420.126 234.994 419.833 234.484 419.443 234.052C419.053 233.619 418.575 233.273 418.041 233.036L402.126 225.981C400.169 225.103 398.571 223.593 397.595 221.699C396.619 219.806 396.322 217.641 396.753 215.559C397.051 214.154 397.672 212.837 398.568 211.709C399.465 210.581 400.612 209.672 401.922 209.054C403.231 208.436 404.667 208.125 406.118 208.145C407.569 208.166 408.995 208.516 410.286 209.171L434.43 221.403C436.059 222.229 437.488 223.392 438.62 224.814C439.751 226.236 440.559 227.884 440.987 229.643C441.415 231.402 441.453 233.233 441.1 235.008C440.746 236.784 440.008 238.462 438.937 239.93L427.002 256.282C426.726 256.662 426.363 256.97 425.943 257.183C425.523 257.396 425.057 257.507 424.585 257.507Z" fill="#3F3D56"/>
<path d="M375.815 182.703C380.952 182.295 385.218 177.221 384.683 172.152C384.623 174.241 385.342 176.279 386.702 177.879C388.063 179.478 389.971 180.527 392.063 180.827C394.419 181.083 397.003 180.378 399.054 181.554C401.326 182.856 402.053 186.017 404.419 187.142C406.706 188.228 409.611 186.747 410.74 184.501C411.87 182.254 411.593 179.556 410.844 177.159C409.776 173.741 407.832 170.654 405.2 168.199C402.569 165.744 399.339 164.004 395.826 163.149C392.313 162.293 388.636 162.352 385.152 163.318C381.668 164.284 378.497 166.125 375.946 168.662C373.786 170.81 372.07 173.548 371.792 176.565C371.514 179.582 372.93 182.856 375.67 184.211L375.815 182.703Z" fill="#2F2E41"/>
<path d="M337.969 138.147C338.826 138.604 339.571 139.241 340.152 140.013C340.733 140.786 341.136 141.675 341.332 142.618C341.528 143.561 341.513 144.535 341.287 145.472C341.061 146.408 340.63 147.284 340.025 148.038L352.715 167.793L340.417 167.585L330.252 148.857C329.038 147.768 328.271 146.276 328.095 144.664C327.92 143.053 328.348 141.433 329.299 140.113C330.25 138.793 331.658 137.864 333.256 137.501C334.854 137.139 336.531 137.369 337.969 138.147Z" fill="#A0616A"/>
<path d="M348.197 152.214L364.539 190.396L381.673 219.122C382.396 220.335 382.831 221.695 382.946 223.098C383.06 224.501 382.85 225.912 382.332 227.223C381.814 228.534 381.001 229.712 379.955 230.668C378.91 231.623 377.658 232.331 376.295 232.738C374.133 233.372 371.813 233.221 369.754 232.312C367.695 231.403 366.033 229.796 365.068 227.781L332.045 158.013C331.866 157.634 331.77 157.221 331.764 156.803C331.759 156.385 331.843 155.97 332.013 155.586C332.182 155.203 332.432 154.859 332.745 154.578C333.059 154.298 333.43 154.086 333.833 153.958L344.54 150.557C344.743 150.493 344.953 150.449 345.165 150.428C345.797 150.365 346.433 150.504 346.979 150.826C347.525 151.148 347.952 151.634 348.197 152.214Z" fill="#3F3D56"/>
<path d="M501.392 416H0.66234C0.486677 416 0.318207 415.931 0.193994 415.808C0.0697816 415.685 0 415.519 0 415.345C0 415.171 0.0697816 415.005 0.193994 414.882C0.318207 414.759 0.486677 414.69 0.66234 414.69H501.392C501.567 414.69 501.736 414.759 501.86 414.882C501.984 415.005 502.054 415.171 502.054 415.345C502.054 415.519 501.984 415.685 501.86 415.808C501.736 415.931 501.567 416 501.392 416Z" fill="#FFD100"/>
<path d="M395.986 70.8683V124.57C395.986 124.744 395.916 124.91 395.792 125.033C395.668 125.156 395.499 125.225 395.323 125.225C395.148 125.225 394.979 125.156 394.855 125.033C394.731 124.91 394.661 124.744 394.661 124.57V70.8683C394.661 70.6946 394.731 70.528 394.855 70.4052C394.979 70.2824 395.148 70.2134 395.323 70.2134C395.499 70.2134 395.668 70.2824 395.792 70.4052C395.916 70.528 395.986 70.6946 395.986 70.8683Z" fill="#FFD100"/>
<path d="M453.494 116.426L434.76 134.95C434.636 135.072 434.467 135.141 434.292 135.14C434.117 135.14 433.948 135.071 433.824 134.949C433.7 134.826 433.631 134.66 433.63 134.486C433.63 134.313 433.7 134.146 433.823 134.023L452.557 115.5C452.619 115.439 452.692 115.391 452.772 115.358C452.852 115.324 452.939 115.307 453.026 115.307C453.113 115.307 453.199 115.324 453.28 115.357C453.36 115.39 453.433 115.438 453.495 115.499C453.556 115.56 453.605 115.632 453.639 115.712C453.672 115.791 453.689 115.877 453.689 115.963C453.689 116.049 453.671 116.134 453.638 116.214C453.605 116.293 453.556 116.365 453.494 116.426Z" fill="#FFD100"/>
<path d="M337.153 116.426L355.886 134.95C356.011 135.072 356.179 135.141 356.355 135.141C356.53 135.141 356.699 135.072 356.823 134.95C356.947 134.827 357.017 134.66 357.017 134.487C357.017 134.313 356.947 134.146 356.823 134.023L338.089 115.5C338.028 115.439 337.955 115.391 337.874 115.358C337.794 115.324 337.708 115.307 337.621 115.307C337.534 115.307 337.447 115.324 337.367 115.357C337.286 115.39 337.213 115.438 337.152 115.499C337.09 115.56 337.041 115.632 337.008 115.712C336.975 115.791 336.957 115.877 336.958 115.963C336.958 116.049 336.975 116.134 337.008 116.214C337.042 116.293 337.091 116.365 337.153 116.426Z" fill="#FFD100"/>
</g>
<defs>
<clipPath id="clip0_384_196">
<rect width="615" height="416" fill="white"/>
</clipPath>
</defs>
</svg>
