<svg width="163" height="197" viewBox="0 0 163 197" fill="none" xmlns="http://www.w3.org/2000/svg">
<g clip-path="url(#clip0_384_449)">
<path d="M81.095 24.6861C125.882 24.6861 162.19 60.7341 162.19 105.202C162.19 149.67 125.883 185.718 81.095 185.718C36.307 185.718 8.24932e-06 149.669 8.24932e-06 105.202C-0.00725148 89.2155 4.77728 73.5936 13.736 60.3531C21.178 49.3402 31.2144 40.3267 42.9609 34.1069C54.7074 27.887 67.8034 24.6517 81.095 24.6861Z" fill="#FFD100"/>
<mask id="mask0_384_449" style="mask-type:luminance" maskUnits="userSpaceOnUse" x="0" y="0" width="150" height="197">
<path d="M149.729 0H0.925781V196.937H149.729V0Z" fill="white"/>
</mask>
<g mask="url(#mask0_384_449)">
<path d="M82.9328 41.1461C81.0107 40.293 78.8671 40.073 76.8118 40.5181C72.9118 41.3681 71.6368 45.2761 71.3118 48.7181C70.9868 52.1601 68.5228 90.3861 67.5518 102.37C66.5808 114.354 65.2928 134.802 68.4828 143.87C72.3698 154.923 84.8828 160.997 84.8828 160.997L100.107 185.291C108.718 183.902 117.071 181.227 124.887 177.355C133.069 173.258 140.202 167.336 145.733 160.046L133.798 143.674C133.798 143.674 138.454 131.974 138.698 120.797C138.942 109.62 135.661 74.8811 135.418 71.4801C135.175 68.0791 134.037 66.2491 129.418 65.7641C124.799 65.2791 118.569 71.4361 117.033 84.4741C117.033 84.4741 112.221 45.8511 111.77 42.9611C111.285 39.8441 108.854 35.7241 104.319 35.5611C102.972 35.5469 101.644 35.8829 100.466 36.5361C99.2878 37.1892 98.2995 38.1372 97.5978 39.2871C97.5978 39.2871 96.8878 32.6871 91.6258 32.9101C89.4482 33.0665 87.3919 33.9725 85.807 35.4741C84.2221 36.9757 83.2065 38.98 82.9328 41.1461Z" fill="#00B1EB"/>
<path d="M75.9889 98.6892C84.1451 96.2746 92.5695 94.8813 101.069 94.5412C102.004 94.5032 102.009 93.0412 101.069 93.0832C92.4389 93.4251 83.8846 94.8359 75.6019 97.2832C75.4231 97.3412 75.2735 97.466 75.1844 97.6315C75.0953 97.797 75.0735 97.9905 75.1235 98.1717C75.1735 98.3529 75.2915 98.5079 75.4529 98.6043C75.6142 98.7006 75.8056 98.7311 75.9889 98.6892Z" fill="#FFD100"/>
<path d="M96.9636 39.299C94.2136 57.285 94.9386 75.986 95.4196 94.099C95.4196 94.2923 95.4964 94.4777 95.6331 94.6145C95.7699 94.7512 95.9553 94.828 96.1486 94.828C96.342 94.828 96.5274 94.7512 96.6641 94.6145C96.8008 94.4777 96.8776 94.2923 96.8776 94.099C96.4006 76.125 95.6406 57.531 98.3686 39.684C98.5096 38.766 97.1046 38.371 96.9636 39.296" fill="#FFD100"/>
<path d="M82.0736 41.2382C80.5916 47.9832 80.6266 55.1212 80.5376 61.9882C80.3906 73.3882 80.6786 84.7882 80.9876 96.1752C80.9876 96.3685 81.0644 96.5539 81.2011 96.6907C81.3378 96.8274 81.5232 96.9042 81.7166 96.9042C81.9099 96.9042 82.0954 96.8274 82.2321 96.6907C82.3688 96.5539 82.4456 96.3685 82.4456 96.1752C82.1456 85.1492 81.8726 74.1142 81.9836 63.0842C82.0546 55.9982 81.9516 48.5842 83.4836 41.6262C83.6836 40.7112 82.2836 40.3212 82.0776 41.2382" fill="#FFD100"/>
<path d="M82.8045 120.239C87.7206 123.087 91.6649 127.349 94.1235 132.471C94.5325 133.315 95.7905 132.577 95.3825 131.736C92.8006 126.395 88.6754 121.952 83.5405 118.981C83.3736 118.883 83.1747 118.856 82.9876 118.905C82.8006 118.954 82.6406 119.076 82.543 119.243C82.4454 119.409 82.4182 119.608 82.4672 119.795C82.5162 119.982 82.6376 120.142 82.8045 120.24" fill="#FFD100"/>
<path d="M94.913 144.283C93.381 128.477 101.676 112.657 115.213 104.489C115.38 104.391 115.501 104.232 115.55 104.044C115.599 103.857 115.572 103.659 115.474 103.492C115.377 103.325 115.217 103.203 115.03 103.154C114.843 103.105 114.644 103.132 114.477 103.23C100.535 111.643 91.877 127.979 93.456 144.282C93.546 145.208 95.004 145.216 94.914 144.282" fill="#FFD100"/>
<path d="M116.416 85.0981C115.706 91.2981 115.065 97.4981 114.141 103.666C114.003 104.584 115.408 104.98 115.546 104.054C116.49 97.7541 117.146 91.4241 117.873 85.0981C117.979 84.1671 116.521 84.1751 116.415 85.0981" fill="#FFD100"/>
<path d="M4.92578 160.805L25.5078 132.657C25.5078 132.657 25.5078 124.721 27.6138 105.933C29.7198 87.1452 29.6698 77.9812 31.5008 74.1882C33.7678 69.4882 40.2468 70.3822 42.1288 74.1482C42.1288 74.1482 44.1208 49.7282 45.4368 43.4162C47.0078 35.8852 56.0368 37.2622 57.3368 39.7722C57.3315 38.2954 57.6776 36.8385 58.3465 35.5219C59.0154 34.2053 59.988 33.0667 61.1838 32.2002C64.5838 29.8122 70.3748 30.2572 72.2778 34.7922C72.9567 36.5625 73.3597 38.4265 73.4728 40.3192C74.4915 39.5747 75.6642 39.0682 76.9045 38.837C78.1449 38.6058 79.4213 38.6557 80.6398 38.9832C85.1948 40.2772 85.6398 44.3482 86.0858 49.2472C86.5318 54.1462 89.5678 90.9122 89.5678 105.852C89.5678 120.792 90.7818 135.734 84.7088 149.824C78.6358 163.914 64.2158 166.992 64.2158 166.992L44.2528 193.938C44.2528 193.938 19.0448 180.556 4.92578 160.805Z" fill="#12264B"/>
<path d="M56.368 40.2771C55.4393 56.4771 54.3963 72.6717 53.239 88.8611C53.173 89.7971 54.63 89.7921 54.697 88.8611C55.8543 72.6737 56.8973 56.4791 57.826 40.2771C57.88 39.3401 56.426 39.3431 56.368 40.2771Z" fill="#FFD100"/>
<path d="M72.3889 40.8232C71.4862 56.5725 70.4722 72.3145 69.3469 88.0492C69.2809 88.9862 70.7379 88.9812 70.8049 88.0492C71.9302 72.3159 72.9439 56.5739 73.8459 40.8232C73.8999 39.8862 72.4469 39.8892 72.3889 40.8232Z" fill="#FFD100"/>
<path d="M41.2667 74.0281C41.0974 80.6721 40.8137 87.3107 40.4157 93.9441C40.3587 94.8811 41.8157 94.8781 41.8737 93.9441C42.2737 87.3094 42.5574 80.6707 42.7247 74.0281C42.7247 73.8347 42.6479 73.6493 42.5112 73.5126C42.3745 73.3759 42.189 73.2991 41.9957 73.2991C41.8024 73.2991 41.6169 73.3759 41.4802 73.5126C41.3435 73.6493 41.2667 73.8347 41.2667 74.0281Z" fill="#FFD100"/>
<path d="M106.185 4.5191C104.793 10.0698 103.402 15.6208 102.012 21.1721C101.965 21.3567 101.993 21.5521 102.089 21.7166C102.185 21.881 102.341 22.0015 102.525 22.0521C102.708 22.1028 102.904 22.0797 103.071 21.9878C103.238 21.8958 103.362 21.7423 103.417 21.5601L107.591 4.9071C107.633 4.72384 107.602 4.53148 107.506 4.37009C107.409 4.2087 107.254 4.09072 107.073 4.04071C106.892 3.9907 106.698 4.01253 106.533 4.10164C106.367 4.19076 106.243 4.34029 106.185 4.5191Z" fill="#FFD100" stroke="#FFD100" stroke-width="2"/>
<path d="M132.687 25.898L117.766 34.39C117.602 34.489 117.483 34.6485 117.436 34.834C117.389 35.0196 117.416 35.2163 117.513 35.3817C117.61 35.5471 117.767 35.6678 117.952 35.7178C118.137 35.7679 118.334 35.7431 118.501 35.649L133.422 27.158C133.586 27.0591 133.704 26.8996 133.751 26.714C133.799 26.5285 133.771 26.3318 133.675 26.1664C133.578 26.001 133.42 25.8803 133.236 25.8303C133.051 25.7802 132.854 25.8049 132.687 25.899" fill="#FFD100"/>
<path d="M132.687 25.898L117.766 34.39C117.602 34.489 117.483 34.6485 117.436 34.834C117.389 35.0196 117.416 35.2163 117.513 35.3817C117.61 35.5471 117.767 35.6678 117.952 35.7178C118.137 35.7679 118.334 35.7431 118.501 35.649L133.422 27.158C133.586 27.0591 133.704 26.8996 133.751 26.714C133.799 26.5285 133.771 26.3318 133.675 26.1664C133.578 26.001 133.42 25.8803 133.236 25.8303C133.051 25.7802 132.854 25.8049 132.687 25.899" stroke="#FFD100" stroke-width="2"/>
<path d="M74.1586 9.893L80.5286 25.832C80.8726 26.692 82.2826 26.317 81.9346 25.444L75.5636 9.505C75.2206 8.645 73.8096 9.02 74.1586 9.893Z" fill="#FFD100" stroke="#FFD100" stroke-width="2"/>
</g>
</g>
<defs>
<clipPath id="clip0_384_449">
<rect width="162.19" height="196.937" fill="white"/>
</clipPath>
</defs>
</svg>
