<svg width="799" height="739" viewBox="0 0 799 739" fill="none" xmlns="http://www.w3.org/2000/svg">
<path d="M392.676 228.366C455.861 199.929 505.975 136.301 586.929 148.45C647.653 157.584 680.157 208.561 689.952 264.148C715.712 410.086 520.293 510.812 388.538 521.867C252.052 533.395 60.7238 467.58 81.8973 318.568C90.6224 257.172 142.35 227.242 211.08 220.37C269.375 214.532 343.106 250.684 392.676 228.366Z" fill="#FFD100"/>
<path opacity="0.9" d="M392.676 228.366C455.861 199.929 505.975 136.301 586.929 148.45C647.653 157.584 680.157 208.561 689.952 264.148C715.712 410.086 520.293 510.812 388.538 521.867C252.052 533.395 60.7238 467.58 81.8973 318.568C90.6224 257.172 142.35 227.242 211.08 220.37C269.375 214.532 343.106 250.684 392.676 228.366Z" fill="#12264B"/>
<path d="M399.5 631.934C570.618 631.934 709.337 621.419 709.337 608.448C709.337 595.478 570.618 584.963 399.5 584.963C228.382 584.963 89.6641 595.478 89.6641 608.448C89.6641 621.419 228.382 631.934 399.5 631.934Z" fill="#12264B"/>
<path d="M475.693 515.704H448.527C434.385 515.704 422.959 534.666 422.959 558.063C422.959 581.46 434.417 600.408 448.527 600.408H475.693C489.835 600.408 501.261 581.445 501.261 558.063C501.261 534.681 489.835 515.704 475.693 515.704Z" fill="#263238"/>
<mask id="mask0_762_663" style="mask-type:luminance" maskUnits="userSpaceOnUse" x="422" y="515" width="80" height="86">
<path d="M475.693 515.704H448.527C434.385 515.704 422.959 534.666 422.959 558.063C422.959 581.46 434.417 600.408 448.527 600.408H475.693C489.835 600.408 501.261 581.445 501.261 558.063C501.261 534.681 489.835 515.704 475.693 515.704Z" fill="white"/>
</mask>
<g mask="url(#mask0_762_663)">
<path opacity="0.05" d="M507.653 515.704H480.487C466.345 515.704 454.919 534.666 454.919 558.063C454.919 581.46 466.377 600.408 480.487 600.408H507.653C521.795 600.408 533.221 581.445 533.221 558.063C533.221 534.681 521.795 515.704 507.653 515.704Z" fill="white"/>
</g>
<path d="M695.754 524.779L220.045 524.468V243.427H695.754V524.779Z" fill="#FFD100"/>
<path opacity="0.3" d="M695.753 243.427H373.341V524.764H695.753V243.427Z" fill="#263238"/>
<path opacity="0.2" d="M373.341 243.427H220.045V530.321H373.341V243.427Z" fill="white"/>
<path opacity="0.1" d="M221.195 256.492H695.753" stroke="white" stroke-width="2" stroke-linecap="round" stroke-linejoin="round"/>
<path opacity="0.1" d="M221.195 268.656H695.753" stroke="white" stroke-width="2" stroke-linecap="round" stroke-linejoin="round"/>
<path opacity="0.1" d="M221.195 280.805H695.753" stroke="white" stroke-width="2" stroke-linecap="round" stroke-linejoin="round"/>
<path opacity="0.1" d="M221.195 292.954H695.753" stroke="white" stroke-width="2" stroke-linecap="round" stroke-linejoin="round"/>
<path opacity="0.1" d="M221.195 305.118H695.753" stroke="white" stroke-width="2" stroke-linecap="round" stroke-linejoin="round"/>
<path opacity="0.1" d="M221.195 317.267H695.753" stroke="white" stroke-width="2" stroke-linecap="round" stroke-linejoin="round"/>
<path opacity="0.1" d="M221.195 329.417H695.753" stroke="white" stroke-width="2" stroke-linecap="round" stroke-linejoin="round"/>
<path opacity="0.1" d="M221.195 341.566H695.753" stroke="white" stroke-width="2" stroke-linecap="round" stroke-linejoin="round"/>
<path opacity="0.1" d="M221.195 353.73H695.753" stroke="white" stroke-width="2" stroke-linecap="round" stroke-linejoin="round"/>
<path opacity="0.1" d="M221.195 365.879H695.753" stroke="white" stroke-width="2" stroke-linecap="round" stroke-linejoin="round"/>
<path opacity="0.1" d="M221.195 378.028H695.753" stroke="white" stroke-width="2" stroke-linecap="round" stroke-linejoin="round"/>
<path opacity="0.1" d="M221.195 390.192H695.753" stroke="white" stroke-width="2" stroke-linecap="round" stroke-linejoin="round"/>
<path opacity="0.1" d="M221.195 402.341H695.753" stroke="white" stroke-width="2" stroke-linecap="round" stroke-linejoin="round"/>
<path opacity="0.1" d="M221.195 414.49H695.753" stroke="white" stroke-width="2" stroke-linecap="round" stroke-linejoin="round"/>
<path opacity="0.1" d="M221.195 426.639H695.753" stroke="white" stroke-width="2" stroke-linecap="round" stroke-linejoin="round"/>
<path opacity="0.1" d="M221.195 438.803H695.753" stroke="white" stroke-width="2" stroke-linecap="round" stroke-linejoin="round"/>
<path opacity="0.1" d="M221.195 450.952H695.753" stroke="white" stroke-width="2" stroke-linecap="round" stroke-linejoin="round"/>
<path opacity="0.1" d="M221.195 463.102H695.753" stroke="white" stroke-width="2" stroke-linecap="round" stroke-linejoin="round"/>
<path opacity="0.1" d="M221.195 475.266H695.753" stroke="white" stroke-width="2" stroke-linecap="round" stroke-linejoin="round"/>
<path opacity="0.1" d="M221.195 487.415H695.753" stroke="white" stroke-width="2" stroke-linecap="round" stroke-linejoin="round"/>
<path opacity="0.1" d="M221.195 499.564H695.753" stroke="white" stroke-width="2" stroke-linecap="round" stroke-linejoin="round"/>
<path opacity="0.1" d="M221.195 511.728H695.753" stroke="white" stroke-width="2" stroke-linecap="round" stroke-linejoin="round"/>
<path d="M132.746 521.231H107.61C94.5062 521.231 83.8955 538.79 83.8955 560.458C83.8955 582.125 94.5062 599.669 107.61 599.669H132.746C145.85 599.669 156.461 582.11 156.461 560.458C156.461 538.805 145.85 521.231 132.746 521.231Z" fill="#263238"/>
<path opacity="0.05" d="M164.722 521.231H139.57C126.466 521.231 115.855 538.79 115.855 560.458C115.855 582.125 126.466 599.669 139.57 599.669H164.722C177.81 599.669 188.437 582.11 188.437 560.458C188.437 538.805 177.81 521.231 164.722 521.231Z" fill="white"/>
<path d="M118.763 444.627H106.874C104.541 444.701 102.624 442.395 102.576 439.468C102.544 439.164 102.544 438.857 102.576 438.552L105.772 405.341C106.171 401.927 108.456 399.429 111.205 399.267H123.206C125.523 399.267 127.441 401.528 127.488 404.455C127.488 404.75 127.488 405.046 127.488 405.341L124.292 438.552C123.813 441.922 121.448 444.538 118.763 444.627Z" fill="#263238"/>
<path d="M130.653 334.93L107.722 449.312L357.377 539.766L355.635 314.341L300.728 312.863H150.324C141.28 312.789 133.306 321.775 130.653 334.93Z" fill="#FFD100"/>
<path d="M316.404 353.331C307.088 352.946 298.73 360.011 295.998 370.549L277.109 443.74H240.755L238.773 540.298H358.352" fill="#FFD100"/>
<path d="M134.232 437.591C130.573 437.591 127.616 433.246 127.616 427.896C127.615 426.963 127.711 426.032 127.904 425.117L141.631 357.957C142.781 352.385 146.297 348.571 150.276 348.586H281.6C283.022 348.586 284.188 350.271 284.188 352.37C284.191 352.742 284.154 353.113 284.076 353.478C281.2 367.312 271.852 413.145 268.272 430.674C267.441 434.783 264.852 437.591 261.88 437.591H134.232Z" fill="#263238"/>
<path d="M255.073 467.358C255.07 468.535 254.979 469.71 254.801 470.876L254.114 475.206L253.714 477.763L250.774 496.445L245.98 526.818L244.654 535.257H58.8223V526.818L58.9501 496.445L59.1259 478.281V470.891C57.5279 461.136 62.6255 451.677 70.3918 449.711C71.303 449.481 72.2438 449.366 73.1883 449.371H240.755C248.665 449.312 255.073 457.411 255.073 467.358Z" fill="#FFD100"/>
<path d="M349.531 357.676V429.669C349.531 434.029 347.118 437.577 344.13 437.591H298.715C295.726 437.591 293.313 434.044 293.313 429.669C293.313 428.956 293.377 428.244 293.505 427.541L307.504 353.937C308.175 350.404 310.412 348.025 312.905 348.158L344.322 349.754C347.23 349.916 349.531 353.419 349.531 357.676Z" fill="#263238"/>
<path opacity="0.1" d="M210.84 348.586H185.751L156.939 437.591H182.044L210.84 348.586Z" fill="white"/>
<path opacity="0.1" d="M230.368 348.586H218.383L189.587 437.591H201.556L230.368 348.586Z" fill="white"/>
<path d="M303.221 496.445V526.818H58.8545L58.9823 496.445H303.221Z" fill="black"/>
<path d="M269.183 496.445H246.587L205.95 518.527V526.818H303.22V496.445H269.183Z" fill="white"/>
<path d="M100.978 518.527V526.818H58.8545L58.9823 496.445H60.3566L100.978 518.527Z" fill="white"/>
<path opacity="0.3" d="M357.488 540.298L355.635 314.341L322.077 312.863C313.703 312.479 304.035 321.48 301.59 331.914L277.269 449.312H267.793C257.15 449.312 249.863 456.48 249.879 464.092L250.023 540.327H357.488" fill="#263238"/>
<path d="M254.45 476.271C254.446 476.551 254.379 476.827 254.252 477.082C254.126 477.337 253.942 477.564 253.714 477.749C253.324 478.084 252.809 478.269 252.276 478.266H59.126V474.246H252.324C252.692 474.247 253.054 474.334 253.375 474.5C253.696 474.665 253.967 474.903 254.162 475.192C254.364 475.52 254.463 475.893 254.45 476.271Z" fill="white"/>
<path d="M93.1958 474.26V478.281H59.0625L59.0785 474.26H93.1958Z" fill="#263238"/>
<path d="M254.449 476.271C254.446 476.551 254.379 476.827 254.252 477.082C254.126 477.337 253.942 477.564 253.714 477.749C253.324 478.084 252.809 478.269 252.276 478.266H205.423V474.246H252.276C252.644 474.247 253.006 474.334 253.327 474.5C253.648 474.665 253.919 474.903 254.114 475.192C254.333 475.515 254.449 475.889 254.449 476.271Z" fill="#263238"/>
<path d="M704.287 532.08V532.878C704.287 534.838 703.445 536.718 701.946 538.104C700.448 539.489 698.416 540.268 696.297 540.268H61.5711C59.452 540.268 57.4197 539.489 55.9213 538.104C54.4229 536.718 53.5811 534.838 53.5811 532.878V532.08C53.5811 530.12 54.4229 528.24 55.9213 526.854C57.4197 525.469 59.452 524.69 61.5711 524.69H696.297C698.416 524.69 700.448 525.469 701.946 526.854C703.445 528.24 704.287 530.12 704.287 532.08Z" fill="#263238"/>
<path d="M202.323 530.764H107.722V535.036H202.323V530.764Z" fill="black"/>
<path d="M82.5527 532.893C82.5527 533.375 82.3984 533.845 82.1094 534.246C81.8204 534.647 81.4095 534.959 80.9287 535.144C80.4478 535.329 79.9185 535.379 79.4075 535.286C78.8964 535.193 78.4266 534.962 78.0572 534.622C77.6878 534.283 77.4355 533.85 77.3319 533.378C77.2284 532.906 77.2783 532.416 77.4754 531.97C77.6726 531.524 78.008 531.142 78.4395 530.872C78.871 530.603 79.3792 530.457 79.9 530.454C80.2476 530.452 80.5922 530.514 80.9139 530.636C81.2357 530.757 81.5282 530.937 81.7748 531.163C82.0213 531.39 82.217 531.659 82.3505 531.956C82.484 532.253 82.5527 532.571 82.5527 532.893Z" fill="white"/>
<path d="M224.919 532.893C224.919 533.375 224.764 533.847 224.475 534.248C224.185 534.649 223.773 534.961 223.291 535.146C222.809 535.33 222.279 535.379 221.768 535.285C221.256 535.191 220.787 534.958 220.418 534.617C220.049 534.276 219.798 533.842 219.696 533.369C219.594 532.895 219.647 532.405 219.846 531.96C220.046 531.514 220.384 531.133 220.817 530.865C221.251 530.597 221.761 530.454 222.282 530.454C222.628 530.454 222.971 530.517 223.291 530.64C223.611 530.762 223.902 530.942 224.147 531.168C224.391 531.395 224.586 531.664 224.718 531.96C224.851 532.255 224.919 532.573 224.919 532.893Z" fill="white"/>
<path d="M301.367 557.102C301.367 533.587 312.889 514.521 327.111 514.521H299.801C285.595 514.521 274.073 533.587 274.073 557.102C274.073 580.617 285.595 599.669 299.801 599.669H327.111C312.889 599.713 301.367 580.662 301.367 557.102Z" fill="black"/>
<path opacity="0.7" d="M301.367 557.102C301.367 533.587 312.889 514.521 327.111 514.521H299.801C285.595 514.521 274.073 533.587 274.073 557.102C274.073 580.617 285.595 599.669 299.801 599.669H327.111C312.889 599.713 301.367 580.662 301.367 557.102Z" fill="#263238"/>
<path d="M327.111 599.728C341.329 599.728 352.855 580.664 352.855 557.147C352.855 533.63 341.329 514.566 327.111 514.566C312.893 514.566 301.367 533.63 301.367 557.147C301.367 580.664 312.893 599.728 327.111 599.728Z" fill="#263238"/>
<path d="M329.172 590.343C339.251 590.343 347.421 575.48 347.421 557.147C347.421 538.813 339.251 523.951 329.172 523.951C319.093 523.951 310.923 538.813 310.923 557.147C310.923 575.48 319.093 590.343 329.172 590.343Z" fill="white"/>
<path d="M327.51 585.879C337.156 585.879 344.976 573.015 344.976 557.147C344.976 541.278 337.156 528.415 327.51 528.415C317.864 528.415 310.044 541.278 310.044 557.147C310.044 573.015 317.864 585.879 327.51 585.879Z" fill="#263238"/>
<path d="M323.675 578.12C330.718 578.12 336.427 568.73 336.427 557.147C336.427 545.564 330.718 536.174 323.675 536.174C316.632 536.174 310.923 545.564 310.923 557.147C310.923 568.73 316.632 578.12 323.675 578.12Z" fill="black"/>
<path opacity="0.5" d="M704.287 532.08V532.878C704.287 534.838 703.445 536.718 701.946 538.104C700.448 539.489 698.416 540.268 696.297 540.268H373.341V524.69H696.297C698.416 524.69 700.448 525.469 701.946 526.854C703.445 528.24 704.287 530.12 704.287 532.08Z" fill="black"/>
<path d="M603.916 557.102C603.916 533.587 615.438 514.521 629.644 514.521H602.35C588.128 514.521 576.606 533.587 576.606 557.102C576.606 580.617 588.128 599.669 602.35 599.669H629.612C615.438 599.713 603.916 580.662 603.916 557.102Z" fill="black"/>
<path opacity="0.7" d="M603.916 557.102C603.916 533.587 615.438 514.521 629.644 514.521H602.35C588.128 514.521 576.606 533.587 576.606 557.102C576.606 580.617 588.128 599.669 602.35 599.669H629.612C615.438 599.713 603.916 580.662 603.916 557.102Z" fill="#263238"/>
<path d="M629.644 599.728C643.862 599.728 655.388 580.664 655.388 557.147C655.388 533.63 643.862 514.566 629.644 514.566C615.426 514.566 603.9 533.63 603.9 557.147C603.9 580.664 615.426 599.728 629.644 599.728Z" fill="#263238"/>
<path d="M631.722 590.343C641.801 590.343 649.971 575.48 649.971 557.147C649.971 538.813 641.801 523.951 631.722 523.951C621.643 523.951 613.473 538.813 613.473 557.147C613.473 575.48 621.643 590.343 631.722 590.343Z" fill="white"/>
<path d="M630.043 585.879C639.69 585.879 647.509 573.015 647.509 557.147C647.509 541.278 639.69 528.415 630.043 528.415C620.397 528.415 612.577 541.278 612.577 557.147C612.577 573.015 620.397 585.879 630.043 585.879Z" fill="#263238"/>
<path d="M626.208 578.12C633.251 578.12 638.96 568.73 638.96 557.147C638.96 545.564 633.251 536.174 626.208 536.174C619.165 536.174 613.456 545.564 613.456 557.147C613.456 568.73 619.165 578.12 626.208 578.12Z" fill="black"/>
<path d="M525.518 348.808C525.198 354.498 524.639 359.997 523.728 365.598C522.941 371.384 521.572 377.089 519.637 382.64C519.027 384.256 518.262 385.819 517.352 387.31C516.719 388.315 515.945 389.24 515.051 390.059L514.604 390.443L514.348 390.621L514.22 390.724L513.677 391.064L512.606 391.759C509.892 393.37 507.038 394.769 504.073 395.942C498.446 398.229 492.598 400.02 486.607 401.292L484.529 396.03C489.611 393.429 494.82 390.768 499.566 388.005C501.886 386.688 504.117 385.242 506.246 383.674L506.949 383.127L507.301 382.846C507.301 382.846 507.445 382.625 507.62 382.27C508.087 381.314 508.472 380.326 508.771 379.314C509.493 376.883 510.064 374.416 510.481 371.924C510.976 369.352 511.376 366.736 511.711 364.076C512.366 358.799 512.926 353.39 513.309 348.128L525.518 348.808Z" fill="#CE7A63"/>
<path d="M488.317 396.104L478.505 393.296L480.343 404.277C480.343 404.277 486.735 403.538 489.931 400.228L488.317 396.104Z" fill="#CE7A63"/>
<path d="M466.616 400.361L467.159 401.839C467.466 402.655 468.05 403.357 468.826 403.84C469.601 404.322 470.524 404.559 471.457 404.514L476.459 404.307L474.606 393.296L469.108 395.291C468.066 395.675 467.224 396.417 466.759 397.362C466.294 398.307 466.243 399.382 466.616 400.361Z" fill="#CE7A63"/>
<path d="M537.12 338.152C537.12 341.581 535.33 348.35 533.796 353.434C532.661 357.085 531.718 359.863 531.718 359.863L529.465 359.346L510.897 355.001C510.609 346.133 510.976 336.481 520.485 330.688C526.429 327.052 537.072 332.047 537.12 338.152Z" fill="#263238"/>
<path opacity="0.3" d="M537.104 338.743C535.89 337.56 533.141 337.353 527.149 339.112C518.567 341.625 516.17 350.316 516.059 356.213L529.466 359.346L530.616 359.627L531.719 359.863C531.719 359.863 532.182 358.474 532.854 356.361C533.125 355.503 533.461 354.498 533.78 353.405C535.38 348.624 536.493 343.715 537.104 338.743Z" fill="black"/>
<path d="M499.008 614.065L487.678 610.399L494.805 587.697L506.119 591.377L499.008 614.065Z" fill="#CE7A63"/>
<path d="M650.386 587.165L641.165 593.52L622.293 575.829L631.513 569.473L650.386 587.165Z" fill="#CE7A63"/>
<path d="M637.395 590.934L647.35 583.322C647.519 583.187 647.734 583.113 647.958 583.113C648.181 583.113 648.396 583.187 648.565 583.322L656.203 589.737C656.375 589.895 656.511 590.082 656.604 590.289C656.697 590.496 656.744 590.717 656.744 590.941C656.744 591.165 656.697 591.387 656.604 591.593C656.511 591.8 656.375 591.988 656.203 592.146L656.043 592.279C652.528 594.88 650.674 595.974 646.296 599.314C643.611 601.369 637.97 606.29 634.247 609.128C630.523 611.966 627.295 608.729 628.574 607.236C634.279 600.556 635.605 596.151 636.276 592.545C636.437 591.905 636.832 591.336 637.395 590.934Z" fill="#263238"/>
<path d="M486.91 607.118L499.503 611.981C499.727 612.071 499.914 612.227 500.035 612.424C500.156 612.621 500.205 612.849 500.174 613.074L498.752 623.346C498.696 623.758 498.466 624.132 498.112 624.387C497.759 624.641 497.311 624.756 496.866 624.706C496.701 624.69 496.539 624.65 496.387 624.588C491.928 622.918 489.835 622.09 484.306 619.947L467.335 613.37C462.733 611.582 463.724 606.911 465.737 607.251C475.053 608.818 481.062 608.3 484.737 607.015C485.089 606.898 485.462 606.848 485.835 606.865C486.208 606.883 486.574 606.969 486.91 607.118Z" fill="#263238"/>
<path opacity="0.2" d="M494.805 587.712L491.146 599.403L502.172 604.014L506.135 591.377L494.805 587.712Z" fill="black"/>
<path opacity="0.2" d="M631.529 569.473L622.293 575.829L632.025 584.948L641.245 578.593L631.529 569.473Z" fill="black"/>
<path d="M571.956 393.636L525.295 394.256C518.903 360.839 517.305 344.891 517.305 337.22C517.297 335.307 518.01 333.451 519.323 331.973C520.636 330.494 522.465 329.486 524.496 329.121C527.34 328.604 530.888 328.012 534.451 327.554C535.666 327.406 536.896 327.259 538.111 327.14C545.158 326.581 552.239 326.488 559.3 326.86C560.355 326.86 561.394 326.948 562.496 327.007C567.29 327.288 571.669 327.85 574.785 328.293C575.906 328.46 576.909 329.032 577.574 329.883C578.239 330.734 578.512 331.794 578.332 332.831C578.34 332.904 578.34 332.979 578.332 333.052C576.958 338.964 575.84 344.211 574.945 348.882C573.522 356.272 572.628 362.302 572.1 367.564C571.301 376.237 571.253 384.955 571.956 393.636Z" fill="#263238"/>
<path opacity="0.1" d="M572.084 367.608C569.735 361.09 569.863 347.567 572.387 343.192L574.96 348.912C573.506 356.346 572.611 362.347 572.084 367.608Z" fill="black"/>
<path d="M525.294 394.256C525.294 394.256 517.304 457.086 510.097 496.238C504.392 526.892 489.979 590.697 489.979 590.697L508.691 596.831C508.691 596.831 530.12 530.321 533.876 501.914C548.977 460.959 559.843 393.946 559.843 393.946L525.294 394.256Z" fill="#FFD100"/>
<path d="M486.942 594.984L508.595 602.034L511.488 595.604L487.997 587.298L486.942 594.984Z" fill="#263238"/>
<path opacity="0.1" d="M548.945 412.924L541.946 425.324C539.389 434.665 539.996 457.397 543.24 471.763C549.057 450.11 553.707 427.319 556.599 412.022L548.945 412.924Z" fill="black"/>
<path d="M535.426 394.256C535.426 394.256 543.783 464.58 559.396 503.628C567.226 523.212 625.313 581.268 625.313 581.268L638.417 571.572C638.417 571.572 601.583 512.999 585.475 497.672C578.907 463.678 587.169 412.717 571.908 393.65L535.426 394.256Z" fill="#FFD100"/>
<path d="M626.416 585.421L641.788 573.774L637.634 567.463L620.807 581.017L626.416 585.421Z" fill="#263238"/>
<path d="M572.691 391.108L574.849 394.936C575.008 395.232 574.641 395.557 574.098 395.557L525.135 396.208C524.703 396.208 524.368 396.015 524.32 395.779L523.856 391.921C523.856 391.655 524.192 391.419 524.639 391.419L571.908 390.783C572.058 390.775 572.207 390.8 572.343 390.857C572.479 390.914 572.599 391 572.691 391.108Z" fill="#263238"/>
<path d="M566.348 396.104H567.642C567.882 396.104 568.073 395.971 568.057 395.838L567.37 390.813C567.37 390.665 567.147 390.562 566.891 390.562H565.692C565.437 390.562 565.245 390.695 565.277 390.828L565.948 395.838C565.868 395.956 566.108 396.104 566.348 396.104Z" fill="#FFD100"/>
<path d="M528.65 396.577H529.929C530.184 396.577 530.36 396.444 530.344 396.296L529.689 391.286C529.689 391.138 529.433 391.02 529.178 391.02H527.899C527.644 391.02 527.452 391.153 527.468 391.3L528.139 396.311C528.171 396.459 528.395 396.577 528.65 396.577Z" fill="#FFD100"/>
<path d="M547.506 396.296H548.785C549.04 396.296 549.232 396.163 549.216 396.015L548.545 391.005C548.545 390.842 548.305 390.724 548.05 390.739H546.771C546.516 390.739 546.34 390.872 546.34 391.02L547.011 396.03C546.995 396.207 547.251 396.296 547.506 396.296Z" fill="#FFD100"/>
<path d="M462.845 350.02L532.102 341.226L541.69 404.115L473.679 412.746L462.845 350.02Z" fill="#FFD100"/>
<path opacity="0.8" d="M462.845 350.02L532.102 341.226L541.69 404.115L473.679 412.746L462.845 350.02Z" fill="white"/>
<path opacity="0.2" d="M533.052 338.189L514.559 340.608L524.478 405.487L542.972 403.068L533.052 338.189Z" fill="#FFD100"/>
<path d="M551.741 396.193L542.153 392.719L543.096 403.804C543.096 403.804 549.488 403.509 552.924 400.42L551.741 396.193Z" fill="#CE7A63"/>
<path d="M581.896 341.004C584.468 347.655 586.69 354.306 588.575 361.105C589.534 364.519 590.429 367.948 591.148 371.451C591.5 373.225 591.803 375.028 592.027 376.905C592.284 378.866 592.375 380.843 592.299 382.817C592.254 384.102 592.039 385.378 591.659 386.615C591.134 388.137 590.256 389.534 589.087 390.709C587.378 392.403 585.346 393.79 583.094 394.803C579.406 396.458 575.524 397.713 571.525 398.543C564.047 400.147 556.423 401.092 548.753 401.366L548.002 395.794C551.502 395.025 555.081 394.168 558.565 393.266C562.048 392.365 565.516 391.36 568.84 390.236C572.015 389.227 575.076 387.935 577.98 386.379C579.036 385.808 579.976 385.073 580.761 384.206C580.969 383.911 580.969 383.837 580.937 383.837C580.969 383.399 580.969 382.959 580.937 382.521C580.876 381.089 580.711 379.662 580.441 378.25C580.186 376.772 579.834 375.116 579.451 373.491C578.652 370.328 577.757 367.091 576.75 363.854C574.753 357.439 572.499 350.922 570.246 344.64L581.896 341.004Z" fill="#CE7A63"/>
<path d="M533.317 398.188L534.068 400.76C534.293 401.586 534.804 402.321 535.522 402.854C536.24 403.388 537.127 403.69 538.047 403.716L543.193 403.849L542.25 392.779L537.008 393.325C536.452 393.377 535.912 393.53 535.42 393.775C534.927 394.02 534.492 394.352 534.138 394.753C533.785 395.154 533.521 395.616 533.361 396.111C533.2 396.607 533.148 397.127 533.205 397.641C533.229 397.826 533.266 398.008 533.317 398.188Z" fill="#CE7A63"/>
<path d="M576.447 328.619C581.816 330.643 586.21 346.96 586.21 346.96L571.381 357.676C571.381 357.676 560.866 342.453 563.007 335.846C564.829 330.259 569.607 326.062 576.447 328.619Z" fill="#263238"/>
<path d="M633.767 595.545H633.575C633.307 595.528 633.047 595.449 632.821 595.315C632.595 595.18 632.409 594.995 632.281 594.777C632.185 594.651 632.128 594.504 632.114 594.351C632.1 594.198 632.13 594.044 632.201 593.905C632.856 592.722 636.995 592.249 637.442 592.205C637.495 592.196 637.55 592.202 637.599 592.223C637.647 592.245 637.688 592.28 637.714 592.323C637.744 592.365 637.76 592.414 637.76 592.464C637.76 592.514 637.744 592.563 637.714 592.604C636.851 593.683 635.173 595.457 633.767 595.545ZM636.883 592.782C635.285 593.003 633.032 593.491 632.712 594.141C632.673 594.196 632.653 594.26 632.653 594.326C632.653 594.392 632.673 594.456 632.712 594.511C632.787 594.662 632.906 594.792 633.055 594.886C633.205 594.98 633.379 595.034 633.559 595.043C634.358 595.043 635.636 594.245 636.915 592.782H636.883Z" fill="#263238"/>
<path d="M637.25 592.678C635.86 592.678 633.08 592.22 632.456 591.2C632.357 591.023 632.325 590.82 632.366 590.625C632.406 590.429 632.517 590.251 632.68 590.121C632.821 589.978 632.994 589.865 633.188 589.791C633.381 589.717 633.59 589.683 633.799 589.692C635.477 589.692 637.602 592.072 637.666 592.205C637.69 592.24 637.703 592.281 637.703 592.323C637.703 592.365 637.69 592.406 637.666 592.441C637.653 592.485 637.626 592.524 637.589 592.553C637.552 592.582 637.506 592.6 637.458 592.604L637.25 592.678ZM633.703 590.224C633.478 590.245 633.268 590.339 633.111 590.49C632.872 590.727 632.92 590.875 632.984 590.993C633.351 591.643 635.54 592.175 636.947 592.175C636.145 591.245 635.059 590.56 633.831 590.21L633.703 590.224Z" fill="#263238"/>
<path d="M480.471 606.882C479.583 606.614 478.807 606.097 478.25 605.404C478.123 605.199 478.046 604.972 478.024 604.737C478.002 604.502 478.035 604.265 478.122 604.044C478.166 603.916 478.245 603.801 478.351 603.71C478.458 603.62 478.588 603.556 478.729 603.527C480.199 603.275 483.667 606.719 484.338 607.414C484.37 607.457 484.387 607.509 484.387 607.561C484.387 607.614 484.37 607.666 484.338 607.709C484.311 607.756 484.269 607.793 484.216 607.814C484.164 607.836 484.106 607.84 484.051 607.827C482.826 607.625 481.627 607.308 480.471 606.882ZM479.368 604.103C479.205 604.03 479.022 603.999 478.841 604.014C478.841 604.014 478.697 604.014 478.633 604.192C478.569 604.345 478.544 604.511 478.561 604.675C478.577 604.839 478.635 604.997 478.729 605.138C479.225 605.936 480.934 606.689 483.363 607.177C482.224 605.968 480.886 604.931 479.4 604.103H479.368Z" fill="#263238"/>
<path d="M484.034 607.798H483.938C482.772 606.719 480.87 603.482 481.525 602.447C481.669 602.226 481.973 601.989 482.66 602.167C485.233 602.861 484.45 607.473 484.402 607.665C484.402 607.713 484.382 607.76 484.347 607.796C484.311 607.831 484.262 607.853 484.21 607.857C484.178 607.863 484.144 607.861 484.113 607.851C484.082 607.84 484.055 607.822 484.034 607.798ZM482.756 602.64H482.596C482.34 602.566 482.149 602.64 482.085 602.64C481.701 603.246 482.932 605.684 484.05 606.985C484.034 605.847 484.194 603.231 482.756 602.64Z" fill="#263238"/>
<path d="M532.262 282.638C532.262 282.638 525.87 292.526 530.664 296.856C535.458 301.187 536.864 285.83 536.864 285.83L532.262 282.638Z" fill="#263238"/>
<path d="M561.952 305.842C561.952 305.842 569.942 294.285 566.618 282.8C563.295 271.316 547.762 278.736 541.21 275.588C538.81 274.238 536.253 273.143 533.588 272.321C533.159 272.204 532.708 272.179 532.267 272.248C531.827 272.317 531.409 272.479 531.047 272.721C529.449 274.021 532.229 276.46 533.092 277.376C532.562 276.808 531.949 276.311 531.271 275.898C530.424 275.381 529.289 275.337 529.673 276.652C530.33 278.065 531.508 279.218 532.997 279.904C532.373 279.578 528.682 277.849 528.426 278.928C528.394 279.19 528.468 279.453 528.634 279.667C531.031 283.806 535.857 289.008 541.418 289.112C548.114 289.2 554.506 306.626 561.952 305.842Z" fill="#263238"/>
<path d="M564.781 306.36C564.366 310.262 558.101 310.306 558.101 310.306C557.076 312.539 555.372 314.449 553.196 315.804C553.003 318.161 553.089 320.53 553.451 322.869C554.506 326.549 555.848 327.82 557.526 328.648L556.184 329.875C553.615 331.246 550.712 331.993 547.746 332.048L545.989 331.102L543.687 331.442C537.295 329.505 538.893 325.53 538.893 325.53C540.059 322.83 540.122 319.829 539.069 317.09C532.933 315.317 530.424 310.38 529.561 302.074C528.698 293.767 533.748 285.816 533.748 285.816C540.683 292.008 554.426 288.033 554.426 288.033C553.835 299.679 559.715 303.98 559.715 303.98C561.649 302.384 565.181 302.473 564.781 306.36Z" fill="#CE7A63"/>
<path d="M542.473 307.424C544.122 306.997 545.547 306.031 546.484 304.705C546.559 304.6 546.588 304.472 546.565 304.348C546.541 304.224 546.466 304.114 546.356 304.039C546.302 304.002 546.24 303.975 546.174 303.96C546.108 303.945 546.04 303.943 545.973 303.952C545.906 303.962 545.842 303.984 545.784 304.016C545.727 304.049 545.676 304.092 545.637 304.143C545.098 305.039 544.262 305.753 543.253 306.178C542.243 306.604 541.113 306.719 540.028 306.508C539.899 306.471 539.759 306.483 539.639 306.541C539.519 306.599 539.429 306.699 539.389 306.818C539.348 306.94 539.361 307.071 539.423 307.184C539.486 307.297 539.594 307.383 539.724 307.424C540.625 307.642 541.572 307.642 542.473 307.424Z" fill="#263238"/>
<path d="M544.294 297.255C544.294 298.009 543.975 298.659 543.432 298.733C542.888 298.807 542.393 298.186 542.329 297.433C542.265 296.679 542.665 295.955 543.208 295.955C543.751 295.955 544.231 296.487 544.294 297.255Z" fill="#263238"/>
<path d="M534.515 296.871C534.515 297.625 534.196 298.275 533.652 298.349C533.109 298.423 532.629 297.802 532.566 297.048C532.502 296.295 532.885 295.644 533.428 295.57C533.972 295.496 534.467 296.102 534.515 296.871Z" fill="#263238"/>
<path d="M537.104 304.187L536.992 298.719L534.052 303.33C534.458 303.676 534.944 303.932 535.472 304.081C536 304.229 536.558 304.265 537.104 304.187Z" fill="#BA4D3C"/>
<path d="M548.753 292.644C548.823 292.627 548.888 292.596 548.945 292.555C549.023 292.513 549.091 292.456 549.145 292.389C549.199 292.322 549.237 292.245 549.258 292.164C549.279 292.082 549.282 291.998 549.267 291.915C549.251 291.832 549.218 291.754 549.169 291.683C548.637 290.858 547.865 290.188 546.941 289.749C546.017 289.31 544.979 289.12 543.943 289.2C543.854 289.209 543.767 289.235 543.688 289.276C543.609 289.317 543.54 289.372 543.484 289.438C543.429 289.505 543.389 289.581 543.366 289.662C543.344 289.743 543.339 289.827 543.352 289.91C543.376 290.076 543.47 290.227 543.614 290.329C543.758 290.432 543.939 290.478 544.119 290.457C544.892 290.412 545.663 290.565 546.348 290.899C547.033 291.232 547.605 291.734 548.002 292.348C548.077 292.466 548.19 292.557 548.325 292.611C548.46 292.664 548.611 292.676 548.753 292.644Z" fill="#263238"/>
<path d="M531.415 292.038C531.594 291.995 531.749 291.889 531.846 291.742C532.133 291.342 532.539 291.026 533.015 290.835C533.492 290.643 534.018 290.584 534.531 290.664C534.619 290.681 534.71 290.681 534.798 290.665C534.887 290.649 534.971 290.616 535.046 290.569C535.12 290.522 535.184 290.462 535.233 290.392C535.281 290.322 535.314 290.243 535.33 290.161C535.362 289.996 535.324 289.827 535.222 289.688C535.12 289.55 534.964 289.454 534.786 289.422C533.996 289.286 533.179 289.375 532.443 289.675C531.708 289.976 531.087 290.475 530.663 291.107C530.574 291.253 530.549 291.425 530.594 291.587C530.639 291.75 530.749 291.89 530.903 291.979C531.06 292.056 531.242 292.077 531.415 292.038Z" fill="#263238"/>
<path d="M560.131 329.165L556.695 332.269L550.575 337.827L548.273 334.442L545.988 331.102L553.978 322.293L559.795 328.796L560.131 329.165Z" fill="white"/>
<path d="M545.989 331.102L544.215 333.836L541.61 337.826L535.634 327.85L539.453 323.697L545.989 331.102Z" fill="white"/>
</svg>
