<svg width="36" height="36" viewBox="0 0 36 36" fill="none" xmlns="http://www.w3.org/2000/svg">
<g clip-path="url(#clip0_384_768)">
<path d="M18.2441 3.75708C14.7861 3.75708 11.6078 5.02109 9.16651 7.11125C9.04415 7.20881 8.94265 7.33006 8.86807 7.46776C8.7935 7.60545 8.74737 7.75678 8.73244 7.91272C8.71751 8.06865 8.73409 8.226 8.78118 8.37539C8.82827 8.52477 8.90491 8.66312 9.00653 8.7822C9.10816 8.90128 9.23268 8.99864 9.37268 9.06849C9.51268 9.13833 9.66529 9.17922 9.82141 9.18872C9.97752 9.19823 10.134 9.17615 10.2814 9.1238C10.4288 9.07145 10.5642 8.98991 10.6794 8.88403C12.7158 7.14052 15.3513 6.09041 18.2441 6.09041C24.2972 6.09041 29.2529 10.6847 29.8356 16.5904H26.3979L31.0573 23.5904L35.7166 16.5904H32.163C31.5674 9.41735 25.5567 3.75708 18.2441 3.75708ZM5.43084 11.9237L0.771484 18.9237H4.32515C4.92073 26.0968 10.9314 31.7571 18.2441 31.7571C21.702 31.7571 24.8804 30.4931 27.3216 28.4029C27.444 28.3053 27.5455 28.1841 27.6201 28.0464C27.6946 27.9087 27.7408 27.7574 27.7557 27.6014C27.7706 27.4455 27.754 27.2882 27.7069 27.1388C27.6599 26.9894 27.5832 26.851 27.4816 26.732C27.38 26.6129 27.2554 26.5155 27.1154 26.4457C26.9754 26.3758 26.8228 26.3349 26.6667 26.3254C26.5106 26.3159 26.3542 26.338 26.2068 26.3904C26.0593 26.4427 25.924 26.5243 25.8087 26.6301C23.7723 28.3736 21.1368 29.4237 18.2441 29.4237C12.1909 29.4237 7.23519 24.8295 6.65255 18.9237H10.0902L5.43084 11.9237Z" fill="black"/>
</g>
<defs>
<clipPath id="clip0_384_768">
<rect width="34.9452" height="35" fill="white" transform="translate(0.771484 0.25708)"/>
</clipPath>
</defs>
</svg>
