<svg width="303" height="166" viewBox="0 0 303 166" fill="none" xmlns="http://www.w3.org/2000/svg">
<path d="M4.00006 83.5001C4.00006 83.5001 54.0001 4.50003 154 4.49999C248.033 4.49995 299.001 83.5001 299.001 83.5001" stroke="black" stroke-width="8"/>
<path d="M299 84C299 84 249.345 161.663 149.516 161.999C55.6431 162.315 5.99999 84.9848 5.99999 84.9848" stroke="black" stroke-width="8"/>
<path d="M230 83.5C230 124.505 195.445 158 152.5 158C109.555 158 75 124.505 75 83.5C75 42.4949 109.555 9 152.5 9C195.445 9 230 42.4949 230 83.5Z" stroke="black" stroke-width="8"/>
<ellipse cx="150.5" cy="84" rx="41.5" ry="40" fill="black"/>
<ellipse cx="173.5" cy="71" rx="19.5" ry="22" fill="white"/>
</svg>
